<svg xmlns="http://www.w3.org/2000/svg" xmlns:ev="http://www.w3.org/2001/xml-events" xmlns:xlink="http://www.w3.org/1999/xlink" width="11in" height="816" class="st70" color-interpolation-filters="sRGB" viewBox="0 0 792 612" xml:space="preserve"><style type="text/css">.st1{visibility:visible}.st2{fill:#5b9bd5;fill-opacity:.25;filter:url(#filter_2);stroke:#5b9bd5;stroke-opacity:.25}.st3,.st4{stroke-width:.75}.st3{fill:#cadbea;stroke:#41719c;stroke-opacity:.4}.st4{fill:#4f87bb;stroke:#40709c}.st5{fill:#feffff;font-family:Calibri;font-size:1.00001em;font-stretch:semi-expanded}.st6{fill:#bdd0e9;fill-opacity:.25;filter:url(#filter_2);stroke:#bdd0e9;stroke-opacity:.25}.st7,.st8{stroke:#8a98ab;stroke-width:.75}.st7{fill:#edf0f5;stroke-opacity:.4}.st8{fill:#a6b6cd}.st9{fill:#759fcc;fill-opacity:.25;filter:url(#filter_2);stroke:#759fcc;stroke-opacity:.25}.st10,.st11{stroke-width:.75}.st10{fill:#e3ecf4;stroke:#547495;stroke-opacity:.4}.st11{fill:url(#grad0-79);stroke:#547395}.st12{fill:none;stroke:none;stroke-width:.25}.st13{fill:#3f3f3f;font-family:Calibri;font-size:1.00001em}.st14{fill:#5b9bd5;fill-opacity:.22;filter:url(#filter_2);stroke:none;stroke-linecap:butt}.st15,.st16,.st17{stroke:none;stroke-width:.75}.st15{fill:#000;fill-opacity:0;stroke-linecap:butt}.st16,.st17{fill:url(#grad0-96);stroke-linecap:round;stroke-linejoin:round}.st17{fill:url(#grad0-100)}.st18{fill:url(#grad10-104);stroke:#308dda;stroke-linecap:butt;stroke-width:.130208}.st19{fill:url(#grad7-112);stroke:none;stroke-linecap:round;stroke-linejoin:round;stroke-width:.75}.st20{fill:url(#grad3-122);stroke:#000;stroke-linecap:butt;stroke-width:.130208}.st21,.st22{fill:url(#grad1-129);stroke:none;stroke-linecap:round;stroke-linejoin:round;stroke-width:.75}.st22{fill:url(#grad3-142)}.st23{fill:none}.st24,.st25{stroke:#308dda;stroke-linecap:butt;stroke-width:.130208}.st25{stroke:#fff}.st26{fill:url(#grad0-170);stroke:none;stroke-linecap:round;stroke-linejoin:round}.st26,.st27,.st28{stroke-width:.75}.st27{fill:url(#grad7-183);stroke:none;stroke-linecap:round;stroke-linejoin:round}.st28{fill:none;stroke:#c8c8c8}.st29,.st30{fill:url(#grad0-200);stroke:#4e8ec2;stroke-linecap:round;stroke-linejoin:round;stroke-width:.25}.st30{fill:url(#grad0-204);stroke-width:.0833333}.st31{stroke:#c8c8c8;stroke-width:.75}.st32{fill:#595959;font-family:Calibri;font-size:1.00001em}.st33{fill:#70ad47;fill-opacity:.25;filter:url(#filter_2);stroke:none;stroke-linecap:butt}.st34,.st35{fill:url(#grad0-220);stroke:none;stroke-linecap:round;stroke-linejoin:round;stroke-width:.75}.st35{fill:url(#grad0-224)}.st36{fill:url(#grad10-228);stroke:#559227;stroke-linecap:butt;stroke-width:.390625}.st37{fill:url(#grad7-236);stroke:none;stroke-linecap:round;stroke-linejoin:round;stroke-width:.75}.st38{fill:url(#grad3-122);stroke:#000;stroke-linecap:butt;stroke-width:.390625}.st39,.st40{fill:url(#grad1-252);stroke:none;stroke-linecap:round;stroke-linejoin:round;stroke-width:.75}.st40{fill:url(#grad3-265)}.st41,.st42{stroke:#559227;stroke-linecap:butt;stroke-width:.390625}.st42{stroke:#fff}.st43,.st44{fill:url(#grad0-293);stroke:none;stroke-linecap:round;stroke-linejoin:round;stroke-width:.75}.st44{fill:url(#grad7-306)}.st45,.st46,.st47{fill:none;stroke:#507e32;stroke-width:.75}.st46,.st47{fill:url(#grad0-200);stroke:#4e8ec2;stroke-linecap:round;stroke-linejoin:round}.st47{fill:url(#grad0-204);stroke-width:.25}.st48{stroke:#507e32;stroke-width:.75}.st49{fill:#507e31;font-family:Calibri;font-size:1.00001em}.st50{fill:none;stroke:#4a80b0;stroke-linecap:butt;stroke-width:1.25}.st51{fill:#fff;font-family:Calibri;font-size:1.33333em;font-weight:700}.st52{fill:#d2dbe6;stroke:#8a98ab;stroke-width:.75}.st53{fill:#bdd0e9;fill-opacity:.25;filter:url(#filter_2)}.st54{fill:#fff}.st55{fill:none;stroke:none;stroke-width:.75}.st56{fill:#deebf6;font-family:Calibri;font-size:1.00001em}.st57{font-size:1em}.st58{fill:#5b9bd5;fill-opacity:.22;filter:url(#filter_2);stroke:#5b9bd5;stroke-opacity:.22}.st59,.st60{fill:#acccea;stroke:#c7c8c8;stroke-width:.25}.st60{fill:#5b9bd5}.st61{fill:#5b9bd5;fill-opacity:.22;filter:url(#filter_2)}.st62{font-size:.83333em}.st63{fill:none;filter:url(#filter_2);stroke:#5b9bd5;stroke-opacity:.22}.st64,.st65{fill:none;stroke:#c8c8c8;stroke-width:.25}.st65{fill:#5b9bd5}.st66,.st67{stroke:#5b9bd5}.st66{marker-end:url(#mrkr4-536);marker-start:url(#mrkr4-534);stroke-linecap:round;stroke-linejoin:round;stroke-width:1}.st67{fill:#5b9bd5;fill-opacity:1;stroke-opacity:1;stroke-width:.28409090909091}.st68{fill:#fff;font-family:Calibri;font-size:1.00001em}.st69{marker-end:url(#mrkr4-536);stroke:#5b9bd5;stroke-linecap:round;stroke-linejoin:round;stroke-width:1}.st70{fill:none;fill-rule:evenodd;font-size:12px;overflow:visible;stroke-linecap:square;stroke-miterlimit:3}</style><defs id="Patterns_And_Gradients"><linearGradient id="grad0-20" x1="0" x2="1" y1="0" y2="0" gradientTransform="rotate(90 0.5 0.5)"><stop offset=".01" stop-color="#b9cfe3" stop-opacity="1"/><stop offset=".5" stop-color="#6294c1" stop-opacity="1"/><stop offset="1" stop-color="#b9cfe3" stop-opacity="1"/></linearGradient><linearGradient id="grad0-46" x1="0" x2="1" y1="0" y2="0" gradientTransform="rotate(90 0.5 0.5)"><stop offset=".01" stop-color="#c0ccdc" stop-opacity="1"/><stop offset=".5" stop-color="#738db0" stop-opacity="1"/><stop offset="1" stop-color="#c0ccdc" stop-opacity="1"/></linearGradient><linearGradient id="grad0-72" x1="0" x2="1" y1="0" y2="0" gradientTransform="rotate(90 0.5 0.5)"><stop offset=".01" stop-color="#b8cde4" stop-opacity="1"/><stop offset=".5" stop-color="#5f8fc5" stop-opacity="1"/><stop offset="1" stop-color="#b8cde4" stop-opacity="1"/></linearGradient><linearGradient id="grad0-79" x1="0" x2="1" y1="0" y2="0" gradientTransform="rotate(250 0.5 0.5)"><stop offset="0" stop-color="#668bb3" stop-opacity="1"/><stop offset=".48" stop-color="#668bb3" stop-opacity="1"/><stop offset=".82" stop-color="#759fcc" stop-opacity="1"/></linearGradient><linearGradient id="grad0-96" x1="0" x2="1" y1="0" y2="0" gradientTransform="rotate(270 0.5 0.5)"><stop offset="0" stop-color="#97c2e6" stop-opacity="1"/><stop offset="1" stop-color="#4274a2" stop-opacity="1"/></linearGradient><linearGradient id="grad0-100" x1="0" x2="1" y1="0" y2="0" gradientTransform="rotate(0 0.5 0.5)"><stop offset="0" stop-color="#5491d3" stop-opacity="1"/><stop offset="1" stop-color="#246ba6" stop-opacity="1"/></linearGradient><pattern id="grad10-104" width="1" height="1" x="0" y="0" patternContentUnits="objectBoundingBox"><path fill="url(#grad0-105)" d="M 0.5 0.5 L 0 0 L 0 1 z"/><path fill="url(#grad0-106)" d="M 0.5 0.5 L 1 0 L 1 1 z"/><path fill="url(#grad0-107)" d="M 0.5 0.5 L 0 0 L 1 0 z"/><path fill="url(#grad0-108)" d="M 0.5 0.5 L 0 1 L 1 1 z"/></pattern><linearGradient id="grad0-105" x1="0" x2="1" y1="0" y2="0" gradientTransform="rotate(180 0.5 0.5)"><stop offset="0" stop-color="#569bd3" stop-opacity="1"/><stop offset="1" stop-color="#aed0ec" stop-opacity="1"/></linearGradient><linearGradient id="grad0-106" x1="0" x2="1" y1="0" y2="0" gradientTransform="rotate(360 0.5 0.5)"><stop offset="0" stop-color="#569bd3" stop-opacity="1"/><stop offset="1" stop-color="#aed0ec" stop-opacity="1"/></linearGradient><linearGradient id="grad0-107" x1="0" x2="1" y1="0" y2="0" gradientTransform="rotate(270 0.5 0.5)"><stop offset="0" stop-color="#569bd3" stop-opacity="1"/><stop offset="1" stop-color="#aed0ec" stop-opacity="1"/></linearGradient><linearGradient id="grad0-108" x1="0" x2="1" y1="0" y2="0" gradientTransform="rotate(90 0.5 0.5)"><stop offset="0" stop-color="#569bd3" stop-opacity="1"/><stop offset="1" stop-color="#aed0ec" stop-opacity="1"/></linearGradient><radialGradient id="grad7-112" cx="0" cy="0" r="1.4"><stop offset="0" stop-color="#c0dff1" stop-opacity="1"/><stop offset="1" stop-color="#246ba6" stop-opacity="1"/></radialGradient><radialGradient id="grad3-122" cx=".5" cy=".5" r=".73"><stop offset="0" stop-color="#c8e5c8" stop-opacity="1"/><stop offset="1" stop-color="#19bf19" stop-opacity="1"/></radialGradient><radialGradient id="grad1-129" cx="1" cy="1" r="1.4"><stop offset="0" stop-color="#5599d7" stop-opacity="1"/><stop offset="1" stop-color="#b9daf2" stop-opacity="1"/></radialGradient><radialGradient id="grad3-142" cx=".5" cy=".5" r=".73"><stop offset="0" stop-color="#5599d7" stop-opacity="1"/><stop offset="1" stop-color="#214383" stop-opacity="1"/></radialGradient><linearGradient id="grad0-170" x1="0" x2="1" y1="0" y2="0" gradientTransform="rotate(270 0.5 0.5)"><stop offset="0" stop-color="#97c2e6" stop-opacity="1"/><stop offset="1" stop-color="#6ba4dc" stop-opacity="1"/></linearGradient><radialGradient id="grad7-183" cx="0" cy="0" r="1.4"><stop offset="0" stop-color="#89bee9" stop-opacity="1"/><stop offset="1" stop-color="#b9daf2" stop-opacity="1"/></radialGradient><linearGradient id="grad0-200" x1="0" x2="1" y1="0" y2="0" gradientTransform="rotate(270 0.5 0.5)"><stop offset="0" stop-color="#fff" stop-opacity="1"/><stop offset="1" stop-color="#4e8ec2" stop-opacity="1"/></linearGradient><linearGradient id="grad0-204" x1="0" x2="1" y1="0" y2="0" gradientTransform="rotate(180 0.5 0.5)"><stop offset=".01" stop-color="#4e8ec2" stop-opacity="1"/><stop offset=".5" stop-color="#fff" stop-opacity="1"/><stop offset="1" stop-color="#4e8ec2" stop-opacity="1"/></linearGradient><linearGradient id="grad0-220" x1="0" x2="1" y1="0" y2="0" gradientTransform="rotate(270 0.5 0.5)"><stop offset="0" stop-color="#9bcc77" stop-opacity="1"/><stop offset="1" stop-color="#4a6837" stop-opacity="1"/></linearGradient><linearGradient id="grad0-224" x1="0" x2="1" y1="0" y2="0" gradientTransform="rotate(0 0.5 0.5)"><stop offset="0" stop-color="#59943a" stop-opacity="1"/><stop offset="1" stop-color="#416923" stop-opacity="1"/></linearGradient><pattern id="grad10-228" width="1" height="1" x="0" y="0" patternContentUnits="objectBoundingBox"><path fill="url(#grad0-229)" d="M 0.5 0.5 L 0 0 L 0 1 z"/><path fill="url(#grad0-230)" d="M 0.5 0.5 L 1 0 L 1 1 z"/><path fill="url(#grad0-231)" d="M 0.5 0.5 L 0 0 L 1 0 z"/><path fill="url(#grad0-232)" d="M 0.5 0.5 L 0 1 L 1 1 z"/></pattern><linearGradient id="grad0-229" x1="0" x2="1" y1="0" y2="0" gradientTransform="rotate(180 0.5 0.5)"><stop offset="0" stop-color="#61943a" stop-opacity="1"/><stop offset="1" stop-color="#b1d995" stop-opacity="1"/></linearGradient><linearGradient id="grad0-230" x1="0" x2="1" y1="0" y2="0" gradientTransform="rotate(360 0.5 0.5)"><stop offset="0" stop-color="#61943a" stop-opacity="1"/><stop offset="1" stop-color="#b1d995" stop-opacity="1"/></linearGradient><linearGradient id="grad0-231" x1="0" x2="1" y1="0" y2="0" gradientTransform="rotate(270 0.5 0.5)"><stop offset="0" stop-color="#61943a" stop-opacity="1"/><stop offset="1" stop-color="#b1d995" stop-opacity="1"/></linearGradient><linearGradient id="grad0-232" x1="0" x2="1" y1="0" y2="0" gradientTransform="rotate(90 0.5 0.5)"><stop offset="0" stop-color="#61943a" stop-opacity="1"/><stop offset="1" stop-color="#b1d995" stop-opacity="1"/></linearGradient><radialGradient id="grad7-236" cx="0" cy="0" r="1.4"><stop offset="0" stop-color="#c8e3ac" stop-opacity="1"/><stop offset="1" stop-color="#416923" stop-opacity="1"/></radialGradient><radialGradient id="grad1-252" cx="1" cy="1" r="1.4"><stop offset="0" stop-color="#5f9838" stop-opacity="1"/><stop offset="1" stop-color="#c0e6a2" stop-opacity="1"/></radialGradient><radialGradient id="grad3-265" cx=".5" cy=".5" r=".73"><stop offset="0" stop-color="#5f9838" stop-opacity="1"/><stop offset="1" stop-color="#2c5320" stop-opacity="1"/></radialGradient><linearGradient id="grad0-293" x1="0" x2="1" y1="0" y2="0" gradientTransform="rotate(270 0.5 0.5)"><stop offset="0" stop-color="#9bcc77" stop-opacity="1"/><stop offset="1" stop-color="#6db542" stop-opacity="1"/></linearGradient><radialGradient id="grad7-306" cx="0" cy="0" r="1.4"><stop offset="0" stop-color="#92d163" stop-opacity="1"/><stop offset="1" stop-color="#c0e6a2" stop-opacity="1"/></radialGradient></defs><defs id="Markers"><g id="lend4"><path stroke="none" d="M 2 1 L 0 0 L 2 -1 L 2 1"/></g><marker id="mrkr4-534" class="st67" markerUnits="strokeWidth" orient="auto" overflow="visible" refX="6.68"><use transform="scale(3.52)" xlink:href="#lend4"/></marker><marker id="mrkr4-536" class="st67" markerUnits="strokeWidth" orient="auto" overflow="visible" refX="-7.04"><use transform="scale(-3.52,-3.52)" xlink:href="#lend4"/></marker></defs><defs id="Filters"><filter id="filter_2"><feGaussianBlur stdDeviation="2"/></filter></defs><g><title>Page-1</title><g id="group2-1" transform="translate(513,-99)"><title>Belt</title><g id="group3-2"><title>Sheet.3</title><g id="shape4-3" transform="translate(2.88,2.88)"><title>Sheet.4</title></g><g id="shape3-8"><g id="shadow3-9" class="st1"><path d="M0 612 L108 612 L216 612 L216 189 L108 189 L0 189 L0 612 Z" class="st2" transform="matrix(1,0,0,1,0.3456,1.9728)"/></g><path d="M0 612 L108 612 L216 612 L216 189 L108 189 L0 189 L0 612 Z" class="st3"/></g></g><g id="group5-13" transform="translate(-3.375,-397.125)"><title>Sheet.5</title><desc>New York Data Center</desc><g id="shape6-14"><title>Sheet.6</title></g><g id="shape5-21"><g id="shadow5-22" class="st1"><path d="M0 612 L111.37 612 L222.75 612 L222.75 589.5 L111.37 589.5 L0 589.5 L0 612 Z" class="st2" transform="matrix(1,0,0,1,0.345598,1.97279)"/></g><path d="M0 612 L111.37 612 L222.75 612 L222.75 589.5 L111.37 589.5 L0 589.5 L0 612 Z" class="st4"/><text x="51.98" y="604.35" class="st5">New York Data Center</text></g></g></g><g id="group7-27" transform="translate(76.6324,-99)"><title>Belt.7</title><g id="group8-28"><title>Sheet.8</title><g id="shape9-29" transform="translate(2.88,2.88)"><title>Sheet.9</title></g><g id="shape8-34"><g id="shadow8-35" class="st1"><path d="M0 612 L68.41 612 L136.82 612 L136.82 189 L68.41 189 L0 189 L0 612 Z" class="st6" transform="matrix(1,0,0,1,0.3456,1.9728)"/></g><path d="M0 612 L68.41 612 L136.82 612 L136.82 189 L68.41 189 L0 189 L0 612 Z" class="st7"/></g></g><g id="group10-39" transform="translate(-3.375,-397.125)"><title>Sheet.10</title><desc>Oregon Data Center</desc><g id="shape11-40"><title>Sheet.11</title></g><g id="shape10-47"><g id="shadow10-48" class="st1"><path d="M0 612 L71.79 612 L143.57 612 L143.57 589.5 L71.79 589.5 L0 589.5 L0 612 Z" class="st6" transform="matrix(1,0,0,1,0.345598,1.97279)"/></g><path d="M0 612 L71.79 612 L143.57 612 L143.57 589.5 L71.79 589.5 L0 589.5 L0 612 Z" class="st8"/><text x="18.13" y="604.35" class="st5">Oregon Data Center</text></g></g></g><g id="group289-53" transform="translate(238.5,-491.063)"><title>Belt.289</title><g id="group290-54"><title>Sheet.290</title><g id="shape291-55" transform="translate(2.88,2.88)"><title>Sheet.291</title></g><g id="shape290-60"><g id="shadow290-61" class="st1"><path d="M0 612 L121.5 612 L243 612 L243 532.95 L121.5 532.95 L0 532.95 L0 612 Z" class="st9" transform="matrix(1,0,0,1,0.3456,1.9728)"/></g><path d="M0 612 L121.5 612 L243 612 L243 532.95 L121.5 532.95 L0 532.95 L0 612 Z" class="st10"/></g></g><g id="group292-65" transform="translate(-3.375,-53.1728)"><title>Sheet.292</title><desc>Common</desc><g id="shape293-66"><title>Sheet.293</title></g><g id="shape292-73"><g id="shadow292-74" class="st1"><path d="M0 612 L124.87 612 L249.75 612 L249.75 589.5 L124.87 589.5 L0 589.5 L0 612 Z" class="st9" transform="matrix(1,0,0,1,0.345598,1.97279)"/></g><path d="M0 612 L124.87 612 L249.75 612 L249.75 589.5 L124.87 589.5 L0 589.5 L0 612 Z" class="st11"/><text x="100.38" y="604.35" class="st5">Common</text></g></g></g><g id="shape36-81" transform="translate(96.8837,-461.25)"><title>Sheet.36</title><desc>Corvallis, OR</desc><rect width="95.625" height="25.875" x="0" y="586.125" class="st12"/><text x="17.21" y="602.66" class="st13">Corvallis, OR</text></g><g id="shape38-84" transform="translate(573.188,-461.25)"><title>Sheet.38</title><desc>Jersey City, NJ</desc><rect width="95.625" height="25.875" x="0" y="586.125" class="st12"/><text x="13.48" y="602.66" class="st13">Jersey City, NJ</text></g><g id="group39-87" transform="translate(108,-292.5)"><title>Database server.11</title><desc>OR-SQL01</desc><g id="shape40-88" transform="translate(5.59552E-014,-0.864861)"><title>Sheet.40</title><g id="shadow40-89" class="st1"><path d="M6.31 569.99 L0 566.37 L0 586.13 L0.93 586.68 L0.93 590.84 L2.91 592.09 L6.64 590 L30.79 604.07 L30.79 608.14 L32.77 609.4 L36.41 607.35 L44.39 612 L44.39 605.47 L72 589.52 L72 569.54 L39.2 550.73 L6.31 569.25 L6.31 569.99 Z" class="st14" transform="matrix(1,0,0,1,0.3456,1.9728)"/></g><path d="M6.31 569.99 L0 566.37 L0 586.13 L0.93 586.68 L0.93 590.84 L2.91 592.09 L6.64 590 L30.79 604.07 L30.79 608.14 L32.77 609.4 L36.41 607.35 L44.39 612 L44.39 605.47 L72 589.52 L72 569.54 L39.2 550.73 L6.31 569.25 L6.31 569.99 Z" class="st15"/></g><g id="shape41-93" transform="translate(6.31408,-23.5989)"><title>Sheet.41</title><path d="M32.89 573.46 L65.69 592.28 L32.55 612 L0 593.46 L0 591.98 L32.89 573.46 Z" class="st16"/></g><g id="shape42-97" transform="translate(38.041,-7.39908)"><title>Sheet.42</title><path d="M33.96 576.08 L0 595.33 L6.35 612 L33.96 596.06 L33.96 576.08 Z" class="st17"/></g><g id="shape43-101" transform="translate(0,-0.864861)"><title>Sheet.43</title><path d="M44.39 612 L0 586.13 L0 566.37 L44.39 591.81 L44.39 612 Z" class="st18"/></g><g id="shape44-109" transform="translate(1.64544,-39.6199)"><title>Sheet.44</title><path d="M2.25 610.07 A1.30526 1.30526 -180 0 0 0.77 609.09 A1.30943 1.30943 -180 0 0 0.27 610.82 A1.30342 1.30342 -180 0 0 1.75 611.8 A1.3082 1.3082 -180 0 0 2.25 610.07 Z" class="st19"/></g><g id="shape45-113" transform="translate(7.23065,-30.3)"><title>Sheet.45</title><path d="M6.43 606.49 A3.72217 3.72217 -180 0 0 2.21 603.68 A3.73404 3.73404 -180 0 0 0.77 608.62 A3.72292 3.72292 -180 0 0 4.99 611.42 A3.73751 3.73751 -180 0 0 6.43 606.49 Z" class="st19"/></g><g id="shape46-116" transform="translate(7.23065,-20.9653)"><title>Sheet.46</title><path d="M6.43 606.49 A3.72217 3.72217 -180 0 0 2.21 603.68 A3.73404 3.73404 -180 0 0 0.77 608.62 A3.72292 3.72292 -180 0 0 4.99 611.42 A3.73751 3.73751 -180 0 0 6.43 606.49 Z" class="st19"/></g><g id="shape47-119" transform="translate(9.02933,-32.7011)"><title>Sheet.47</title><path d="M3.21 609.24 A1.86004 1.86004 -180 0 0 1.1 607.84 A1.86694 1.86694 -180 0 0 0.38 610.31 A1.86041 1.86041 -180 0 0 2.5 611.71 A1.86777 1.86777 -180 0 0 3.21 609.24 Z" class="st20"/></g><g id="shape48-123" transform="translate(9.02933,-23.3663)"><title>Sheet.48</title><path d="M3.21 609.24 A1.86004 1.86004 -180 0 0 1.1 607.84 A1.86787 1.86787 -180 0 0 0.38 610.31 A1.86041 1.86041 -180 0 0 2.5 611.71 A1.86777 1.86777 -180 0 0 3.21 609.24 Z" class="st20"/></g><g id="shape49-126" transform="translate(15.5435,-17.668)"><title>Sheet.49</title><path d="M0 610.05 L0.1 594.14 L3.65 596.09 L3.55 612 L0 610.05 Z" class="st21"/></g><g id="shape50-130" transform="translate(20.3657,-14.8062)"><title>Sheet.50</title><path d="M0 610.05 L0.1 594.14 L3.65 596.09 L3.55 612 L0 610.05 Z" class="st21"/></g><g id="shape51-133" transform="translate(25.1868,-11.9433)"><title>Sheet.51</title><path d="M0 610.05 L0.1 594.14 L3.65 596.09 L3.55 612 L0 610.05 Z" class="st21"/></g><g id="shape52-136" transform="translate(30.009,-9.08151)"><title>Sheet.52</title><path d="M0 610.05 L0.1 594.14 L3.65 596.09 L3.55 612 L0 610.05 Z" class="st21"/></g><g id="shape53-139" transform="translate(16.446,-20.1198)"><title>Sheet.53</title><path d="M1.7 611.38 a0.774788 0.774788 0 0 1 -0.848613 0.616116 A1.27344 1.27344 0 0 1 0 610.86 L0 599.93 a0.773543 0.773543 0 0 1 0.847556 -0.616116 A1.27281 1.27281 0 0 1 1.7 600.46 L1.7 611.38 Z" class="st22"/></g><g id="shape54-143" transform="translate(21.2671,-17.258)"><title>Sheet.54</title><path d="M1.7 611.38 a0.774788 0.774788 0 0 1 -0.848613 0.616116 A1.27344 1.27344 0 0 1 0 610.86 L0 599.93 a0.773543 0.773543 0 0 1 0.847556 -0.616116 A1.27281 1.27281 0 0 1 1.7 600.46 L1.7 611.38 Z" class="st22"/></g><g id="shape55-146" transform="translate(26.0893,-14.3951)"><title>Sheet.55</title><path d="M1.7 611.38 a0.774788 0.774788 0 0 1 -0.848613 0.616116 A1.27344 1.27344 0 0 1 0 610.86 L0 599.93 a0.773543 0.773543 0 0 1 0.847556 -0.616116 A1.27281 1.27281 0 0 1 1.7 600.46 L1.7 611.38 Z" class="st22"/></g><g id="shape56-149" transform="translate(30.9104,-11.5333)"><title>Sheet.56</title><path d="M1.7 611.38 a0.775394 0.775394 0 0 1 -0.84967 0.616116 A1.27409 1.27409 0 0 1 0 610.86 L0 599.93 a0.772939 0.772939 0 0 1 0.846499 -0.616116 A1.27382 1.27382 0 0 1 1.7 600.46 L1.7 611.38 Z" class="st22"/></g><g id="shape57-152" transform="translate(15.5435,-19.6189)"><title>Sheet.57</title><path d="M0 612 L0.1 596.09 L3.65 598.04 L0 612 Z" class="st23"/><path d="M0 612 L0.1 596.09 L3.65 598.04" class="st24"/></g><g id="shape58-155" transform="translate(20.3657,-16.7571)"><title>Sheet.58</title><path d="M0 612 L0.1 596.09 L3.65 598.04 L0 612 Z" class="st23"/><path d="M0 612 L0.1 596.09 L3.65 598.04" class="st24"/></g><g id="shape59-158" transform="translate(25.1868,-13.8942)"><title>Sheet.59</title><path d="M0 612 L0.1 596.09 L3.65 598.04 L0 612 Z" class="st23"/><path d="M0 612 L0.1 596.09 L3.65 598.04" class="st24"/></g><g id="shape60-161" transform="translate(30.009,-11.0324)"><title>Sheet.60</title><path d="M0 612 L0.1 596.09 L3.65 598.04 L0 612 Z" class="st23"/><path d="M0 612 L0.1 596.09 L3.65 598.04" class="st24"/></g><g id="shape61-164" transform="translate(15.5435,-9.08151)"><title>Sheet.61</title><path d="M18.12 596.09 L18.02 612 L14.47 610.05 L18.12 596.09 ZM13.3 593.23 L13.2 609.14 L9.64 607.19 L13.3 593.23 ZM8.48 590.36 L8.38 606.28 L4.82 604.32 L8.48 590.36 ZM3.65 587.5 L3.55 603.41 L0 601.46 L3.65 587.5 Z" class="st23"/><path d="M18.12 596.09 L18.02 612 L14.47 610.05M13.3 593.23 L13.2 609.14 L9.64 607.19M8.48 590.36 L8.38 606.28 L4.82 604.32M3.65 587.5 L3.55 603.41 L0 601.46" class="st25"/></g><g id="shape62-167" transform="translate(4.43329,-23.677)"><title>Sheet.62</title><path d="M0 610.61 L1.26 609.75 L2.84 610.48 L0.07 612 L0 610.61 Z" class="st26"/></g><g id="shape63-171" transform="translate(34.288,-6.37186)"><title>Sheet.63</title><path d="M0 610.61 L1.26 609.75 L2.84 610.48 L0.07 612 L0 610.61 Z" class="st26"/></g><g id="shape64-174" transform="translate(2.91466,-20.7708)"><title>Sheet.64</title><path d="M4.23 609.62 L0 612 L0 594.03 L4.23 591.52 L4.23 593.77 L1.59 595.24 L1.59 609.09 L4.36 607.57 L4.23 609.62 Z" class="st17"/></g><g id="shape65-177" transform="translate(32.7694,-3.46565)"><title>Sheet.65</title><path d="M4.23 609.62 L0 612 L0 594.03 L4.23 591.52 L4.23 593.77 L1.59 595.24 L1.59 609.09 L4.36 607.57 L4.23 609.62 Z" class="st17"/></g><g id="shape66-180" transform="translate(0.933157,-20.7708)"><title>Sheet.66</title><path d="M1.98 594.03 L6.21 591.52 L4.23 590.27 L0 592.78 L0 610.74 L1.98 612 L1.98 594.03 Z" class="st27"/></g><g id="shape67-184" transform="translate(30.7878,-3.46565)"><title>Sheet.67</title><path d="M1.98 594.03 L6.21 591.52 L4.23 590.27 L0 592.78 L0 610.74 L1.98 612 L1.98 594.03 Z" class="st27"/></g><g id="shape68-187" transform="translate(0.933157,-3.46671)"><title>Sheet.68</title><path d="M34.61 606.85 L33.42 607.66 L33.42 595.24 L36.06 593.77 L36.06 591.52 L34.08 590.27 L29.85 592.78 L29.85 610.74 L31.84 612 L36.06 609.62 L36.2 607.57 L34.61 606.85 ZM4.76 589.54 L3.57 590.36 L3.57 577.93 L6.21 576.46 L6.21 574.22 L4.23 572.96 L0 575.47 L0 593.44 L1.98 594.69 L6.21 592.32 L6.34 590.27 L4.76 589.54 Z" class="st28"/></g><g id="shape69-189" transform="translate(39.8225,-17.4271)"><title>Sheet.69</title><path d="M2.25 610.07 A1.30526 1.30526 -180 0 0 0.77 609.09 A1.30943 1.30943 -180 0 0 0.27 610.82 A1.30342 1.30342 -180 0 0 1.75 611.8 A1.3082 1.3082 -180 0 0 2.25 610.07 Z" class="st19"/></g><g id="shape70-192" transform="translate(39.8225,-4.74544)"><title>Sheet.70</title><path d="M2.25 610.07 A1.30526 1.30526 -180 0 0 0.77 609.09 A1.30943 1.30943 -180 0 0 0.27 610.82 A1.30342 1.30342 -180 0 0 1.75 611.8 A1.3082 1.3082 -180 0 0 2.25 610.07 Z" class="st19"/></g><g id="shape71-195" transform="translate(0,-0.864861)"><title>Sheet.71</title><path d="M72 589.52 L72 569.54 L39.2 550.73 L6.31 569.25 L6.31 570.04 L0 566.37 L0 586.13 L0.93 586.68 L0.93 590.84 L2.91 592.09 L6.64 590 L30.79 604.07 L30.79 608.14 L32.77 609.4 L36.41 607.35 L44.39 612 L44.39 605.47 L72 589.52 Z" class="st28"/></g><g id="shape72-197" transform="translate(51.6383,-18.2376)"><title>Sheet.72</title><ellipse cx="6.557" cy="608.921" class="st29" rx="6.557" ry="3.079"/></g><g id="shape73-201" transform="translate(51.6377,-6.3052)"><title>Sheet.73</title><path d="M0 596.99 L0 609 A6.56035 3.10726 -180 0 0 13.11 609.05 L13.11 596.99 A6.55723 3.10579 0 1 1 0 596.99 Z" class="st30"/></g><g id="shape74-205" transform="translate(51.67,-6.34364)"><title>Sheet.74</title><path d="M13 596.99 A6.50146 3.07937 -180 1 0 0 597.02 L0 609 A6.50455 3.10726 -180 0 0 13 609.05 L13 596.99" class="st31"/></g><g id="shape39-208"><text x="11.53" y="626.8" class="st32">OR-SQL01</text></g></g><g id="group75-211" transform="translate(531,-292.5)"><title>Database server.75</title><desc>NY-SQL01</desc><g id="shape76-212" transform="translate(5.59552E-014,-0.864861)"><title>Sheet.76</title><g id="shadow76-213" class="st1"><path d="M6.31 569.99 L0 566.37 L0 586.13 L0.93 586.68 L0.93 590.84 L2.91 592.09 L6.64 590 L30.79 604.07 L30.79 608.14 L32.77 609.4 L36.41 607.35 L44.39 612 L44.39 605.47 L72 589.52 L72 569.54 L39.2 550.73 L6.31 569.25 L6.31 569.99 Z" class="st33" transform="matrix(1,0,0,1,0.3456,1.9728)"/></g><path d="M6.31 569.99 L0 566.37 L0 586.13 L0.93 586.68 L0.93 590.84 L2.91 592.09 L6.64 590 L30.79 604.07 L30.79 608.14 L32.77 609.4 L36.41 607.35 L44.39 612 L44.39 605.47 L72 589.52 L72 569.54 L39.2 550.73 L6.31 569.25 L6.31 569.99 Z" class="st15"/></g><g id="shape77-217" transform="translate(6.31408,-23.5989)"><title>Sheet.77</title><path d="M32.89 573.46 L65.69 592.28 L32.55 612 L0 593.46 L0 591.98 L32.89 573.46 Z" class="st34"/></g><g id="shape78-221" transform="translate(38.041,-7.39908)"><title>Sheet.78</title><path d="M33.96 576.08 L0 595.33 L6.35 612 L33.96 596.06 L33.96 576.08 Z" class="st35"/></g><g id="shape79-225" transform="translate(0,-0.864861)"><title>Sheet.79</title><path d="M44.39 612 L0 586.13 L0 566.37 L44.39 591.81 L44.39 612 Z" class="st36"/></g><g id="shape80-233" transform="translate(1.64544,-39.6199)"><title>Sheet.80</title><path d="M2.25 610.07 A1.30526 1.30526 -180 0 0 0.77 609.09 A1.30943 1.30943 -180 0 0 0.27 610.82 A1.30342 1.30342 -180 0 0 1.75 611.8 A1.3082 1.3082 -180 0 0 2.25 610.07 Z" class="st37"/></g><g id="shape81-237" transform="translate(7.23065,-30.3)"><title>Sheet.81</title><path d="M6.43 606.49 A3.72217 3.72217 -180 0 0 2.21 603.68 A3.73404 3.73404 -180 0 0 0.77 608.62 A3.72292 3.72292 -180 0 0 4.99 611.42 A3.73751 3.73751 -180 0 0 6.43 606.49 Z" class="st37"/></g><g id="shape82-240" transform="translate(7.23065,-20.9653)"><title>Sheet.82</title><path d="M6.43 606.49 A3.72217 3.72217 -180 0 0 2.21 603.68 A3.73404 3.73404 -180 0 0 0.77 608.62 A3.72292 3.72292 -180 0 0 4.99 611.42 A3.73751 3.73751 -180 0 0 6.43 606.49 Z" class="st37"/></g><g id="shape83-243" transform="translate(9.02933,-32.7011)"><title>Sheet.83</title><path d="M3.21 609.24 A1.86004 1.86004 -180 0 0 1.1 607.84 A1.86694 1.86694 -180 0 0 0.38 610.31 A1.86041 1.86041 -180 0 0 2.5 611.71 A1.86777 1.86777 -180 0 0 3.21 609.24 Z" class="st38"/></g><g id="shape84-246" transform="translate(9.02933,-23.3663)"><title>Sheet.84</title><path d="M3.21 609.24 A1.86004 1.86004 -180 0 0 1.1 607.84 A1.86787 1.86787 -180 0 0 0.38 610.31 A1.86041 1.86041 -180 0 0 2.5 611.71 A1.86777 1.86777 -180 0 0 3.21 609.24 Z" class="st38"/></g><g id="shape85-249" transform="translate(15.5435,-17.668)"><title>Sheet.85</title><path d="M0 610.05 L0.1 594.14 L3.65 596.09 L3.55 612 L0 610.05 Z" class="st39"/></g><g id="shape86-253" transform="translate(20.3657,-14.8062)"><title>Sheet.86</title><path d="M0 610.05 L0.1 594.14 L3.65 596.09 L3.55 612 L0 610.05 Z" class="st39"/></g><g id="shape87-256" transform="translate(25.1868,-11.9433)"><title>Sheet.87</title><path d="M0 610.05 L0.1 594.14 L3.65 596.09 L3.55 612 L0 610.05 Z" class="st39"/></g><g id="shape88-259" transform="translate(30.009,-9.08151)"><title>Sheet.88</title><path d="M0 610.05 L0.1 594.14 L3.65 596.09 L3.55 612 L0 610.05 Z" class="st39"/></g><g id="shape89-262" transform="translate(16.446,-20.1198)"><title>Sheet.89</title><path d="M1.7 611.38 a0.774788 0.774788 0 0 1 -0.848613 0.616116 A1.27344 1.27344 0 0 1 0 610.86 L0 599.93 a0.773543 0.773543 0 0 1 0.847556 -0.616116 A1.27281 1.27281 0 0 1 1.7 600.46 L1.7 611.38 Z" class="st40"/></g><g id="shape90-266" transform="translate(21.2671,-17.258)"><title>Sheet.90</title><path d="M1.7 611.38 a0.774788 0.774788 0 0 1 -0.848613 0.616116 A1.27344 1.27344 0 0 1 0 610.86 L0 599.93 a0.773543 0.773543 0 0 1 0.847556 -0.616116 A1.27281 1.27281 0 0 1 1.7 600.46 L1.7 611.38 Z" class="st40"/></g><g id="shape91-269" transform="translate(26.0893,-14.3951)"><title>Sheet.91</title><path d="M1.7 611.38 a0.774788 0.774788 0 0 1 -0.848613 0.616116 A1.27344 1.27344 0 0 1 0 610.86 L0 599.93 a0.773543 0.773543 0 0 1 0.847556 -0.616116 A1.27281 1.27281 0 0 1 1.7 600.46 L1.7 611.38 Z" class="st40"/></g><g id="shape92-272" transform="translate(30.9104,-11.5333)"><title>Sheet.92</title><path d="M1.7 611.38 a0.775394 0.775394 0 0 1 -0.84967 0.616116 A1.27409 1.27409 0 0 1 0 610.86 L0 599.93 a0.772939 0.772939 0 0 1 0.846499 -0.616116 A1.27382 1.27382 0 0 1 1.7 600.46 L1.7 611.38 Z" class="st40"/></g><g id="shape93-275" transform="translate(15.5435,-19.6189)"><title>Sheet.93</title><path d="M0 612 L0.1 596.09 L3.65 598.04 L0 612 Z" class="st23"/><path d="M0 612 L0.1 596.09 L3.65 598.04" class="st41"/></g><g id="shape94-278" transform="translate(20.3657,-16.7571)"><title>Sheet.94</title><path d="M0 612 L0.1 596.09 L3.65 598.04 L0 612 Z" class="st23"/><path d="M0 612 L0.1 596.09 L3.65 598.04" class="st41"/></g><g id="shape95-281" transform="translate(25.1868,-13.8942)"><title>Sheet.95</title><path d="M0 612 L0.1 596.09 L3.65 598.04 L0 612 Z" class="st23"/><path d="M0 612 L0.1 596.09 L3.65 598.04" class="st41"/></g><g id="shape96-284" transform="translate(30.009,-11.0324)"><title>Sheet.96</title><path d="M0 612 L0.1 596.09 L3.65 598.04 L0 612 Z" class="st23"/><path d="M0 612 L0.1 596.09 L3.65 598.04" class="st41"/></g><g id="shape97-287" transform="translate(15.5435,-9.08151)"><title>Sheet.97</title><path d="M18.12 596.09 L18.02 612 L14.47 610.05 L18.12 596.09 ZM13.3 593.23 L13.2 609.14 L9.64 607.19 L13.3 593.23 ZM8.48 590.36 L8.38 606.28 L4.82 604.32 L8.48 590.36 ZM3.65 587.5 L3.55 603.41 L0 601.46 L3.65 587.5 Z" class="st23"/><path d="M18.12 596.09 L18.02 612 L14.47 610.05M13.3 593.23 L13.2 609.14 L9.64 607.19M8.48 590.36 L8.38 606.28 L4.82 604.32M3.65 587.5 L3.55 603.41 L0 601.46" class="st42"/></g><g id="shape98-290" transform="translate(4.43329,-23.677)"><title>Sheet.98</title><path d="M0 610.61 L1.26 609.75 L2.84 610.48 L0.07 612 L0 610.61 Z" class="st43"/></g><g id="shape99-294" transform="translate(34.288,-6.37186)"><title>Sheet.99</title><path d="M0 610.61 L1.26 609.75 L2.84 610.48 L0.07 612 L0 610.61 Z" class="st43"/></g><g id="shape100-297" transform="translate(2.91466,-20.7708)"><title>Sheet.100</title><path d="M4.23 609.62 L0 612 L0 594.03 L4.23 591.52 L4.23 593.77 L1.59 595.24 L1.59 609.09 L4.36 607.57 L4.23 609.62 Z" class="st35"/></g><g id="shape101-300" transform="translate(32.7694,-3.46565)"><title>Sheet.101</title><path d="M4.23 609.62 L0 612 L0 594.03 L4.23 591.52 L4.23 593.77 L1.59 595.24 L1.59 609.09 L4.36 607.57 L4.23 609.62 Z" class="st35"/></g><g id="shape102-303" transform="translate(0.933157,-20.7708)"><title>Sheet.102</title><path d="M1.98 594.03 L6.21 591.52 L4.23 590.27 L0 592.78 L0 610.74 L1.98 612 L1.98 594.03 Z" class="st44"/></g><g id="shape103-307" transform="translate(30.7878,-3.46565)"><title>Sheet.103</title><path d="M1.98 594.03 L6.21 591.52 L4.23 590.27 L0 592.78 L0 610.74 L1.98 612 L1.98 594.03 Z" class="st44"/></g><g id="shape104-310" transform="translate(0.933157,-3.46671)"><title>Sheet.104</title><path d="M34.61 606.85 L33.42 607.66 L33.42 595.24 L36.06 593.77 L36.06 591.52 L34.08 590.27 L29.85 592.78 L29.85 610.74 L31.84 612 L36.06 609.62 L36.2 607.57 L34.61 606.85 ZM4.76 589.54 L3.57 590.36 L3.57 577.93 L6.21 576.46 L6.21 574.22 L4.23 572.96 L0 575.47 L0 593.44 L1.98 594.69 L6.21 592.32 L6.34 590.27 L4.76 589.54 Z" class="st45"/></g><g id="shape105-312" transform="translate(39.8225,-17.4271)"><title>Sheet.105</title><path d="M2.25 610.07 A1.30526 1.30526 -180 0 0 0.77 609.09 A1.30943 1.30943 -180 0 0 0.27 610.82 A1.30342 1.30342 -180 0 0 1.75 611.8 A1.3082 1.3082 -180 0 0 2.25 610.07 Z" class="st37"/></g><g id="shape106-315" transform="translate(39.8225,-4.74544)"><title>Sheet.106</title><path d="M2.25 610.07 A1.30526 1.30526 -180 0 0 0.77 609.09 A1.30943 1.30943 -180 0 0 0.27 610.82 A1.30342 1.30342 -180 0 0 1.75 611.8 A1.3082 1.3082 -180 0 0 2.25 610.07 Z" class="st37"/></g><g id="shape107-318" transform="translate(0,-0.864861)"><title>Sheet.107</title><path d="M72 589.52 L72 569.54 L39.2 550.73 L6.31 569.25 L6.31 570.04 L0 566.37 L0 586.13 L0.93 586.68 L0.93 590.84 L2.91 592.09 L6.64 590 L30.79 604.07 L30.79 608.14 L32.77 609.4 L36.41 607.35 L44.39 612 L44.39 605.47 L72 589.52 Z" class="st45"/></g><g id="shape108-320" transform="translate(51.6383,-18.2376)"><title>Sheet.108</title><ellipse cx="6.557" cy="608.921" class="st46" rx="6.557" ry="3.079"/></g><g id="shape109-323" transform="translate(51.6377,-6.3052)"><title>Sheet.109</title><path d="M0 596.99 L0 609 A6.56035 3.10726 -180 0 0 13.11 609.05 L13.11 596.99 A6.55723 3.10579 0 1 1 0 596.99 Z" class="st47"/></g><g id="shape110-326" transform="translate(51.67,-6.34364)"><title>Sheet.110</title><path d="M13 596.99 A6.50146 3.07937 -180 1 0 0 597.02 L0 609 A6.50455 3.10726 -180 0 0 13 609.05 L13 596.99" class="st48"/></g><g id="shape75-329"><text x="11.97" y="626.8" class="st49">NY-SQL01</text></g></g><g id="group111-332" transform="translate(639,-292.5)"><title>Database server.111</title><desc>NY-SQL02</desc><g id="shape112-333" transform="translate(5.59552E-014,-0.864861)"><title>Sheet.112</title><g id="shadow112-334" class="st1"><path d="M6.31 569.99 L0 566.37 L0 586.13 L0.93 586.68 L0.93 590.84 L2.91 592.09 L6.64 590 L30.79 604.07 L30.79 608.14 L32.77 609.4 L36.41 607.35 L44.39 612 L44.39 605.47 L72 589.52 L72 569.54 L39.2 550.73 L6.31 569.25 L6.31 569.99 Z" class="st14" transform="matrix(1,0,0,1,0.3456,1.9728)"/></g><path d="M6.31 569.99 L0 566.37 L0 586.13 L0.93 586.68 L0.93 590.84 L2.91 592.09 L6.64 590 L30.79 604.07 L30.79 608.14 L32.77 609.4 L36.41 607.35 L44.39 612 L44.39 605.47 L72 589.52 L72 569.54 L39.2 550.73 L6.31 569.25 L6.31 569.99 Z" class="st15"/></g><g id="shape113-338" transform="translate(6.31408,-23.5989)"><title>Sheet.113</title><path d="M32.89 573.46 L65.69 592.28 L32.55 612 L0 593.46 L0 591.98 L32.89 573.46 Z" class="st16"/></g><g id="shape114-341" transform="translate(38.041,-7.39908)"><title>Sheet.114</title><path d="M33.96 576.08 L0 595.33 L6.35 612 L33.96 596.06 L33.96 576.08 Z" class="st17"/></g><g id="shape115-344" transform="translate(0,-0.864861)"><title>Sheet.115</title><path d="M44.39 612 L0 586.13 L0 566.37 L44.39 591.81 L44.39 612 Z" class="st18"/></g><g id="shape116-347" transform="translate(1.64544,-39.6199)"><title>Sheet.116</title><path d="M2.25 610.07 A1.30526 1.30526 -180 0 0 0.77 609.09 A1.30943 1.30943 -180 0 0 0.27 610.82 A1.30342 1.30342 -180 0 0 1.75 611.8 A1.3082 1.3082 -180 0 0 2.25 610.07 Z" class="st19"/></g><g id="shape117-350" transform="translate(7.23065,-30.3)"><title>Sheet.117</title><path d="M6.43 606.49 A3.72217 3.72217 -180 0 0 2.21 603.68 A3.73404 3.73404 -180 0 0 0.77 608.62 A3.72292 3.72292 -180 0 0 4.99 611.42 A3.73751 3.73751 -180 0 0 6.43 606.49 Z" class="st19"/></g><g id="shape118-353" transform="translate(7.23065,-20.9653)"><title>Sheet.118</title><path d="M6.43 606.49 A3.72217 3.72217 -180 0 0 2.21 603.68 A3.73404 3.73404 -180 0 0 0.77 608.62 A3.72292 3.72292 -180 0 0 4.99 611.42 A3.73751 3.73751 -180 0 0 6.43 606.49 Z" class="st19"/></g><g id="shape119-356" transform="translate(9.02933,-32.7011)"><title>Sheet.119</title><path d="M3.21 609.24 A1.86004 1.86004 -180 0 0 1.1 607.84 A1.86694 1.86694 -180 0 0 0.38 610.31 A1.86041 1.86041 -180 0 0 2.5 611.71 A1.86777 1.86777 -180 0 0 3.21 609.24 Z" class="st20"/></g><g id="shape120-359" transform="translate(9.02933,-23.3663)"><title>Sheet.120</title><path d="M3.21 609.24 A1.86004 1.86004 -180 0 0 1.1 607.84 A1.86787 1.86787 -180 0 0 0.38 610.31 A1.86041 1.86041 -180 0 0 2.5 611.71 A1.86777 1.86777 -180 0 0 3.21 609.24 Z" class="st20"/></g><g id="shape121-362" transform="translate(15.5435,-17.668)"><title>Sheet.121</title><path d="M0 610.05 L0.1 594.14 L3.65 596.09 L3.55 612 L0 610.05 Z" class="st21"/></g><g id="shape122-365" transform="translate(20.3657,-14.8062)"><title>Sheet.122</title><path d="M0 610.05 L0.1 594.14 L3.65 596.09 L3.55 612 L0 610.05 Z" class="st21"/></g><g id="shape123-368" transform="translate(25.1868,-11.9433)"><title>Sheet.123</title><path d="M0 610.05 L0.1 594.14 L3.65 596.09 L3.55 612 L0 610.05 Z" class="st21"/></g><g id="shape124-371" transform="translate(30.009,-9.08151)"><title>Sheet.124</title><path d="M0 610.05 L0.1 594.14 L3.65 596.09 L3.55 612 L0 610.05 Z" class="st21"/></g><g id="shape125-374" transform="translate(16.446,-20.1198)"><title>Sheet.125</title><path d="M1.7 611.38 a0.774788 0.774788 0 0 1 -0.848613 0.616116 A1.27344 1.27344 0 0 1 0 610.86 L0 599.93 a0.773543 0.773543 0 0 1 0.847556 -0.616116 A1.27281 1.27281 0 0 1 1.7 600.46 L1.7 611.38 Z" class="st22"/></g><g id="shape126-377" transform="translate(21.2671,-17.258)"><title>Sheet.126</title><path d="M1.7 611.38 a0.774788 0.774788 0 0 1 -0.848613 0.616116 A1.27344 1.27344 0 0 1 0 610.86 L0 599.93 a0.773543 0.773543 0 0 1 0.847556 -0.616116 A1.27281 1.27281 0 0 1 1.7 600.46 L1.7 611.38 Z" class="st22"/></g><g id="shape127-380" transform="translate(26.0893,-14.3951)"><title>Sheet.127</title><path d="M1.7 611.38 a0.774788 0.774788 0 0 1 -0.848613 0.616116 A1.27344 1.27344 0 0 1 0 610.86 L0 599.93 a0.773543 0.773543 0 0 1 0.847556 -0.616116 A1.27281 1.27281 0 0 1 1.7 600.46 L1.7 611.38 Z" class="st22"/></g><g id="shape128-383" transform="translate(30.9104,-11.5333)"><title>Sheet.128</title><path d="M1.7 611.38 a0.775394 0.775394 0 0 1 -0.84967 0.616116 A1.27409 1.27409 0 0 1 0 610.86 L0 599.93 a0.772939 0.772939 0 0 1 0.846499 -0.616116 A1.27382 1.27382 0 0 1 1.7 600.46 L1.7 611.38 Z" class="st22"/></g><g id="shape129-386" transform="translate(15.5435,-19.6189)"><title>Sheet.129</title><path d="M0 612 L0.1 596.09 L3.65 598.04 L0 612 Z" class="st23"/><path d="M0 612 L0.1 596.09 L3.65 598.04" class="st24"/></g><g id="shape130-389" transform="translate(20.3657,-16.7571)"><title>Sheet.130</title><path d="M0 612 L0.1 596.09 L3.65 598.04 L0 612 Z" class="st23"/><path d="M0 612 L0.1 596.09 L3.65 598.04" class="st24"/></g><g id="shape131-392" transform="translate(25.1868,-13.8942)"><title>Sheet.131</title><path d="M0 612 L0.1 596.09 L3.65 598.04 L0 612 Z" class="st23"/><path d="M0 612 L0.1 596.09 L3.65 598.04" class="st24"/></g><g id="shape132-395" transform="translate(30.009,-11.0324)"><title>Sheet.132</title><path d="M0 612 L0.1 596.09 L3.65 598.04 L0 612 Z" class="st23"/><path d="M0 612 L0.1 596.09 L3.65 598.04" class="st24"/></g><g id="shape133-398" transform="translate(15.5435,-9.08151)"><title>Sheet.133</title><path d="M18.12 596.09 L18.02 612 L14.47 610.05 L18.12 596.09 ZM13.3 593.23 L13.2 609.14 L9.64 607.19 L13.3 593.23 ZM8.48 590.36 L8.38 606.28 L4.82 604.32 L8.48 590.36 ZM3.65 587.5 L3.55 603.41 L0 601.46 L3.65 587.5 Z" class="st23"/><path d="M18.12 596.09 L18.02 612 L14.47 610.05M13.3 593.23 L13.2 609.14 L9.64 607.19M8.48 590.36 L8.38 606.28 L4.82 604.32M3.65 587.5 L3.55 603.41 L0 601.46" class="st25"/></g><g id="shape134-401" transform="translate(4.43329,-23.677)"><title>Sheet.134</title><path d="M0 610.61 L1.26 609.75 L2.84 610.48 L0.07 612 L0 610.61 Z" class="st26"/></g><g id="shape135-404" transform="translate(34.288,-6.37186)"><title>Sheet.135</title><path d="M0 610.61 L1.26 609.75 L2.84 610.48 L0.07 612 L0 610.61 Z" class="st26"/></g><g id="shape136-407" transform="translate(2.91466,-20.7708)"><title>Sheet.136</title><path d="M4.23 609.62 L0 612 L0 594.03 L4.23 591.52 L4.23 593.77 L1.59 595.24 L1.59 609.09 L4.36 607.57 L4.23 609.62 Z" class="st17"/></g><g id="shape137-410" transform="translate(32.7694,-3.46565)"><title>Sheet.137</title><path d="M4.23 609.62 L0 612 L0 594.03 L4.23 591.52 L4.23 593.77 L1.59 595.24 L1.59 609.09 L4.36 607.57 L4.23 609.62 Z" class="st17"/></g><g id="shape138-413" transform="translate(0.933157,-20.7708)"><title>Sheet.138</title><path d="M1.98 594.03 L6.21 591.52 L4.23 590.27 L0 592.78 L0 610.74 L1.98 612 L1.98 594.03 Z" class="st27"/></g><g id="shape139-416" transform="translate(30.7878,-3.46565)"><title>Sheet.139</title><path d="M1.98 594.03 L6.21 591.52 L4.23 590.27 L0 592.78 L0 610.74 L1.98 612 L1.98 594.03 Z" class="st27"/></g><g id="shape140-419" transform="translate(0.933157,-3.46671)"><title>Sheet.140</title><path d="M34.61 606.85 L33.42 607.66 L33.42 595.24 L36.06 593.77 L36.06 591.52 L34.08 590.27 L29.85 592.78 L29.85 610.74 L31.84 612 L36.06 609.62 L36.2 607.57 L34.61 606.85 ZM4.76 589.54 L3.57 590.36 L3.57 577.93 L6.21 576.46 L6.21 574.22 L4.23 572.96 L0 575.47 L0 593.44 L1.98 594.69 L6.21 592.32 L6.34 590.27 L4.76 589.54 Z" class="st28"/></g><g id="shape141-421" transform="translate(39.8225,-17.4271)"><title>Sheet.141</title><path d="M2.25 610.07 A1.30526 1.30526 -180 0 0 0.77 609.09 A1.30943 1.30943 -180 0 0 0.27 610.82 A1.30342 1.30342 -180 0 0 1.75 611.8 A1.3082 1.3082 -180 0 0 2.25 610.07 Z" class="st19"/></g><g id="shape142-424" transform="translate(39.8225,-4.74544)"><title>Sheet.142</title><path d="M2.25 610.07 A1.30526 1.30526 -180 0 0 0.77 609.09 A1.30943 1.30943 -180 0 0 0.27 610.82 A1.30342 1.30342 -180 0 0 1.75 611.8 A1.3082 1.3082 -180 0 0 2.25 610.07 Z" class="st19"/></g><g id="shape143-427" transform="translate(0,-0.864861)"><title>Sheet.143</title><path d="M72 589.52 L72 569.54 L39.2 550.73 L6.31 569.25 L6.31 570.04 L0 566.37 L0 586.13 L0.93 586.68 L0.93 590.84 L2.91 592.09 L6.64 590 L30.79 604.07 L30.79 608.14 L32.77 609.4 L36.41 607.35 L44.39 612 L44.39 605.47 L72 589.52 Z" class="st28"/></g><g id="shape144-429" transform="translate(51.6383,-18.2376)"><title>Sheet.144</title><ellipse cx="6.557" cy="608.921" class="st29" rx="6.557" ry="3.079"/></g><g id="shape145-432" transform="translate(51.6377,-6.3052)"><title>Sheet.145</title><path d="M0 596.99 L0 609 A6.56035 3.10726 -180 0 0 13.11 609.05 L13.11 596.99 A6.55723 3.10579 0 1 1 0 596.99 Z" class="st30"/></g><g id="shape146-435" transform="translate(51.67,-6.34364)"><title>Sheet.146</title><path d="M13 596.99 A6.50146 3.07937 -180 1 0 0 597.02 L0 609 A6.50455 3.10726 -180 0 0 13 609.05 L13 596.99" class="st31"/></g><g id="shape111-438"><text x="11.97" y="626.8" class="st32">NY-SQL02</text></g></g><g id="group152-441" transform="translate(67.5,-261)"><title>Boundary</title><g id="shape153-442"><title>Sheet.153</title><rect width="670.5" height="113.824" x="0" y="498.176" class="st50" rx="9" ry="9"/></g></g><g id="shape154-444" transform="translate(261,-342)"><title>Sheet.154</title><desc>StackOverflow.com Cluster</desc><rect width="207" height="36" x="0" y="576" class="st12"/><text x="13.56" y="598.8" class="st51">StackOverflow.com Cluster</text></g><g id="group155-447" transform="translate(108.696,-396)"><title>Data Center</title><g id="shape156-448" transform="translate(0,-10.2107)"><title>Sheet.156</title><g id="shadow156-449" class="st1" transform="matrix(1,0,0,1,0.345598,1.97279)"><ellipse cx="36" cy="601.791" class="st6" rx="36" ry="10.209"/></g><ellipse cx="36" cy="601.791" class="st52" rx="36" ry="10.209"/></g><g id="shape157-453" transform="translate(6.34531,-16.8419)"><title>Sheet.157</title><g id="shadow157-454" class="st1"><path d="M38.36 584.08 L20.54 584.08 L20.54 612 L38.36 612 L38.36 584.08 ZM17.82 584.08 L0 584.08 L0 612 L17.82 612 L17.82 584.08 ZM41.13 584.08 L41.13 612 L58.95 612 L58.95 584.08 L41.13 584.08 ZM31.13 574.91 L31.13 584.08 L38.36 584.08 L38.36 602.83 L41.13 602.83 L41.13 584.08 L48.95 584.08 L48.95 574.91 L31.13 574.91 ZM31.13 574.91 L38.39 574.91 L38.39 567.05 L20.57 567.05 L20.57 574.91 L27.82 574.91 L27.82 584.08 L31.13 584.08 L31.13 574.91 ZM27.82 574.91 L10 574.91 L10 584.08 L17.82 584.08 L17.82 602.83 L20.54 602.83 L20.54 584.08 L27.82 584.08 L27.82 574.91 Z" class="st6" transform="matrix(1,0,0,1,0.345598,1.97279)"/></g><path d="M38.36 584.08 L20.54 584.08 L20.54 612 L38.36 612 L38.36 584.08 ZM17.82 584.08 L0 584.08 L0 612 L17.82 612 L17.82 584.08 ZM41.13 584.08 L41.13 612 L58.95 612 L58.95 584.08 L41.13 584.08 ZM31.13 574.91 L31.13 584.08 L38.36 584.08 L38.36 602.83 L41.13 602.83 L41.13 584.08 L48.95 584.08 L48.95 574.91 L31.13 574.91 ZM31.13 574.91 L38.39 574.91 L38.39 567.05 L20.57 567.05 L20.57 574.91 L27.82 574.91 L27.82 584.08 L31.13 584.08 L31.13 574.91 ZM27.82 574.91 L10 574.91 L10 584.08 L17.82 584.08 L17.82 602.83 L20.54 602.83 L20.54 584.08 L27.82 584.08 L27.82 574.91 Z" class="st8"/></g><g id="shape158-458" transform="translate(13.3848,-21.5703)"><title>Sheet.158</title><g id="shadow158-459" class="st1"><path d="M48.63 603.66 A1.07678 1.07678 -180 1 0 46.48 603.66 A1.07678 1.07678 -180 1 0 48.63 603.66 ZM40.96 607.6 L48.63 607.6 L48.63 606.87 L40.96 606.87 L40.96 607.6 ZM40.96 609.8 L48.63 609.8 L48.63 609.07 L40.96 609.07 L40.96 609.8 ZM40.96 612 L48.63 612 L48.63 611.27 L40.96 611.27 L40.96 612 ZM27.82 603.66 A1.07678 1.07678 -180 1 0 25.67 603.66 A1.07678 1.07678 -180 1 0 27.82 603.66 ZM20.15 607.6 L27.82 607.6 L27.82 606.87 L20.15 606.87 L20.15 607.6 ZM20.15 609.8 L27.82 609.8 L27.82 609.07 L20.15 609.07 L20.15 609.8 ZM20.15 612 L27.82 612 L27.82 611.27 L20.15 611.27 L20.15 612 ZM7.68 603.66 A1.07678 1.07678 -180 1 0 5.52 603.66 A1.07678 1.07678 -180 1 0 7.68 603.66 ZM-0 607.6 L7.68 607.6 L7.68 606.87 L-0 606.87 L-0 607.6 ZM-0 609.8 L7.68 609.8 L7.68 609.07 L-0 609.07 L-0 609.8 ZM-0 612 L7.68 612 L7.68 611.27 L-0 611.27 L-0 612 Z" class="st53" transform="matrix(1,0,0,1,0.345598,1.97279)"/></g><path d="M48.63 603.66 A1.07678 1.07678 -180 1 0 46.48 603.66 A1.07678 1.07678 -180 1 0 48.63 603.66 ZM40.96 607.6 L48.63 607.6 L48.63 606.87 L40.96 606.87 L40.96 607.6 ZM40.96 609.8 L48.63 609.8 L48.63 609.07 L40.96 609.07 L40.96 609.8 ZM40.96 612 L48.63 612 L48.63 611.27 L40.96 611.27 L40.96 612 ZM27.82 603.66 A1.07678 1.07678 -180 1 0 25.67 603.66 A1.07678 1.07678 -180 1 0 27.82 603.66 ZM20.15 607.6 L27.82 607.6 L27.82 606.87 L20.15 606.87 L20.15 607.6 ZM20.15 609.8 L27.82 609.8 L27.82 609.07 L20.15 609.07 L20.15 609.8 ZM20.15 612 L27.82 612 L27.82 611.27 L20.15 611.27 L20.15 612 ZM7.68 603.66 A1.07678 1.07678 -180 1 0 5.52 603.66 A1.07678 1.07678 -180 1 0 7.68 603.66 ZM-0 607.6 L7.68 607.6 L7.68 606.87 L-0 606.87 L-0 607.6 ZM-0 609.8 L7.68 609.8 L7.68 609.07 L-0 609.07 L-0 609.8 ZM-0 612 L7.68 612 L7.68 611.27 L-0 611.27 L-0 612 Z" class="st54"/></g></g><g id="shape159-466" transform="translate(376.875,-270)"><title>Sheet.159</title><desc>1 Availability Group 5 Databases 2.35 TB Data 4k-10k batches/...</desc><rect width="127.125" height="72" x="0" y="540" class="st55"/><text x="27.54" y="550.8" class="st56">1 Availability Group<tspan x="64.02" class="st57" dy="1.2em">5 </tspan>Databases<tspan x="61.15" class="st57" dy="1.2em">2</tspan>.35 TB Data<tspan x="29.09" class="st57" dy="1.2em">4</tspan>k-10k batches/sec</text></g><g id="group160-472" transform="translate(585,-396)"><title>Data Center.160</title><g id="shape161-473" transform="translate(0,-10.2107)"><title>Sheet.161</title><g id="shadow161-474" class="st1" transform="matrix(1,0,0,1,0.345598,1.97279)"><ellipse cx="36" cy="601.791" class="st58" rx="36" ry="10.209"/></g><ellipse cx="36" cy="601.791" class="st59" rx="36" ry="10.209"/></g><g id="shape162-478" transform="translate(6.34531,-16.8419)"><title>Sheet.162</title><g id="shadow162-479" class="st1"><path d="M38.36 584.08 L20.54 584.08 L20.54 612 L38.36 612 L38.36 584.08 ZM17.82 584.08 L0 584.08 L0 612 L17.82 612 L17.82 584.08 ZM41.13 584.08 L41.13 612 L58.95 612 L58.95 584.08 L41.13 584.08 ZM31.13 574.91 L31.13 584.08 L38.36 584.08 L38.36 602.83 L41.13 602.83 L41.13 584.08 L48.95 584.08 L48.95 574.91 L31.13 574.91 ZM31.13 574.91 L38.39 574.91 L38.39 567.05 L20.57 567.05 L20.57 574.91 L27.82 574.91 L27.82 584.08 L31.13 584.08 L31.13 574.91 ZM27.82 574.91 L10 574.91 L10 584.08 L17.82 584.08 L17.82 602.83 L20.54 602.83 L20.54 584.08 L27.82 584.08 L27.82 574.91 Z" class="st58" transform="matrix(1,0,0,1,0.345598,1.97279)"/></g><path d="M38.36 584.08 L20.54 584.08 L20.54 612 L38.36 612 L38.36 584.08 ZM17.82 584.08 L0 584.08 L0 612 L17.82 612 L17.82 584.08 ZM41.13 584.08 L41.13 612 L58.95 612 L58.95 584.08 L41.13 584.08 ZM31.13 574.91 L31.13 584.08 L38.36 584.08 L38.36 602.83 L41.13 602.83 L41.13 584.08 L48.95 584.08 L48.95 574.91 L31.13 574.91 ZM31.13 574.91 L38.39 574.91 L38.39 567.05 L20.57 567.05 L20.57 574.91 L27.82 574.91 L27.82 584.08 L31.13 584.08 L31.13 574.91 ZM27.82 574.91 L10 574.91 L10 584.08 L17.82 584.08 L17.82 602.83 L20.54 602.83 L20.54 584.08 L27.82 584.08 L27.82 574.91 Z" class="st60"/></g><g id="shape163-483" transform="translate(13.3848,-21.5703)"><title>Sheet.163</title><g id="shadow163-484" class="st1"><path d="M48.63 603.66 A1.07678 1.07678 -180 1 0 46.48 603.66 A1.07678 1.07678 -180 1 0 48.63 603.66 ZM40.96 607.6 L48.63 607.6 L48.63 606.87 L40.96 606.87 L40.96 607.6 ZM40.96 609.8 L48.63 609.8 L48.63 609.07 L40.96 609.07 L40.96 609.8 ZM40.96 612 L48.63 612 L48.63 611.27 L40.96 611.27 L40.96 612 ZM27.82 603.66 A1.07678 1.07678 -180 1 0 25.67 603.66 A1.07678 1.07678 -180 1 0 27.82 603.66 ZM20.15 607.6 L27.82 607.6 L27.82 606.87 L20.15 606.87 L20.15 607.6 ZM20.15 609.8 L27.82 609.8 L27.82 609.07 L20.15 609.07 L20.15 609.8 ZM20.15 612 L27.82 612 L27.82 611.27 L20.15 611.27 L20.15 612 ZM7.68 603.66 A1.07678 1.07678 -180 1 0 5.52 603.66 A1.07678 1.07678 -180 1 0 7.68 603.66 ZM-0 607.6 L7.68 607.6 L7.68 606.87 L-0 606.87 L-0 607.6 ZM-0 609.8 L7.68 609.8 L7.68 609.07 L-0 609.07 L-0 609.8 ZM-0 612 L7.68 612 L7.68 611.27 L-0 611.27 L-0 612 Z" class="st61" transform="matrix(1,0,0,1,0.345598,1.97279)"/></g><path d="M48.63 603.66 A1.07678 1.07678 -180 1 0 46.48 603.66 A1.07678 1.07678 -180 1 0 48.63 603.66 ZM40.96 607.6 L48.63 607.6 L48.63 606.87 L40.96 606.87 L40.96 607.6 ZM40.96 609.8 L48.63 609.8 L48.63 609.07 L40.96 609.07 L40.96 609.8 ZM40.96 612 L48.63 612 L48.63 611.27 L40.96 611.27 L40.96 612 ZM27.82 603.66 A1.07678 1.07678 -180 1 0 25.67 603.66 A1.07678 1.07678 -180 1 0 27.82 603.66 ZM20.15 607.6 L27.82 607.6 L27.82 606.87 L20.15 606.87 L20.15 607.6 ZM20.15 609.8 L27.82 609.8 L27.82 609.07 L20.15 609.07 L20.15 609.8 ZM20.15 612 L27.82 612 L27.82 611.27 L20.15 611.27 L20.15 612 ZM7.68 603.66 A1.07678 1.07678 -180 1 0 5.52 603.66 A1.07678 1.07678 -180 1 0 7.68 603.66 ZM-0 607.6 L7.68 607.6 L7.68 606.87 L-0 606.87 L-0 607.6 ZM-0 609.8 L7.68 609.8 L7.68 609.07 L-0 609.07 L-0 609.8 ZM-0 612 L7.68 612 L7.68 611.27 L-0 611.27 L-0 612 Z" class="st54"/></g></g><g id="shape164-491" transform="translate(225,-270)"><title>Sheet.164</title><desc>Dell R720xd 2x 8 Core @ 2.7 GHz (20MB) 384 GB RAM 1.8 TB PCIe...</desc><rect width="144" height="72" x="0" y="540" class="st55"/><text x="4" y="550.8" class="st56">Dell R720xd<tspan x="4" class="st57" dy="1.2em">2</tspan>x 8 Core @ 2.7 GHz <tspan class="st62">(</tspan><tspan class="st62">20</tspan><tspan class="st62">MB</tspan><tspan class="st62">)</tspan><tspan x="4" class="st57" dy="1.2em">384 </tspan>GB RAM<tspan x="4" class="st57" dy="1.2em">1</tspan>.8 TB PCIe NVMe SSD<tspan x="4" class="st57" dy="1.2em">2</tspan>.2 TB SATA SSD - RAID 10</text></g><g id="group166-502" transform="translate(338.445,-419.008)"><title>Internet</title><g id="shape167-503"><title>Sheet.167</title><g id="shadow167-504" class="st1"><path d="M34.55 605.5 C33.96 609.64 29.82 612 25.1 612 C21.26 612 16.24 610.23 14.76 607.87 C16.54 609.34 16.54 609.34 16.54 609.34 C15.06 610.52 12.4 610.52 12.4 610.52 C4.13 610.52 -0 606.09 0 601.37 C0.3 598.42 1.18 597.53 2.95 595.76 C3.54 598.12 3.54 598.12 3.54 598.12 C2.95 596.65 2.95 596.94 2.95 595.46 C2.95 591.63 6.79 588.38 11.52 588.38 C13.58 588.38 15.65 588.97 17.13 589.85 C15.06 588.97 15.06 588.97 15.06 588.97 C16.54 587.2 19.49 586.02 22.44 586.02 C28.05 586.02 32.78 589.26 33.66 593.69 C32.78 591.33 32.78 591.33 32.78 591.33 C38.68 591.63 43.11 596.06 43.11 599.89 C43.11 604.32 41.34 606.69 33.37 608.46 L34.55 605.5 Z" class="st63" transform="matrix(1,0,0,1,0.345598,1.97279)"/></g><path d="M34.55 605.5 C33.96 609.64 29.82 612 25.1 612 C21.26 612 16.24 610.23 14.76 607.87 C16.54 609.34 16.54 609.34 16.54 609.34 C15.06 610.52 12.4 610.52 12.4 610.52 C4.13 610.52 -0 606.09 0 601.37 C0.3 598.42 1.18 597.53 2.95 595.76 C3.54 598.12 3.54 598.12 3.54 598.12 C2.95 596.65 2.95 596.94 2.95 595.46 C2.95 591.63 6.79 588.38 11.52 588.38 C13.58 588.38 15.65 588.97 17.13 589.85 C15.06 588.97 15.06 588.97 15.06 588.97 C16.54 587.2 19.49 586.02 22.44 586.02 C28.05 586.02 32.78 589.26 33.66 593.69 C32.78 591.33 32.78 591.33 32.78 591.33 C38.68 591.63 43.11 596.06 43.11 599.89 C43.11 604.32 41.34 606.69 33.37 608.46 L34.55 605.5 Z" class="st64"/></g><g id="shape168-508"><title>Sheet.168</title><g id="shadow168-509" class="st1"><path d="M34.55 605.5 C33.96 609.64 29.82 612 25.1 612 C21.26 612 16.24 610.23 14.76 607.87 C16.54 609.34 16.54 609.34 16.54 609.34 C15.06 610.52 12.4 610.52 12.4 610.52 C4.13 610.52 -0 606.09 0 601.37 C0.3 598.42 1.18 597.53 2.95 595.76 C3.54 598.12 3.54 598.12 3.54 598.12 C2.95 596.65 2.95 596.94 2.95 595.46 C2.95 591.63 6.79 588.38 11.52 588.38 C13.58 588.38 15.65 588.97 17.13 589.85 C15.06 588.97 15.06 588.97 15.06 588.97 C16.54 587.2 19.49 586.02 22.44 586.02 C28.05 586.02 32.78 589.26 33.66 593.69 C32.78 591.33 32.78 591.33 32.78 591.33 C38.68 591.63 43.11 596.06 43.11 599.89 C43.11 604.32 41.34 606.69 33.37 608.46 L34.55 605.5 Z" class="st63" transform="matrix(1,0,0,1,0.345598,1.97279)"/></g><path d="M34.55 605.5 C33.96 609.64 29.82 612 25.1 612 C21.26 612 16.24 610.23 14.76 607.87 C16.54 609.34 16.54 609.34 16.54 609.34 C15.06 610.52 12.4 610.52 12.4 610.52 C4.13 610.52 -0 606.09 0 601.37 C0.3 598.42 1.18 597.53 2.95 595.76 C3.54 598.12 3.54 598.12 3.54 598.12 C2.95 596.65 2.95 596.94 2.95 595.46 C2.95 591.63 6.79 588.38 11.52 588.38 C13.58 588.38 15.65 588.97 17.13 589.85 C15.06 588.97 15.06 588.97 15.06 588.97 C16.54 587.2 19.49 586.02 22.44 586.02 C28.05 586.02 32.78 589.26 33.66 593.69 C32.78 591.33 32.78 591.33 32.78 591.33 C38.68 591.63 43.11 596.06 43.11 599.89 C43.11 604.32 41.34 606.69 33.37 608.46 L34.55 605.5 Z" class="st64"/></g><g id="shape169-513"><title>Sheet.169</title><g id="shadow169-514" class="st1"><path d="M34.55 605.5 C33.96 609.64 29.82 612 25.1 612 C21.26 612 16.24 610.23 14.76 607.87 C16.54 609.34 16.54 609.34 16.54 609.34 C15.06 610.52 12.4 610.52 12.4 610.52 C4.13 610.52 -0 606.09 0 601.37 C0.3 598.42 1.18 597.53 2.95 595.76 C3.54 598.12 3.54 598.12 3.54 598.12 C2.95 596.65 2.95 596.94 2.95 595.46 C2.95 591.63 6.79 588.38 11.52 588.38 C13.58 588.38 15.65 588.97 17.13 589.85 C15.06 588.97 15.06 588.97 15.06 588.97 C16.54 587.2 19.49 586.02 22.44 586.02 C28.05 586.02 32.78 589.26 33.66 593.69 C32.78 591.33 32.78 591.33 32.78 591.33 C38.68 591.63 43.11 596.06 43.11 599.89 C43.11 604.32 41.34 606.69 33.37 608.46 L34.55 605.5 Z" class="st63" transform="matrix(1,0,0,1,0.345598,1.97279)"/></g><path d="M34.55 605.5 C33.96 609.64 29.82 612 25.1 612 C21.26 612 16.24 610.23 14.76 607.87 C16.54 609.34 16.54 609.34 16.54 609.34 C15.06 610.52 12.4 610.52 12.4 610.52 C4.13 610.52 -0 606.09 0 601.37 C0.3 598.42 1.18 597.53 2.95 595.76 C3.54 598.12 3.54 598.12 3.54 598.12 C2.95 596.65 2.95 596.94 2.95 595.46 C2.95 591.63 6.79 588.38 11.52 588.38 C13.58 588.38 15.65 588.97 17.13 589.85 C15.06 588.97 15.06 588.97 15.06 588.97 C16.54 587.2 19.49 586.02 22.44 586.02 C28.05 586.02 32.78 589.26 33.66 593.69 C32.78 591.33 32.78 591.33 32.78 591.33 C38.68 591.63 43.11 596.06 43.11 599.89 C43.11 604.32 41.34 606.69 33.37 608.46 L34.55 605.5 Z" class="st64"/></g><g id="shape170-518"><title>Sheet.170</title><g id="shadow170-519" class="st1"><path d="M34.55 605.5 C33.96 609.64 29.82 612 25.1 612 C21.26 612 16.24 610.23 14.76 607.87 C16.54 609.34 16.54 609.34 16.54 609.34 C15.06 610.52 12.4 610.52 12.4 610.52 C4.13 610.52 -0 606.09 0 601.37 C0.3 598.42 1.18 597.53 2.95 595.76 C3.54 598.12 3.54 598.12 3.54 598.12 C2.95 596.65 2.95 596.94 2.95 595.46 C2.95 591.63 6.79 588.38 11.52 588.38 C13.58 588.38 15.65 588.97 17.13 589.85 C15.06 588.97 15.06 588.97 15.06 588.97 C16.54 587.2 19.49 586.02 22.44 586.02 C28.05 586.02 32.78 589.26 33.66 593.69 C32.78 591.33 32.78 591.33 32.78 591.33 C38.68 591.63 43.11 596.06 43.11 599.89 C43.11 604.32 41.34 606.69 33.37 608.46 L34.55 605.5 Z" class="st58" transform="matrix(1,0,0,1,0.345598,1.97279)"/></g><path d="M34.55 605.5 C33.96 609.64 29.82 612 25.1 612 C21.26 612 16.24 610.23 14.76 607.87 C16.54 609.34 16.54 609.34 16.54 609.34 C15.06 610.52 12.4 610.52 12.4 610.52 C4.13 610.52 -0 606.09 0 601.37 C0.3 598.42 1.18 597.53 2.95 595.76 C3.54 598.12 3.54 598.12 3.54 598.12 C2.95 596.65 2.95 596.94 2.95 595.46 C2.95 591.63 6.79 588.38 11.52 588.38 C13.58 588.38 15.65 588.97 17.13 589.85 C15.06 588.97 15.06 588.97 15.06 588.97 C16.54 587.2 19.49 586.02 22.44 586.02 C28.05 586.02 32.78 589.26 33.66 593.69 C32.78 591.33 32.78 591.33 32.78 591.33 C38.68 591.63 43.11 596.06 43.11 599.89 C43.11 604.32 41.34 606.69 33.37 608.46 L34.55 605.5 Z" class="st65"/></g><g id="shape171-523"><title>Sheet.171</title><g id="shadow171-524" class="st1"><path d="M34.55 605.5 C33.96 609.64 29.82 612 25.1 612 C21.26 612 16.24 610.23 14.76 607.87 C16.54 609.34 16.54 609.34 16.54 609.34 C15.06 610.52 12.4 610.52 12.4 610.52 C4.13 610.52 -0 606.09 0 601.37 C0.3 598.42 1.18 597.53 2.95 595.76 C3.54 598.12 3.54 598.12 3.54 598.12 C2.95 596.65 2.95 596.94 2.95 595.46 C2.95 591.63 6.79 588.38 11.52 588.38 C13.58 588.38 15.65 588.97 17.13 589.85 C15.06 588.97 15.06 588.97 15.06 588.97 C16.54 587.2 19.49 586.02 22.44 586.02 C28.05 586.02 32.78 589.26 33.66 593.69 C32.78 591.33 32.78 591.33 32.78 591.33 C38.68 591.63 43.11 596.06 43.11 599.89 C43.11 604.32 41.34 606.69 33.37 608.46 L34.55 605.5 Z" class="st58" transform="matrix(1,0,0,1,0.345598,1.97279)"/></g><path d="M34.55 605.5 C33.96 609.64 29.82 612 25.1 612 C21.26 612 16.24 610.23 14.76 607.87 C16.54 609.34 16.54 609.34 16.54 609.34 C15.06 610.52 12.4 610.52 12.4 610.52 C4.13 610.52 -0 606.09 0 601.37 C0.3 598.42 1.18 597.53 2.95 595.76 C3.54 598.12 3.54 598.12 3.54 598.12 C2.95 596.65 2.95 596.94 2.95 595.46 C2.95 591.63 6.79 588.38 11.52 588.38 C13.58 588.38 15.65 588.97 17.13 589.85 C15.06 588.97 15.06 588.97 15.06 588.97 C16.54 587.2 19.49 586.02 22.44 586.02 C28.05 586.02 32.78 589.26 33.66 593.69 C32.78 591.33 32.78 591.33 32.78 591.33 C38.68 591.63 43.11 596.06 43.11 599.89 C43.11 604.32 41.34 606.69 33.37 608.46 L34.55 605.5 Z" class="st65"/></g></g><g id="shape172-528" transform="translate(225,-432)"><title>2-Way data connection</title><path d="M6.68 612 L7.04 612 L95.67 612" class="st66"/></g><g id="shape173-537" transform="translate(396,-432)"><title>2-Way data connection.173</title><path d="M6.68 612 L7.04 612 L95.67 612" class="st66"/></g><g id="shape174-544" transform="translate(288,-396.816)"><title>Sheet.174</title><desc>Internet VPN  200mbps</desc><rect width="144" height="21.375" x="0" y="590.625" class="st12"/><text x="12.1" y="604.91" class="st68">Internet VPN  200mbps</text></g><g id="group175-547" transform="translate(104.76,-157.5)"><title>Database server.175</title><desc>OR-SQL03</desc><g id="shape176-548" transform="translate(5.59552E-014,-0.864861)"><title>Sheet.176</title><g id="shadow176-549" class="st1"><path d="M6.31 569.99 L0 566.37 L0 586.13 L0.93 586.68 L0.93 590.84 L2.91 592.09 L6.64 590 L30.79 604.07 L30.79 608.14 L32.77 609.4 L36.41 607.35 L44.39 612 L44.39 605.47 L72 589.52 L72 569.54 L39.2 550.73 L6.31 569.25 L6.31 569.99 Z" class="st14" transform="matrix(1,0,0,1,0.3456,1.9728)"/></g><path d="M6.31 569.99 L0 566.37 L0 586.13 L0.93 586.68 L0.93 590.84 L2.91 592.09 L6.64 590 L30.79 604.07 L30.79 608.14 L32.77 609.4 L36.41 607.35 L44.39 612 L44.39 605.47 L72 589.52 L72 569.54 L39.2 550.73 L6.31 569.25 L6.31 569.99 Z" class="st15"/></g><g id="shape177-553" transform="translate(6.31408,-23.5989)"><title>Sheet.177</title><path d="M32.89 573.46 L65.69 592.28 L32.55 612 L0 593.46 L0 591.98 L32.89 573.46 Z" class="st16"/></g><g id="shape178-556" transform="translate(38.041,-7.39908)"><title>Sheet.178</title><path d="M33.96 576.08 L0 595.33 L6.35 612 L33.96 596.06 L33.96 576.08 Z" class="st17"/></g><g id="shape179-559" transform="translate(0,-0.864861)"><title>Sheet.179</title><path d="M44.39 612 L0 586.13 L0 566.37 L44.39 591.81 L44.39 612 Z" class="st18"/></g><g id="shape180-562" transform="translate(1.64544,-39.6199)"><title>Sheet.180</title><path d="M2.25 610.07 A1.30526 1.30526 -180 0 0 0.77 609.09 A1.30943 1.30943 -180 0 0 0.27 610.82 A1.30342 1.30342 -180 0 0 1.75 611.8 A1.3082 1.3082 -180 0 0 2.25 610.07 Z" class="st19"/></g><g id="shape181-565" transform="translate(7.23065,-30.3)"><title>Sheet.181</title><path d="M6.43 606.49 A3.72217 3.72217 -180 0 0 2.21 603.68 A3.73404 3.73404 -180 0 0 0.77 608.62 A3.72292 3.72292 -180 0 0 4.99 611.42 A3.73751 3.73751 -180 0 0 6.43 606.49 Z" class="st19"/></g><g id="shape182-568" transform="translate(7.23065,-20.9653)"><title>Sheet.182</title><path d="M6.43 606.49 A3.72217 3.72217 -180 0 0 2.21 603.68 A3.73404 3.73404 -180 0 0 0.77 608.62 A3.72292 3.72292 -180 0 0 4.99 611.42 A3.73751 3.73751 -180 0 0 6.43 606.49 Z" class="st19"/></g><g id="shape183-571" transform="translate(9.02933,-32.7011)"><title>Sheet.183</title><path d="M3.21 609.24 A1.86004 1.86004 -180 0 0 1.1 607.84 A1.86694 1.86694 -180 0 0 0.38 610.31 A1.86041 1.86041 -180 0 0 2.5 611.71 A1.86777 1.86777 -180 0 0 3.21 609.24 Z" class="st20"/></g><g id="shape184-574" transform="translate(9.02933,-23.3663)"><title>Sheet.184</title><path d="M3.21 609.24 A1.86004 1.86004 -180 0 0 1.1 607.84 A1.86787 1.86787 -180 0 0 0.38 610.31 A1.86041 1.86041 -180 0 0 2.5 611.71 A1.86777 1.86777 -180 0 0 3.21 609.24 Z" class="st20"/></g><g id="shape185-577" transform="translate(15.5435,-17.668)"><title>Sheet.185</title><path d="M0 610.05 L0.1 594.14 L3.65 596.09 L3.55 612 L0 610.05 Z" class="st21"/></g><g id="shape186-580" transform="translate(20.3657,-14.8062)"><title>Sheet.186</title><path d="M0 610.05 L0.1 594.14 L3.65 596.09 L3.55 612 L0 610.05 Z" class="st21"/></g><g id="shape187-583" transform="translate(25.1868,-11.9433)"><title>Sheet.187</title><path d="M0 610.05 L0.1 594.14 L3.65 596.09 L3.55 612 L0 610.05 Z" class="st21"/></g><g id="shape188-586" transform="translate(30.009,-9.08151)"><title>Sheet.188</title><path d="M0 610.05 L0.1 594.14 L3.65 596.09 L3.55 612 L0 610.05 Z" class="st21"/></g><g id="shape189-589" transform="translate(16.446,-20.1198)"><title>Sheet.189</title><path d="M1.7 611.38 a0.774788 0.774788 0 0 1 -0.848613 0.616116 A1.27344 1.27344 0 0 1 0 610.86 L0 599.93 a0.773543 0.773543 0 0 1 0.847556 -0.616116 A1.27281 1.27281 0 0 1 1.7 600.46 L1.7 611.38 Z" class="st22"/></g><g id="shape190-592" transform="translate(21.2671,-17.258)"><title>Sheet.190</title><path d="M1.7 611.38 a0.774788 0.774788 0 0 1 -0.848613 0.616116 A1.27344 1.27344 0 0 1 0 610.86 L0 599.93 a0.773543 0.773543 0 0 1 0.847556 -0.616116 A1.27281 1.27281 0 0 1 1.7 600.46 L1.7 611.38 Z" class="st22"/></g><g id="shape191-595" transform="translate(26.0893,-14.3951)"><title>Sheet.191</title><path d="M1.7 611.38 a0.774788 0.774788 0 0 1 -0.848613 0.616116 A1.27344 1.27344 0 0 1 0 610.86 L0 599.93 a0.773543 0.773543 0 0 1 0.847556 -0.616116 A1.27281 1.27281 0 0 1 1.7 600.46 L1.7 611.38 Z" class="st22"/></g><g id="shape192-598" transform="translate(30.9104,-11.5333)"><title>Sheet.192</title><path d="M1.7 611.38 a0.775394 0.775394 0 0 1 -0.84967 0.616116 A1.27409 1.27409 0 0 1 0 610.86 L0 599.93 a0.772939 0.772939 0 0 1 0.846499 -0.616116 A1.27382 1.27382 0 0 1 1.7 600.46 L1.7 611.38 Z" class="st22"/></g><g id="shape193-601" transform="translate(15.5435,-19.6189)"><title>Sheet.193</title><path d="M0 612 L0.1 596.09 L3.65 598.04 L0 612 Z" class="st23"/><path d="M0 612 L0.1 596.09 L3.65 598.04" class="st24"/></g><g id="shape194-604" transform="translate(20.3657,-16.7571)"><title>Sheet.194</title><path d="M0 612 L0.1 596.09 L3.65 598.04 L0 612 Z" class="st23"/><path d="M0 612 L0.1 596.09 L3.65 598.04" class="st24"/></g><g id="shape195-607" transform="translate(25.1868,-13.8942)"><title>Sheet.195</title><path d="M0 612 L0.1 596.09 L3.65 598.04 L0 612 Z" class="st23"/><path d="M0 612 L0.1 596.09 L3.65 598.04" class="st24"/></g><g id="shape196-610" transform="translate(30.009,-11.0324)"><title>Sheet.196</title><path d="M0 612 L0.1 596.09 L3.65 598.04 L0 612 Z" class="st23"/><path d="M0 612 L0.1 596.09 L3.65 598.04" class="st24"/></g><g id="shape197-613" transform="translate(15.5435,-9.08151)"><title>Sheet.197</title><path d="M18.12 596.09 L18.02 612 L14.47 610.05 L18.12 596.09 ZM13.3 593.23 L13.2 609.14 L9.64 607.19 L13.3 593.23 ZM8.48 590.36 L8.38 606.28 L4.82 604.32 L8.48 590.36 ZM3.65 587.5 L3.55 603.41 L0 601.46 L3.65 587.5 Z" class="st23"/><path d="M18.12 596.09 L18.02 612 L14.47 610.05M13.3 593.23 L13.2 609.14 L9.64 607.19M8.48 590.36 L8.38 606.28 L4.82 604.32M3.65 587.5 L3.55 603.41 L0 601.46" class="st25"/></g><g id="shape198-616" transform="translate(4.43329,-23.677)"><title>Sheet.198</title><path d="M0 610.61 L1.26 609.75 L2.84 610.48 L0.07 612 L0 610.61 Z" class="st26"/></g><g id="shape199-619" transform="translate(34.288,-6.37186)"><title>Sheet.199</title><path d="M0 610.61 L1.26 609.75 L2.84 610.48 L0.07 612 L0 610.61 Z" class="st26"/></g><g id="shape200-622" transform="translate(2.91466,-20.7708)"><title>Sheet.200</title><path d="M4.23 609.62 L0 612 L0 594.03 L4.23 591.52 L4.23 593.77 L1.59 595.24 L1.59 609.09 L4.36 607.57 L4.23 609.62 Z" class="st17"/></g><g id="shape201-625" transform="translate(32.7694,-3.46565)"><title>Sheet.201</title><path d="M4.23 609.62 L0 612 L0 594.03 L4.23 591.52 L4.23 593.77 L1.59 595.24 L1.59 609.09 L4.36 607.57 L4.23 609.62 Z" class="st17"/></g><g id="shape202-628" transform="translate(0.933157,-20.7708)"><title>Sheet.202</title><path d="M1.98 594.03 L6.21 591.52 L4.23 590.27 L0 592.78 L0 610.74 L1.98 612 L1.98 594.03 Z" class="st27"/></g><g id="shape203-631" transform="translate(30.7878,-3.46565)"><title>Sheet.203</title><path d="M1.98 594.03 L6.21 591.52 L4.23 590.27 L0 592.78 L0 610.74 L1.98 612 L1.98 594.03 Z" class="st27"/></g><g id="shape204-634" transform="translate(0.933157,-3.46671)"><title>Sheet.204</title><path d="M34.61 606.85 L33.42 607.66 L33.42 595.24 L36.06 593.77 L36.06 591.52 L34.08 590.27 L29.85 592.78 L29.85 610.74 L31.84 612 L36.06 609.62 L36.2 607.57 L34.61 606.85 ZM4.76 589.54 L3.57 590.36 L3.57 577.93 L6.21 576.46 L6.21 574.22 L4.23 572.96 L0 575.47 L0 593.44 L1.98 594.69 L6.21 592.32 L6.34 590.27 L4.76 589.54 Z" class="st28"/></g><g id="shape205-636" transform="translate(39.8225,-17.4271)"><title>Sheet.205</title><path d="M2.25 610.07 A1.30526 1.30526 -180 0 0 0.77 609.09 A1.30943 1.30943 -180 0 0 0.27 610.82 A1.30342 1.30342 -180 0 0 1.75 611.8 A1.3082 1.3082 -180 0 0 2.25 610.07 Z" class="st19"/></g><g id="shape206-639" transform="translate(39.8225,-4.74544)"><title>Sheet.206</title><path d="M2.25 610.07 A1.30526 1.30526 -180 0 0 0.77 609.09 A1.30943 1.30943 -180 0 0 0.27 610.82 A1.30342 1.30342 -180 0 0 1.75 611.8 A1.3082 1.3082 -180 0 0 2.25 610.07 Z" class="st19"/></g><g id="shape207-642" transform="translate(0,-0.864861)"><title>Sheet.207</title><path d="M72 589.52 L72 569.54 L39.2 550.73 L6.31 569.25 L6.31 570.04 L0 566.37 L0 586.13 L0.93 586.68 L0.93 590.84 L2.91 592.09 L6.64 590 L30.79 604.07 L30.79 608.14 L32.77 609.4 L36.41 607.35 L44.39 612 L44.39 605.47 L72 589.52 Z" class="st28"/></g><g id="shape208-644" transform="translate(51.6383,-18.2376)"><title>Sheet.208</title><ellipse cx="6.557" cy="608.921" class="st29" rx="6.557" ry="3.079"/></g><g id="shape209-647" transform="translate(51.6377,-6.3052)"><title>Sheet.209</title><path d="M0 596.99 L0 609 A6.56035 3.10726 -180 0 0 13.11 609.05 L13.11 596.99 A6.55723 3.10579 0 1 1 0 596.99 Z" class="st30"/></g><g id="shape210-650" transform="translate(51.67,-6.34364)"><title>Sheet.210</title><path d="M13 596.99 A6.50146 3.07937 -180 1 0 0 597.02 L0 609 A6.50455 3.10726 -180 0 0 13 609.05 L13 596.99" class="st31"/></g><g id="shape175-653"><text x="11.53" y="626.8" class="st32">OR-SQL03</text></g></g><g id="group211-656" transform="translate(527.76,-157.5)"><title>Database server.211</title><desc>NY-SQL03</desc><g id="shape212-657" transform="translate(5.59552E-014,-0.864861)"><title>Sheet.212</title><g id="shadow212-658" class="st1"><path d="M6.31 569.99 L0 566.37 L0 586.13 L0.93 586.68 L0.93 590.84 L2.91 592.09 L6.64 590 L30.79 604.07 L30.79 608.14 L32.77 609.4 L36.41 607.35 L44.39 612 L44.39 605.47 L72 589.52 L72 569.54 L39.2 550.73 L6.31 569.25 L6.31 569.99 Z" class="st33" transform="matrix(1,0,0,1,0.3456,1.9728)"/></g><path d="M6.31 569.99 L0 566.37 L0 586.13 L0.93 586.68 L0.93 590.84 L2.91 592.09 L6.64 590 L30.79 604.07 L30.79 608.14 L32.77 609.4 L36.41 607.35 L44.39 612 L44.39 605.47 L72 589.52 L72 569.54 L39.2 550.73 L6.31 569.25 L6.31 569.99 Z" class="st15"/></g><g id="shape213-662" transform="translate(6.31408,-23.5989)"><title>Sheet.213</title><path d="M32.89 573.46 L65.69 592.28 L32.55 612 L0 593.46 L0 591.98 L32.89 573.46 Z" class="st34"/></g><g id="shape214-665" transform="translate(38.041,-7.39908)"><title>Sheet.214</title><path d="M33.96 576.08 L0 595.33 L6.35 612 L33.96 596.06 L33.96 576.08 Z" class="st35"/></g><g id="shape215-668" transform="translate(0,-0.864861)"><title>Sheet.215</title><path d="M44.39 612 L0 586.13 L0 566.37 L44.39 591.81 L44.39 612 Z" class="st36"/></g><g id="shape216-671" transform="translate(1.64544,-39.6199)"><title>Sheet.216</title><path d="M2.25 610.07 A1.30526 1.30526 -180 0 0 0.77 609.09 A1.30943 1.30943 -180 0 0 0.27 610.82 A1.30342 1.30342 -180 0 0 1.75 611.8 A1.3082 1.3082 -180 0 0 2.25 610.07 Z" class="st37"/></g><g id="shape217-674" transform="translate(7.23065,-30.3)"><title>Sheet.217</title><path d="M6.43 606.49 A3.72217 3.72217 -180 0 0 2.21 603.68 A3.73404 3.73404 -180 0 0 0.77 608.62 A3.72292 3.72292 -180 0 0 4.99 611.42 A3.73751 3.73751 -180 0 0 6.43 606.49 Z" class="st37"/></g><g id="shape218-677" transform="translate(7.23065,-20.9653)"><title>Sheet.218</title><path d="M6.43 606.49 A3.72217 3.72217 -180 0 0 2.21 603.68 A3.73404 3.73404 -180 0 0 0.77 608.62 A3.72292 3.72292 -180 0 0 4.99 611.42 A3.73751 3.73751 -180 0 0 6.43 606.49 Z" class="st37"/></g><g id="shape219-680" transform="translate(9.02933,-32.7011)"><title>Sheet.219</title><path d="M3.21 609.24 A1.86004 1.86004 -180 0 0 1.1 607.84 A1.86694 1.86694 -180 0 0 0.38 610.31 A1.86041 1.86041 -180 0 0 2.5 611.71 A1.86777 1.86777 -180 0 0 3.21 609.24 Z" class="st38"/></g><g id="shape220-683" transform="translate(9.02933,-23.3663)"><title>Sheet.220</title><path d="M3.21 609.24 A1.86004 1.86004 -180 0 0 1.1 607.84 A1.86787 1.86787 -180 0 0 0.38 610.31 A1.86041 1.86041 -180 0 0 2.5 611.71 A1.86777 1.86777 -180 0 0 3.21 609.24 Z" class="st38"/></g><g id="shape221-686" transform="translate(15.5435,-17.668)"><title>Sheet.221</title><path d="M0 610.05 L0.1 594.14 L3.65 596.09 L3.55 612 L0 610.05 Z" class="st39"/></g><g id="shape222-689" transform="translate(20.3657,-14.8062)"><title>Sheet.222</title><path d="M0 610.05 L0.1 594.14 L3.65 596.09 L3.55 612 L0 610.05 Z" class="st39"/></g><g id="shape223-692" transform="translate(25.1868,-11.9433)"><title>Sheet.223</title><path d="M0 610.05 L0.1 594.14 L3.65 596.09 L3.55 612 L0 610.05 Z" class="st39"/></g><g id="shape224-695" transform="translate(30.009,-9.08151)"><title>Sheet.224</title><path d="M0 610.05 L0.1 594.14 L3.65 596.09 L3.55 612 L0 610.05 Z" class="st39"/></g><g id="shape225-698" transform="translate(16.446,-20.1198)"><title>Sheet.225</title><path d="M1.7 611.38 a0.774788 0.774788 0 0 1 -0.848613 0.616116 A1.27344 1.27344 0 0 1 0 610.86 L0 599.93 a0.773543 0.773543 0 0 1 0.847556 -0.616116 A1.27281 1.27281 0 0 1 1.7 600.46 L1.7 611.38 Z" class="st40"/></g><g id="shape226-701" transform="translate(21.2671,-17.258)"><title>Sheet.226</title><path d="M1.7 611.38 a0.774788 0.774788 0 0 1 -0.848613 0.616116 A1.27344 1.27344 0 0 1 0 610.86 L0 599.93 a0.773543 0.773543 0 0 1 0.847556 -0.616116 A1.27281 1.27281 0 0 1 1.7 600.46 L1.7 611.38 Z" class="st40"/></g><g id="shape227-704" transform="translate(26.0893,-14.3951)"><title>Sheet.227</title><path d="M1.7 611.38 a0.774788 0.774788 0 0 1 -0.848613 0.616116 A1.27344 1.27344 0 0 1 0 610.86 L0 599.93 a0.773543 0.773543 0 0 1 0.847556 -0.616116 A1.27281 1.27281 0 0 1 1.7 600.46 L1.7 611.38 Z" class="st40"/></g><g id="shape228-707" transform="translate(30.9104,-11.5333)"><title>Sheet.228</title><path d="M1.7 611.38 a0.775394 0.775394 0 0 1 -0.84967 0.616116 A1.27409 1.27409 0 0 1 0 610.86 L0 599.93 a0.772939 0.772939 0 0 1 0.846499 -0.616116 A1.27382 1.27382 0 0 1 1.7 600.46 L1.7 611.38 Z" class="st40"/></g><g id="shape229-710" transform="translate(15.5435,-19.6189)"><title>Sheet.229</title><path d="M0 612 L0.1 596.09 L3.65 598.04 L0 612 Z" class="st23"/><path d="M0 612 L0.1 596.09 L3.65 598.04" class="st41"/></g><g id="shape230-713" transform="translate(20.3657,-16.7571)"><title>Sheet.230</title><path d="M0 612 L0.1 596.09 L3.65 598.04 L0 612 Z" class="st23"/><path d="M0 612 L0.1 596.09 L3.65 598.04" class="st41"/></g><g id="shape231-716" transform="translate(25.1868,-13.8942)"><title>Sheet.231</title><path d="M0 612 L0.1 596.09 L3.65 598.04 L0 612 Z" class="st23"/><path d="M0 612 L0.1 596.09 L3.65 598.04" class="st41"/></g><g id="shape232-719" transform="translate(30.009,-11.0324)"><title>Sheet.232</title><path d="M0 612 L0.1 596.09 L3.65 598.04 L0 612 Z" class="st23"/><path d="M0 612 L0.1 596.09 L3.65 598.04" class="st41"/></g><g id="shape233-722" transform="translate(15.5435,-9.08151)"><title>Sheet.233</title><path d="M18.12 596.09 L18.02 612 L14.47 610.05 L18.12 596.09 ZM13.3 593.23 L13.2 609.14 L9.64 607.19 L13.3 593.23 ZM8.48 590.36 L8.38 606.28 L4.82 604.32 L8.48 590.36 ZM3.65 587.5 L3.55 603.41 L0 601.46 L3.65 587.5 Z" class="st23"/><path d="M18.12 596.09 L18.02 612 L14.47 610.05M13.3 593.23 L13.2 609.14 L9.64 607.19M8.48 590.36 L8.38 606.28 L4.82 604.32M3.65 587.5 L3.55 603.41 L0 601.46" class="st42"/></g><g id="shape234-725" transform="translate(4.43329,-23.677)"><title>Sheet.234</title><path d="M0 610.61 L1.26 609.75 L2.84 610.48 L0.07 612 L0 610.61 Z" class="st43"/></g><g id="shape235-728" transform="translate(34.288,-6.37186)"><title>Sheet.235</title><path d="M0 610.61 L1.26 609.75 L2.84 610.48 L0.07 612 L0 610.61 Z" class="st43"/></g><g id="shape236-731" transform="translate(2.91466,-20.7708)"><title>Sheet.236</title><path d="M4.23 609.62 L0 612 L0 594.03 L4.23 591.52 L4.23 593.77 L1.59 595.24 L1.59 609.09 L4.36 607.57 L4.23 609.62 Z" class="st35"/></g><g id="shape237-734" transform="translate(32.7694,-3.46565)"><title>Sheet.237</title><path d="M4.23 609.62 L0 612 L0 594.03 L4.23 591.52 L4.23 593.77 L1.59 595.24 L1.59 609.09 L4.36 607.57 L4.23 609.62 Z" class="st35"/></g><g id="shape238-737" transform="translate(0.933157,-20.7708)"><title>Sheet.238</title><path d="M1.98 594.03 L6.21 591.52 L4.23 590.27 L0 592.78 L0 610.74 L1.98 612 L1.98 594.03 Z" class="st44"/></g><g id="shape239-740" transform="translate(30.7878,-3.46565)"><title>Sheet.239</title><path d="M1.98 594.03 L6.21 591.52 L4.23 590.27 L0 592.78 L0 610.74 L1.98 612 L1.98 594.03 Z" class="st44"/></g><g id="shape240-743" transform="translate(0.933157,-3.46671)"><title>Sheet.240</title><path d="M34.61 606.85 L33.42 607.66 L33.42 595.24 L36.06 593.77 L36.06 591.52 L34.08 590.27 L29.85 592.78 L29.85 610.74 L31.84 612 L36.06 609.62 L36.2 607.57 L34.61 606.85 ZM4.76 589.54 L3.57 590.36 L3.57 577.93 L6.21 576.46 L6.21 574.22 L4.23 572.96 L0 575.47 L0 593.44 L1.98 594.69 L6.21 592.32 L6.34 590.27 L4.76 589.54 Z" class="st45"/></g><g id="shape241-745" transform="translate(39.8225,-17.4271)"><title>Sheet.241</title><path d="M2.25 610.07 A1.30526 1.30526 -180 0 0 0.77 609.09 A1.30943 1.30943 -180 0 0 0.27 610.82 A1.30342 1.30342 -180 0 0 1.75 611.8 A1.3082 1.3082 -180 0 0 2.25 610.07 Z" class="st37"/></g><g id="shape242-748" transform="translate(39.8225,-4.74544)"><title>Sheet.242</title><path d="M2.25 610.07 A1.30526 1.30526 -180 0 0 0.77 609.09 A1.30943 1.30943 -180 0 0 0.27 610.82 A1.30342 1.30342 -180 0 0 1.75 611.8 A1.3082 1.3082 -180 0 0 2.25 610.07 Z" class="st37"/></g><g id="shape243-751" transform="translate(0,-0.864861)"><title>Sheet.243</title><path d="M72 589.52 L72 569.54 L39.2 550.73 L6.31 569.25 L6.31 570.04 L0 566.37 L0 586.13 L0.93 586.68 L0.93 590.84 L2.91 592.09 L6.64 590 L30.79 604.07 L30.79 608.14 L32.77 609.4 L36.41 607.35 L44.39 612 L44.39 605.47 L72 589.52 Z" class="st45"/></g><g id="shape244-753" transform="translate(51.6383,-18.2376)"><title>Sheet.244</title><ellipse cx="6.557" cy="608.921" class="st46" rx="6.557" ry="3.079"/></g><g id="shape245-756" transform="translate(51.6377,-6.3052)"><title>Sheet.245</title><path d="M0 596.99 L0 609 A6.56035 3.10726 -180 0 0 13.11 609.05 L13.11 596.99 A6.55723 3.10579 0 1 1 0 596.99 Z" class="st47"/></g><g id="shape246-759" transform="translate(51.67,-6.34364)"><title>Sheet.246</title><path d="M13 596.99 A6.50146 3.07937 -180 1 0 0 597.02 L0 609 A6.50455 3.10726 -180 0 0 13 609.05 L13 596.99" class="st48"/></g><g id="shape211-762"><text x="11.97" y="626.8" class="st49">NY-SQL03</text></g></g><g id="group247-765" transform="translate(635.76,-157.5)"><title>Database server.247</title><desc>NY-SQL04</desc><g id="shape248-766" transform="translate(5.59552E-014,-0.864861)"><title>Sheet.248</title><g id="shadow248-767" class="st1"><path d="M6.31 569.99 L0 566.37 L0 586.13 L0.93 586.68 L0.93 590.84 L2.91 592.09 L6.64 590 L30.79 604.07 L30.79 608.14 L32.77 609.4 L36.41 607.35 L44.39 612 L44.39 605.47 L72 589.52 L72 569.54 L39.2 550.73 L6.31 569.25 L6.31 569.99 Z" class="st14" transform="matrix(1,0,0,1,0.3456,1.9728)"/></g><path d="M6.31 569.99 L0 566.37 L0 586.13 L0.93 586.68 L0.93 590.84 L2.91 592.09 L6.64 590 L30.79 604.07 L30.79 608.14 L32.77 609.4 L36.41 607.35 L44.39 612 L44.39 605.47 L72 589.52 L72 569.54 L39.2 550.73 L6.31 569.25 L6.31 569.99 Z" class="st15"/></g><g id="shape249-771" transform="translate(6.31408,-23.5989)"><title>Sheet.249</title><path d="M32.89 573.46 L65.69 592.28 L32.55 612 L0 593.46 L0 591.98 L32.89 573.46 Z" class="st16"/></g><g id="shape250-774" transform="translate(38.041,-7.39908)"><title>Sheet.250</title><path d="M33.96 576.08 L0 595.33 L6.35 612 L33.96 596.06 L33.96 576.08 Z" class="st17"/></g><g id="shape251-777" transform="translate(0,-0.864861)"><title>Sheet.251</title><path d="M44.39 612 L0 586.13 L0 566.37 L44.39 591.81 L44.39 612 Z" class="st18"/></g><g id="shape252-780" transform="translate(1.64544,-39.6199)"><title>Sheet.252</title><path d="M2.25 610.07 A1.30526 1.30526 -180 0 0 0.77 609.09 A1.30943 1.30943 -180 0 0 0.27 610.82 A1.30342 1.30342 -180 0 0 1.75 611.8 A1.3082 1.3082 -180 0 0 2.25 610.07 Z" class="st19"/></g><g id="shape253-783" transform="translate(7.23065,-30.3)"><title>Sheet.253</title><path d="M6.43 606.49 A3.72217 3.72217 -180 0 0 2.21 603.68 A3.73404 3.73404 -180 0 0 0.77 608.62 A3.72292 3.72292 -180 0 0 4.99 611.42 A3.73751 3.73751 -180 0 0 6.43 606.49 Z" class="st19"/></g><g id="shape254-786" transform="translate(7.23065,-20.9653)"><title>Sheet.254</title><path d="M6.43 606.49 A3.72217 3.72217 -180 0 0 2.21 603.68 A3.73404 3.73404 -180 0 0 0.77 608.62 A3.72292 3.72292 -180 0 0 4.99 611.42 A3.73751 3.73751 -180 0 0 6.43 606.49 Z" class="st19"/></g><g id="shape255-789" transform="translate(9.02933,-32.7011)"><title>Sheet.255</title><path d="M3.21 609.24 A1.86004 1.86004 -180 0 0 1.1 607.84 A1.86694 1.86694 -180 0 0 0.38 610.31 A1.86041 1.86041 -180 0 0 2.5 611.71 A1.86777 1.86777 -180 0 0 3.21 609.24 Z" class="st20"/></g><g id="shape256-792" transform="translate(9.02933,-23.3663)"><title>Sheet.256</title><path d="M3.21 609.24 A1.86004 1.86004 -180 0 0 1.1 607.84 A1.86787 1.86787 -180 0 0 0.38 610.31 A1.86041 1.86041 -180 0 0 2.5 611.71 A1.86777 1.86777 -180 0 0 3.21 609.24 Z" class="st20"/></g><g id="shape257-795" transform="translate(15.5435,-17.668)"><title>Sheet.257</title><path d="M0 610.05 L0.1 594.14 L3.65 596.09 L3.55 612 L0 610.05 Z" class="st21"/></g><g id="shape258-798" transform="translate(20.3657,-14.8062)"><title>Sheet.258</title><path d="M0 610.05 L0.1 594.14 L3.65 596.09 L3.55 612 L0 610.05 Z" class="st21"/></g><g id="shape259-801" transform="translate(25.1868,-11.9433)"><title>Sheet.259</title><path d="M0 610.05 L0.1 594.14 L3.65 596.09 L3.55 612 L0 610.05 Z" class="st21"/></g><g id="shape260-804" transform="translate(30.009,-9.08151)"><title>Sheet.260</title><path d="M0 610.05 L0.1 594.14 L3.65 596.09 L3.55 612 L0 610.05 Z" class="st21"/></g><g id="shape261-807" transform="translate(16.446,-20.1198)"><title>Sheet.261</title><path d="M1.7 611.38 a0.774788 0.774788 0 0 1 -0.848613 0.616116 A1.27344 1.27344 0 0 1 0 610.86 L0 599.93 a0.773543 0.773543 0 0 1 0.847556 -0.616116 A1.27281 1.27281 0 0 1 1.7 600.46 L1.7 611.38 Z" class="st22"/></g><g id="shape262-810" transform="translate(21.2671,-17.258)"><title>Sheet.262</title><path d="M1.7 611.38 a0.774788 0.774788 0 0 1 -0.848613 0.616116 A1.27344 1.27344 0 0 1 0 610.86 L0 599.93 a0.773543 0.773543 0 0 1 0.847556 -0.616116 A1.27281 1.27281 0 0 1 1.7 600.46 L1.7 611.38 Z" class="st22"/></g><g id="shape263-813" transform="translate(26.0893,-14.3951)"><title>Sheet.263</title><path d="M1.7 611.38 a0.774788 0.774788 0 0 1 -0.848613 0.616116 A1.27344 1.27344 0 0 1 0 610.86 L0 599.93 a0.773543 0.773543 0 0 1 0.847556 -0.616116 A1.27281 1.27281 0 0 1 1.7 600.46 L1.7 611.38 Z" class="st22"/></g><g id="shape264-816" transform="translate(30.9104,-11.5333)"><title>Sheet.264</title><path d="M1.7 611.38 a0.775394 0.775394 0 0 1 -0.84967 0.616116 A1.27409 1.27409 0 0 1 0 610.86 L0 599.93 a0.772939 0.772939 0 0 1 0.846499 -0.616116 A1.27382 1.27382 0 0 1 1.7 600.46 L1.7 611.38 Z" class="st22"/></g><g id="shape265-819" transform="translate(15.5435,-19.6189)"><title>Sheet.265</title><path d="M0 612 L0.1 596.09 L3.65 598.04 L0 612 Z" class="st23"/><path d="M0 612 L0.1 596.09 L3.65 598.04" class="st24"/></g><g id="shape266-822" transform="translate(20.3657,-16.7571)"><title>Sheet.266</title><path d="M0 612 L0.1 596.09 L3.65 598.04 L0 612 Z" class="st23"/><path d="M0 612 L0.1 596.09 L3.65 598.04" class="st24"/></g><g id="shape267-825" transform="translate(25.1868,-13.8942)"><title>Sheet.267</title><path d="M0 612 L0.1 596.09 L3.65 598.04 L0 612 Z" class="st23"/><path d="M0 612 L0.1 596.09 L3.65 598.04" class="st24"/></g><g id="shape268-828" transform="translate(30.009,-11.0324)"><title>Sheet.268</title><path d="M0 612 L0.1 596.09 L3.65 598.04 L0 612 Z" class="st23"/><path d="M0 612 L0.1 596.09 L3.65 598.04" class="st24"/></g><g id="shape269-831" transform="translate(15.5435,-9.08151)"><title>Sheet.269</title><path d="M18.12 596.09 L18.02 612 L14.47 610.05 L18.12 596.09 ZM13.3 593.23 L13.2 609.14 L9.64 607.19 L13.3 593.23 ZM8.48 590.36 L8.38 606.28 L4.82 604.32 L8.48 590.36 ZM3.65 587.5 L3.55 603.41 L0 601.46 L3.65 587.5 Z" class="st23"/><path d="M18.12 596.09 L18.02 612 L14.47 610.05M13.3 593.23 L13.2 609.14 L9.64 607.19M8.48 590.36 L8.38 606.28 L4.82 604.32M3.65 587.5 L3.55 603.41 L0 601.46" class="st25"/></g><g id="shape270-834" transform="translate(4.43329,-23.677)"><title>Sheet.270</title><path d="M0 610.61 L1.26 609.75 L2.84 610.48 L0.07 612 L0 610.61 Z" class="st26"/></g><g id="shape271-837" transform="translate(34.288,-6.37186)"><title>Sheet.271</title><path d="M0 610.61 L1.26 609.75 L2.84 610.48 L0.07 612 L0 610.61 Z" class="st26"/></g><g id="shape272-840" transform="translate(2.91466,-20.7708)"><title>Sheet.272</title><path d="M4.23 609.62 L0 612 L0 594.03 L4.23 591.52 L4.23 593.77 L1.59 595.24 L1.59 609.09 L4.36 607.57 L4.23 609.62 Z" class="st17"/></g><g id="shape273-843" transform="translate(32.7694,-3.46565)"><title>Sheet.273</title><path d="M4.23 609.62 L0 612 L0 594.03 L4.23 591.52 L4.23 593.77 L1.59 595.24 L1.59 609.09 L4.36 607.57 L4.23 609.62 Z" class="st17"/></g><g id="shape274-846" transform="translate(0.933157,-20.7708)"><title>Sheet.274</title><path d="M1.98 594.03 L6.21 591.52 L4.23 590.27 L0 592.78 L0 610.74 L1.98 612 L1.98 594.03 Z" class="st27"/></g><g id="shape275-849" transform="translate(30.7878,-3.46565)"><title>Sheet.275</title><path d="M1.98 594.03 L6.21 591.52 L4.23 590.27 L0 592.78 L0 610.74 L1.98 612 L1.98 594.03 Z" class="st27"/></g><g id="shape276-852" transform="translate(0.933157,-3.46671)"><title>Sheet.276</title><path d="M34.61 606.85 L33.42 607.66 L33.42 595.24 L36.06 593.77 L36.06 591.52 L34.08 590.27 L29.85 592.78 L29.85 610.74 L31.84 612 L36.06 609.62 L36.2 607.57 L34.61 606.85 ZM4.76 589.54 L3.57 590.36 L3.57 577.93 L6.21 576.46 L6.21 574.22 L4.23 572.96 L0 575.47 L0 593.44 L1.98 594.69 L6.21 592.32 L6.34 590.27 L4.76 589.54 Z" class="st28"/></g><g id="shape277-854" transform="translate(39.8225,-17.4271)"><title>Sheet.277</title><path d="M2.25 610.07 A1.30526 1.30526 -180 0 0 0.77 609.09 A1.30943 1.30943 -180 0 0 0.27 610.82 A1.30342 1.30342 -180 0 0 1.75 611.8 A1.3082 1.3082 -180 0 0 2.25 610.07 Z" class="st19"/></g><g id="shape278-857" transform="translate(39.8225,-4.74544)"><title>Sheet.278</title><path d="M2.25 610.07 A1.30526 1.30526 -180 0 0 0.77 609.09 A1.30943 1.30943 -180 0 0 0.27 610.82 A1.30342 1.30342 -180 0 0 1.75 611.8 A1.3082 1.3082 -180 0 0 2.25 610.07 Z" class="st19"/></g><g id="shape279-860" transform="translate(0,-0.864861)"><title>Sheet.279</title><path d="M72 589.52 L72 569.54 L39.2 550.73 L6.31 569.25 L6.31 570.04 L0 566.37 L0 586.13 L0.93 586.68 L0.93 590.84 L2.91 592.09 L6.64 590 L30.79 604.07 L30.79 608.14 L32.77 609.4 L36.41 607.35 L44.39 612 L44.39 605.47 L72 589.52 Z" class="st28"/></g><g id="shape280-862" transform="translate(51.6383,-18.2376)"><title>Sheet.280</title><ellipse cx="6.557" cy="608.921" class="st29" rx="6.557" ry="3.079"/></g><g id="shape281-865" transform="translate(51.6377,-6.3052)"><title>Sheet.281</title><path d="M0 596.99 L0 609 A6.56035 3.10726 -180 0 0 13.11 609.05 L13.11 596.99 A6.55723 3.10579 0 1 1 0 596.99 Z" class="st30"/></g><g id="shape282-868" transform="translate(51.67,-6.34364)"><title>Sheet.282</title><path d="M13 596.99 A6.50146 3.07937 -180 1 0 0 597.02 L0 609 A6.50455 3.10726 -180 0 0 13 609.05 L13 596.99" class="st31"/></g><g id="shape247-871"><text x="11.97" y="626.8" class="st32">NY-SQL04</text></g></g><g id="group283-874" transform="translate(67.5,-126)"><title>Boundary.283</title><g id="shape284-875"><title>Sheet.284</title><rect width="670.5" height="113.824" x="0" y="498.176" class="st50" rx="9" ry="9"/></g></g><g id="shape285-877" transform="translate(246.375,-207)"><title>Sheet.285</title><desc>Stack Exchange Network Cluster</desc><rect width="239.625" height="36" x="0" y="576" class="st12"/><text x="13.07" y="598.8" class="st51">Stack Exchange Network Cluster</text></g><g id="shape286-880" transform="translate(376.875,-135)"><title>Sheet.286</title><desc>4 Availability Groups 301 Databases 1.7 TB Data 3k-8k batches...</desc><rect width="127.125" height="72" x="0" y="540" class="st55"/><text x="22.85" y="550.8" class="st56">4 Availability Groups<tspan x="51.86" class="st57" dy="1.2em">301 </tspan>Databases<tspan x="67.23" class="st57" dy="1.2em">1</tspan>.7 TB Data<tspan x="35.18" class="st57" dy="1.2em">3</tspan>k-8k batches/sec</text></g><g id="shape287-886" transform="translate(228.176,-135)"><title>Sheet.287</title><desc>Dell R730xd 2x 8 Core @ 3.20 GHz (20MB) 768 GB RAM 3.6 TB 2xP...</desc><rect width="174.574" height="72" x="0" y="540" class="st55"/><text x="4" y="550.8" class="st56">Dell R730xd<tspan x="4" class="st57" dy="1.2em">2</tspan>x 8 Core @ 3.20 GHz <tspan class="st62">(</tspan><tspan class="st62">20</tspan><tspan class="st62">MB</tspan><tspan class="st62">)</tspan><tspan x="4" class="st57" dy="1.2em">768 </tspan>GB RAM<tspan x="4" class="st57" dy="1.2em">3</tspan>.6 TB 2xPCIe NVMe SSD - RAID 0<tspan x="4" class="st57" dy="1.2em">13 </tspan>TB 24x10k 1.2TB  RAID 10</text></g><g id="shape288-897" transform="translate(247.5,-500.063)"><title>Sheet.288</title><desc>Windows 2012 Server Core SQL Server 2014 CU5</desc><rect width="225" height="25.875" x="0" y="586.125" class="st12"/><text x="46.39" y="588.26" class="st32">Windows 2012 Server Core<tspan x="61.24" class="st57" dy="1.2em">SQL Server </tspan>2014 CU5</text></g><g id="shape294-901" transform="translate(357.188,-261)"><title>Dynamic connector</title><path d="M9 612 L9 622.96" class="st69"/></g></g></svg>