<svg class="stackoverflow-logo" viewBox="0 0 400 116" enable-background="new 0 0 400 116" height="100px">
  <g class="so-text">
    <path d="M94.4,92.2c-4.6,0-8.2-1.1-11.2-3.9l2.7-2.7c2.2,2.3,5.1,3.2,8.5,3.2c4.5,0,7.2-1.6,7.2-4.8
        c0-2.4-1.4-3.7-4.5-4l-4.5-0.4c-5.3-0.4-8.1-2.8-8.1-7.3c0-5,4.2-8,10-8c3.9,0,7.4,0.9,9.8,2.9l-2.6,2.6c-1.9-1.5-4.4-2.2-7.2-2.2
        c-4,0-6.1,1.7-6.1,4.5c0,2.3,1.3,3.7,4.8,4l4.4,0.4c4.8,0.4,8,2.3,8,7.4C105.5,89.2,101,92.2,94.4,92.2z"/>
    <path d="M117.6,91.9c-4.6,0-7-3.3-7-7.3V67.9h-3.4v-3h3.4v-8.5h4v8.5h5.8v3h-5.8v16.6c0,2.5,1.2,4,3.7,4h2.1v3.4
        H117.6z"/>
    <path d="M141,91.9v-2.6c-2.2,2.2-4.2,2.9-7.9,2.9c-3.8,0-6-0.7-7.7-2.5c-1.3-1.3-2-3.4-2-5.5c0-4.8,3.3-7.9,9.4-7.9
        h8.2v-2.6c0-4-2-6-7-6c-3.5,0-5.3,0.8-6.9,3.1l-2.7-2.5c2.4-3.2,5.2-4,9.6-4c7.3,0,10.9,3.2,10.9,9.1v18.5H141z M141,79.3h-7.6
        c-4.1,0-6.1,1.7-6.1,4.8c0,3.2,1.9,4.6,6.3,4.6c2.3,0,4.4-0.2,6.1-1.8c0.9-0.9,1.4-2.4,1.4-4.7V79.3z"/>
    <path d="M160.6,92.2c-6.9,0-12.1-4.6-12.1-13.9c0-9.3,5.2-13.9,12.1-13.9c3.8,0,6.1,1,9,4l-2.7,2.5
        c-2-2.3-3.7-3-6.3-3c-2.7,0-4.9,1.1-6.3,3.1c-1.3,1.8-1.8,3.9-1.8,7.3c0,3.4,0.5,5.5,1.8,7.3c1.4,2,3.7,3.1,6.3,3.1
        c2.6,0,4.2-0.8,6.3-3.1l2.7,2.6C166.7,91.2,164.4,92.2,160.6,92.2z"/>
    <path d="M191.4,91.9l-8.6-13.9l-5.3,6.1v7.9h-4V52.5h4v26.3l12.3-14.2h5l-9.2,10.4l10.8,16.8H191.4z"/>
    <path d="M217.7,88.9c-1.7,1.8-4.5,3.4-8.5,3.4c-4,0-6.8-1.6-8.4-3.4c-2.5-2.6-3.1-5.7-3.1-10.6
        c0-4.9,0.6-8,3.1-10.6c1.7-1.8,4.4-3.4,8.4-3.4c4,0,6.8,1.6,8.5,3.4c2.5,2.6,3.1,5.7,3.1,10.6C220.8,83.2,220.1,86.3,217.7,88.9z
         M212.4,71.6c-0.8-0.8-1.8-1.2-3.2-1.2s-2.4,0.4-3.1,1.2c-1.4,1.4-1.6,3.8-1.6,6.6c0,2.8,0.2,5.2,1.6,6.7c0.8,0.8,1.8,1.2,3.1,1.2
        s2.4-0.4,3.2-1.2c1.4-1.4,1.6-3.8,1.6-6.7C213.9,75.4,213.8,73,212.4,71.6z"/>
    <path d="M236.1,91.9h-5.3l-10.1-27.3h7.2l5.6,16.9l5.5-16.9h7.2L236.1,91.9z"/>
    <path d="M252.5,80.4c0,3.5,2.1,6.1,6,6.1c3,0,4.5-0.8,6.2-2.6l4.1,4c-2.8,2.8-5.5,4.3-10.4,4.3
        c-6.5,0-12.6-2.9-12.6-14c0-8.9,4.8-13.9,11.9-13.9c7.6,0,11.9,5.6,11.9,13.1v3H252.5z M262.3,72.8c-0.7-1.6-2.3-2.8-4.6-2.8
        c-2.3,0-3.8,1.2-4.6,2.8c-0.4,1-0.6,1.7-0.6,2.9h10.4C262.8,74.5,262.7,73.8,262.3,72.8z"/>
    <path d="M287.8,72c-1-1-1.9-1.6-3.6-1.6c-2.1,0-4.4,1.6-4.4,5v16.5H273V64.6h6.7v2.6c1.3-1.6,3.9-2.9,6.9-2.9
        c2.7,0,4.6,0.7,6.5,2.6L287.8,72z"/>
    <path d="M304.5,69.8v22.1h-6.8V69.8h-2.8v-5.2h2.8v-3.4c0-3.9,2.4-7.8,8-7.8h3.9v5.8h-2.6c-1.6,0-2.4,0.9-2.4,2.5v3
        h5v5.2H304.5z M320.8,91.9c-5.6,0-8-3.9-8-7.8V53.4h6.8v30.3c0,1.6,0.7,2.5,2.4,2.5h2.6v5.8H320.8z"/>
    <path d="M345.6,88.9c-1.7,1.8-4.5,3.4-8.5,3.4c-4,0-6.8-1.6-8.4-3.4c-2.5-2.6-3.1-5.7-3.1-10.6
        c0-4.9,0.6-8,3.1-10.6c1.7-1.8,4.4-3.4,8.4-3.4c4,0,6.8,1.6,8.5,3.4c2.5,2.6,3.1,5.7,3.1,10.6C348.7,83.2,348.1,86.3,345.6,88.9z
         M340.3,71.6c-0.8-0.8-1.8-1.2-3.2-1.2c-1.4,0-2.4,0.4-3.1,1.2c-1.4,1.4-1.6,3.8-1.6,6.6c0,2.8,0.2,5.2,1.6,6.7
        c0.8,0.8,1.8,1.2,3.1,1.2c1.4,0,2.4-0.4,3.2-1.2c1.4-1.4,1.6-3.8,1.6-6.7C341.9,75.4,341.8,73,340.3,71.6z"/>
    <path d="M379.3,91.9h-5.6L368,74.8l-5.7,17.1h-5.6l-8.4-27.3h7.2l4.4,16.9l5.6-16.9h5l5.6,16.9l4.4-16.9h7.2
        L379.3,91.9z"/>
  </g>
  <g>
    <rect x="26.3" y="58" transform="matrix(0.9718 0.2357 -0.2357 0.9718 15.6501 -8.3368)" fill="#BF9452" width="32.8" height="6.6"/>
    <rect x="30.5" y="47" transform="matrix(0.8905 0.455 -0.455 0.8905 28.0333 -15.8267)" fill="#D28B29" width="32.8" height="6.6"/>
    <rect x="37.9" y="36.2" transform="matrix(0.7531 0.6579 -0.6579 0.7531 39.4192 -25.9804)" fill="#F68A1F" width="32.8" height="6.6"/>
    <rect x="48.4" y="27.1" transform="matrix(0.5616 0.8274 -0.8274 0.5616 53.5922 -40.3072)" fill="#F47920" width="32.8" height="6.6"/>
    <rect x="24.7" y="68.9" transform="matrix(0.9985 5.452314e-02 -5.452314e-02 0.9985 3.9961 -2.1364)" fill="#A68A6E" width="32.8" height="6.6"/>
    <polygon fill="#818185" points="64.2,91.8 64.2,64.6 70.7,64.6 70.7,98.4 11.4,98.4 11.4,64.6 17.9,64.6 17.9,91.8     "/>
    <rect x="24.5" y="78.7" fill="#818185" width="33.1" height="6.6"/>
  </g>
</svg>