<svg xmlns="http://www.w3.org/2000/svg" xmlns:xlink="http://www.w3.org/1999/xlink" width="1200" height="600" x="0" y="0" version="1.2" viewBox="0 0 1200 600" xml:space="preserve"><defs><filter id="blur"><feGaussianBlur in="SourceGraphic" stdDeviation="4"/></filter><g id="icon-redis"><g><path fill="#A41E11" d="M91.3,30.9c-5.1,2.6-31.3,13.4-36.9,16.4c-5.6,2.9-8.7,2.9-13.1,0.8C36.8,45.9,8.9,34.6,3.8,32.2 C1.3,31,0,30,0,29v-9.6c0,0,36.4-7.9,42.3-10c5.9-2.1,7.9-2.2,12.9-0.4c5,1.8,34.9,7.2,39.8,9c0,0,0,8.6,0,9.5 C95,28.5,93.9,29.5,91.3,30.9L91.3,30.9z"/><path fill="#D82C20" d="M91.3,21.3c-5.1,2.6-31.3,13.4-36.9,16.4c-5.6,2.9-8.7,2.9-13.1,0.8C36.8,36.3,8.9,25,3.8,22.6 s-5.1-4.1-0.2-6C8.6,14.7,36.4,3.8,42.3,1.7c5.9-2.1,7.9-2.2,12.9-0.4c5,1.8,31.1,12.2,36,14C96.2,17.1,96.3,18.6,91.3,21.3 L91.3,21.3z"/><polygon fill="#FFF" points="59.9 12 51.7 12.9 49.9 17.3 46.9 12.4 37.4 11.5 44.5 9 42.4 5 49 7.6 55.3 5.6 53.6 9.6"/><polygon fill="#FFF" points="49.4 33.5 34 27.2 56 23.8"/><ellipse cx="28.1" cy="19.1" fill="#FFF" rx="11.8" ry="4.6"/><polygon fill="#7A0C00" points="69.7 13.2 82.7 18.4 69.7 23.5"/><polygon fill="#AD2115" points="55.3 18.9 69.7 13.2 69.7 23.5 68.3 24.1"/></g></g><g id="haproxy"><path fill="#CBD1D3" d="M91.3,41.2c-5.1,2.6-31.3,13.4-36.9,16.4c-5.6,2.9-8.7,2.9-13.1,0.8C36.8,56.3,8.9,45,3.8,42.6 s-5.1-4.1-0.2-6c4.9-1.9,32.7-12.8,38.6-14.9c5.9-2.1,7.9-2.2,12.9-0.4c5,1.8,31.1,12.2,36,14C96.2,37.1,96.3,38.6,91.3,41.2 L91.3,41.2z"/><g><path fill="#414C59" d="M91.3,30.9c-5.1,2.6-31.3,13.4-36.9,16.4c-5.6,2.9-8.7,2.9-13.1,0.8C36.8,45.9,8.9,34.6,3.8,32.2 C1.3,31,0,30,0,29v-9.6c0,0,36.4-7.9,42.3-10c5.9-2.1,7.9-2.2,12.9-0.4c5,1.8,34.9,7.2,39.8,9c0,0,0,8.6,0,9.5 C95,28.5,93.9,29.5,91.3,30.9L91.3,30.9z"/><path fill="#5A6476" d="M91.3,21.3c-5.1,2.6-31.3,13.4-36.9,16.4c-5.6,2.9-8.7,2.9-13.1,0.8C36.8,36.3,8.9,25,3.8,22.6 s-5.1-4.1-0.2-6C8.6,14.7,36.4,3.8,42.3,1.7c5.9-2.1,7.9-2.2,12.9-0.4c5,1.8,31.1,12.2,36,14C96.2,17.1,96.3,18.6,91.3,21.3 L91.3,21.3z"/><g opacity=".9"><g><g><defs><polygon id="haproxy_poly" points="15.7 19.8 46.5 5 79.2 18.9 48.5 33.7" enable-background="new"/></defs><clipPath id="haproxy_clip"><use overflow="visible" xlink:href="#haproxy_poly"/></clipPath><g clip-path="url(#haproxy_clip)"><path fill="#FFF" d="M78.6,18.6L72.4,16c-0.4-0.2-1-0.2-1.3,0l-4.9,2.4l-11.7,0.5l-3.1-1.3l-2.6-1.1l-0.3-3.1l4.5-2.2 c0.3-0.2,0.3-0.4,0-0.5l-5.6-2.4c-0.3-0.1-0.9-0.1-1.2,0l-5.3,2.6c-0.3,0.2-0.3,0.4,0,0.5l4.8,2l1.2,2.9 c-0.8,0.4-2.2,1.1-3.6,1.7c-0.5,0.3-0.9,0.6-1,1l-12.4,0.1l-6.2-2.6c-0.4-0.2-1-0.2-1.4,0l-5.9,2.9c-0.4,0.2-0.3,0.5,0,0.6 l6.3,2.7c0.4,0.2,1,0.2,1.4,0l5.2-2.5L42.1,20c0,0.9,0.5,1.8,0.5,1.8s2.5,0.2,4.8,0.1l-1.9,3.6l-3.8,1.8 c-0.3,0.2-0.3,0.4,0,0.5l5.6,2.4c0.3,0.1,0.9,0.1,1.2,0l5.3-2.6c0.3-0.2,0.3-0.4,0-0.5l-4.4-1.9l-1.2-3.4 c1-0.1,1.9-0.3,2.5-0.6c1.2-0.6,2.5-1.2,3.3-1.6l12.2,0.2l5.2,2.2c0.4,0.2,1,0.1,1.3,0l5.8-2.8C79,19.1,78.9,18.8,78.6,18.6"/></g></g></g></g></g></g><g id="server"><path fill="#39424F" d="M35.7,115.3h15.3v5.8c0,1.1-0.9,2.1-2.1,2.1H37.7c-1.1,0-2.1-0.9-2.1-2.1V115.3z"/><path fill="#39424F" d="M37.7,19.3H49c1.1,0,2.1,0.9,2.1,2.1v5.8H35.7v-5.8C35.7,20.2,36.6,19.3,37.7,19.3z"/><path fill="#485261" d="M34,23.1h18.7v95.7H34V23.1z"/><path fill="#5B6576" d="M58,26.7L52.6,23v95.7l5.5-3V26.7z"/><path fill="#5B6576" d="M28.7,26.7l5.5-3.8v95.7l-5.5-3V26.7z"/><path fill="#A8B2C0" d="M48.6,120.1c0.4,0,0.7,0.3,0.7,0.7c0,0.4-0.3,0.7-0.7,0.7c-0.4,0-0.7-0.3-0.7-0.7 C47.9,120.4,48.2,120.1,48.6,120.1z"/><path fill="#A8B2C0" d="M37.7,120.1c0.4,0,0.7,0.3,0.7,0.7c0,0.4-0.3,0.7-0.7,0.7s-0.7-0.3-0.7-0.7 C37.1,120.4,37.4,120.1,37.7,120.1z"/><path fill="#A8B2C0" d="M48.6,21c0.4,0,0.7,0.3,0.7,0.7c0,0.4-0.3,0.7-0.7,0.7c-0.4,0-0.7-0.3-0.7-0.7C47.8,21.3,48.2,21,48.6,21z"/><path fill="#A8B2C0" d="M37.7,21c0.4,0,0.7,0.3,0.7,0.7c0,0.4-0.3,0.7-0.7,0.7s-0.7-0.3-0.7-0.7C37,21.3,37.4,21,37.7,21z"/><path fill="#444C5B" d="M53.7,114.2h0.7v-2.1h-0.7V114.2z"/><path fill="#444C5B" d="M55,114.2h0.7v-2.1H55V114.2z"/><path fill="#444C5B" d="M56.3,114.2H57v-2.1h-0.7V114.2z"/><path fill="#444C5B" d="M53.7,111.6h0.7v-2.1h-0.7V111.6z"/><path fill="#444C5B" d="M55,111.6h0.7v-2.1H55V111.6z"/><path fill="#444C5B" d="M56.3,111.6H57v-2.1h-0.7V111.6z"/><path fill="#444C5B" d="M53.7,108.9h0.7v-2.1h-0.7V108.9z"/><path fill="#444C5B" d="M55,108.9h0.7v-2.1H55V108.9z"/><path fill="#444C5B" d="M56.3,108.9H57v-2.1h-0.7V108.9z"/><path fill="#444C5B" d="M53.7,106.1h0.7V104h-0.7V106.1z"/><path fill="#444C5B" d="M55,106.1h0.7V104H55V106.1z"/><path fill="#444C5B" d="M56.3,106.1H57V104h-0.7V106.1z"/><path fill="#444C5B" d="M53.7,103.4h0.7v-2.1h-0.7V103.4z"/><path fill="#444C5B" d="M55,103.4h0.7v-2.1H55V103.4z"/><path fill="#444C5B" d="M56.3,103.4H57v-2.1h-0.7V103.4z"/><path fill="#444C5B" d="M53.7,100.7h0.7v-2.1h-0.7V100.7z"/><path fill="#444C5B" d="M55,100.7h0.7v-2.1H55V100.7z"/><path fill="#444C5B" d="M56.3,100.7H57v-2.1h-0.7V100.7z"/><path fill="#444C5B" d="M53.7,98h0.7v-2.1h-0.7V98z"/><path fill="#444C5B" d="M55,98h0.7v-2.1H55V98z"/><path fill="#444C5B" d="M56.3,98H57v-2.1h-0.7V98z"/><path fill="#444C5B" d="M53.7,95.3h0.7v-2.1h-0.7V95.3z"/><path fill="#444C5B" d="M55,95.3h0.7v-2.1H55V95.3z"/><path fill="#444C5B" d="M56.3,95.3H57v-2.1h-0.7V95.3z"/><path fill="#444C5B" d="M53.7,92.5h0.7v-2.1h-0.7V92.5z"/><path fill="#444C5B" d="M55,92.5h0.7v-2.1H55V92.5z"/><path fill="#444C5B" d="M56.3,92.5H57v-2.1h-0.7V92.5z"/><path fill="#444C5B" d="M53.7,89.9h0.7v-2.1h-0.7V89.9z"/><path fill="#444C5B" d="M55,89.9h0.7v-2.1H55V89.9z"/><path fill="#444C5B" d="M56.3,89.9H57v-2.1h-0.7V89.9z"/><path fill="#444C5B" d="M53.7,87.2h0.7v-2.1h-0.7V87.2z"/><path fill="#444C5B" d="M55,87.2h0.7v-2.1H55V87.2z"/><path fill="#444C5B" d="M56.3,87.2H57v-2.1h-0.7V87.2z"/><path fill="#444C5B" d="M53.7,84.4h0.7v-2.1h-0.7V84.4z"/><path fill="#444C5B" d="M55,84.4h0.7v-2.1H55V84.4z"/><path fill="#444C5B" d="M56.3,84.4H57v-2.1h-0.7V84.4z"/><path fill="#444C5B" d="M53.7,81.7h0.7v-2.1h-0.7V81.7z"/><path fill="#444C5B" d="M55,81.7h0.7v-2.1H55V81.7z"/><path fill="#444C5B" d="M56.3,81.7H57v-2.1h-0.7V81.7z"/><path fill="#444C5B" d="M53.7,79h0.7V77h-0.7V79z"/><path fill="#444C5B" d="M55,79h0.7V77H55V79z"/><path fill="#444C5B" d="M56.3,79H57V77h-0.7V79z"/><path fill="#444C5B" d="M53.7,76.3h0.7v-2.1h-0.7V76.3z"/><path fill="#444C5B" d="M55,76.3h0.7v-2.1H55V76.3z"/><path fill="#444C5B" d="M56.3,76.3H57v-2.1h-0.7V76.3z"/><path fill="#444C5B" d="M53.7,73.6h0.7v-2.1h-0.7V73.6z"/><path fill="#444C5B" d="M55,73.6h0.7v-2.1H55V73.6z"/><path fill="#444C5B" d="M56.3,73.6H57v-2.1h-0.7V73.6z"/><path fill="#444C5B" d="M53.7,70.8h0.7v-2.1h-0.7V70.8z"/><path fill="#444C5B" d="M55,70.8h0.7v-2.1H55V70.8z"/><path fill="#444C5B" d="M56.3,70.8H57v-2.1h-0.7V70.8z"/><path fill="#444C5B" d="M53.7,68.2h0.7v-2.1h-0.7V68.2z"/><path fill="#444C5B" d="M55,68.2h0.7v-2.1H55V68.2z"/><path fill="#444C5B" d="M56.3,68.2H57v-2.1h-0.7V68.2z"/><path fill="#444C5B" d="M53.7,65.4h0.7v-2.1h-0.7V65.4z"/><path fill="#444C5B" d="M55,65.4h0.7v-2.1H55V65.4z"/><path fill="#444C5B" d="M56.3,65.4H57v-2.1h-0.7V65.4z"/><path fill="#444C5B" d="M53.7,62.7h0.7v-2.1h-0.7V62.7z"/><path fill="#444C5B" d="M55,62.7h0.7v-2.1H55V62.7z"/><path fill="#444C5B" d="M56.3,62.7H57v-2.1h-0.7V62.7z"/><path fill="#444C5B" d="M53.7,60h0.7v-2.1h-0.7V60z"/><path fill="#444C5B" d="M55,60h0.7v-2.1H55V60z"/><path fill="#444C5B" d="M56.3,60H57v-2.1h-0.7V60z"/><path fill="#444C5B" d="M53.7,57.3h0.7v-2.1h-0.7V57.3z"/><path fill="#444C5B" d="M55,57.3h0.7v-2.1H55V57.3z"/><path fill="#444C5B" d="M56.3,57.3H57v-2.1h-0.7V57.3z"/><path fill="#444C5B" d="M53.7,54.6h0.7v-2.1h-0.7V54.6z"/><path fill="#444C5B" d="M55,54.6h0.7v-2.1H55V54.6z"/><path fill="#444C5B" d="M56.3,54.6H57v-2.1h-0.7V54.6z"/><path fill="#444C5B" d="M53.7,51.9h0.7v-2.1h-0.7V51.9z"/><path fill="#444C5B" d="M55,51.9h0.7v-2.1H55V51.9z"/><path fill="#444C5B" d="M56.3,51.9H57v-2.1h-0.7V51.9z"/><path fill="#444C5B" d="M53.7,49.1h0.7V47h-0.7V49.1z"/><path fill="#444C5B" d="M55,49.1h0.7V47H55V49.1z"/><path fill="#444C5B" d="M56.3,49.1H57V47h-0.7V49.1z"/><path fill="#444C5B" d="M53.7,46.5h0.7v-2.1h-0.7V46.5z"/><path fill="#444C5B" d="M55,46.5h0.7v-2.1H55V46.5z"/><path fill="#444C5B" d="M56.3,46.5H57v-2.1h-0.7V46.5z"/><path fill="#444C5B" d="M53.7,43.7h0.7v-2.1h-0.7V43.7z"/><path fill="#444C5B" d="M55,43.7h0.7v-2.1H55V43.7z"/><path fill="#444C5B" d="M56.3,43.7H57v-2.1h-0.7V43.7z"/><path fill="#444C5B" d="M53.7,41h0.7v-2.1h-0.7V41z"/><path fill="#444C5B" d="M55,41h0.7v-2.1H55V41z"/><path fill="#444C5B" d="M56.3,41H57v-2.1h-0.7V41z"/><path fill="#444C5B" d="M53.7,38.3h0.7v-2.1h-0.7V38.3z"/><path fill="#444C5B" d="M55,38.3h0.7v-2.1H55V38.3z"/><path fill="#444C5B" d="M56.3,38.3H57v-2.1h-0.7V38.3z"/><path fill="#444C5B" d="M53.7,35.6h0.7v-2.1h-0.7V35.6z"/><path fill="#444C5B" d="M55,35.6h0.7v-2.1H55V35.6z"/><path fill="#444C5B" d="M56.3,35.6H57v-2.1h-0.7V35.6z"/><path fill="#444C5B" d="M53.7,32.9h0.7v-2.1h-0.7V32.9z"/><path fill="#444C5B" d="M55,32.9h0.7v-2.1H55V32.9z"/><path fill="#444C5B" d="M56.3,32.9H57v-2.1h-0.7V32.9z"/><path fill="#444C5B" d="M53.7,30.1h0.7v-2.1h-0.7V30.1z"/><path fill="#444C5B" d="M55,30.1h0.7v-2.1H55V30.1z"/><path fill="#444C5B" d="M56.3,30.1H57v-2.1h-0.7V30.1z"/><path fill="#444C5B" d="M33.3,114.2h-0.7v-2.1h0.7V114.2z"/><path fill="#444C5B" d="M32,114.2h-0.7v-2.1H32V114.2z"/><path fill="#444C5B" d="M30.6,114.2h-0.7v-2.1h0.7V114.2z"/><path fill="#444C5B" d="M33.3,111.6h-0.7v-2.1h0.7V111.6z"/><path fill="#444C5B" d="M32,111.6h-0.7v-2.1H32V111.6z"/><path fill="#444C5B" d="M30.6,111.6h-0.7v-2.1h0.7V111.6z"/><path fill="#444C5B" d="M33.3,108.9h-0.7v-2.1h0.7V108.9z"/><path fill="#444C5B" d="M32,108.9h-0.7v-2.1H32V108.9z"/><path fill="#444C5B" d="M30.6,108.9h-0.7v-2.1h0.7V108.9z"/><path fill="#444C5B" d="M33.3,106.1h-0.7V104h0.7V106.1z"/><path fill="#444C5B" d="M32,106.1h-0.7V104H32V106.1z"/><path fill="#444C5B" d="M30.6,106.1h-0.7V104h0.7V106.1z"/><path fill="#444C5B" d="M33.3,103.4h-0.7v-2.1h0.7V103.4z"/><path fill="#444C5B" d="M32,103.4h-0.7v-2.1H32V103.4z"/><path fill="#444C5B" d="M30.6,103.4h-0.7v-2.1h0.7V103.4z"/><path fill="#444C5B" d="M33.3,100.7h-0.7v-2.1h0.7V100.7z"/><path fill="#444C5B" d="M32,100.7h-0.7v-2.1H32V100.7z"/><path fill="#444C5B" d="M30.6,100.7h-0.7v-2.1h0.7V100.7z"/><path fill="#444C5B" d="M33.3,98h-0.7v-2.1h0.7V98z"/><path fill="#444C5B" d="M32,98h-0.7v-2.1H32V98z"/><path fill="#444C5B" d="M30.6,98h-0.7v-2.1h0.7V98z"/><path fill="#444C5B" d="M33.3,95.3h-0.7v-2.1h0.7V95.3z"/><path fill="#444C5B" d="M32,95.3h-0.7v-2.1H32V95.3z"/><path fill="#444C5B" d="M30.6,95.3h-0.7v-2.1h0.7V95.3z"/><path fill="#444C5B" d="M33.3,92.5h-0.7v-2.1h0.7V92.5z"/><path fill="#444C5B" d="M32,92.5h-0.7v-2.1H32V92.5z"/><path fill="#444C5B" d="M30.6,92.5h-0.7v-2.1h0.7V92.5z"/><path fill="#444C5B" d="M33.3,89.9h-0.7v-2.1h0.7V89.9z"/><path fill="#444C5B" d="M32,89.9h-0.7v-2.1H32V89.9z"/><path fill="#444C5B" d="M30.6,89.9h-0.7v-2.1h0.7V89.9z"/><path fill="#444C5B" d="M33.3,87.2h-0.7v-2.1h0.7V87.2z"/><path fill="#444C5B" d="M32,87.2h-0.7v-2.1H32V87.2z"/><path fill="#444C5B" d="M30.6,87.2h-0.7v-2.1h0.7V87.2z"/><path fill="#444C5B" d="M33.3,84.4h-0.7v-2.1h0.7V84.4z"/><path fill="#444C5B" d="M32,84.4h-0.7v-2.1H32V84.4z"/><path fill="#444C5B" d="M30.6,84.4h-0.7v-2.1h0.7V84.4z"/><path fill="#444C5B" d="M33.3,81.7h-0.7v-2.1h0.7V81.7z"/><path fill="#444C5B" d="M32,81.7h-0.7v-2.1H32V81.7z"/><path fill="#444C5B" d="M30.6,81.7h-0.7v-2.1h0.7V81.7z"/><path fill="#444C5B" d="M33.3,79h-0.7V77h0.7V79z"/><path fill="#444C5B" d="M32,79h-0.7V77H32V79z"/><path fill="#444C5B" d="M30.6,79h-0.7V77h0.7V79z"/><path fill="#444C5B" d="M33.3,76.3h-0.7v-2.1h0.7V76.3z"/><path fill="#444C5B" d="M32,76.3h-0.7v-2.1H32V76.3z"/><path fill="#444C5B" d="M30.6,76.3h-0.7v-2.1h0.7V76.3z"/><path fill="#444C5B" d="M33.3,73.6h-0.7v-2.1h0.7V73.6z"/><path fill="#444C5B" d="M32,73.6h-0.7v-2.1H32V73.6z"/><path fill="#444C5B" d="M30.6,73.6h-0.7v-2.1h0.7V73.6z"/><path fill="#444C5B" d="M33.3,70.8h-0.7v-2.1h0.7V70.8z"/><path fill="#444C5B" d="M32,70.8h-0.7v-2.1H32V70.8z"/><path fill="#444C5B" d="M30.6,70.8h-0.7v-2.1h0.7V70.8z"/><path fill="#444C5B" d="M33.3,68.2h-0.7v-2.1h0.7V68.2z"/><path fill="#444C5B" d="M32,68.2h-0.7v-2.1H32V68.2z"/><path fill="#444C5B" d="M30.6,68.2h-0.7v-2.1h0.7V68.2z"/><path fill="#444C5B" d="M33.3,65.4h-0.7v-2.1h0.7V65.4z"/><path fill="#444C5B" d="M32,65.4h-0.7v-2.1H32V65.4z"/><path fill="#444C5B" d="M30.6,65.4h-0.7v-2.1h0.7V65.4z"/><path fill="#444C5B" d="M33.3,62.7h-0.7v-2.1h0.7V62.7z"/><path fill="#444C5B" d="M32,62.7h-0.7v-2.1H32V62.7z"/><path fill="#444C5B" d="M30.6,62.7h-0.7v-2.1h0.7V62.7z"/><path fill="#444C5B" d="M33.3,60h-0.7v-2.1h0.7V60z"/><path fill="#444C5B" d="M32,60h-0.7v-2.1H32V60z"/><path fill="#444C5B" d="M30.6,60h-0.7v-2.1h0.7V60z"/><path fill="#444C5B" d="M33.3,57.3h-0.7v-2.1h0.7V57.3z"/><path fill="#444C5B" d="M32,57.3h-0.7v-2.1H32V57.3z"/><path fill="#444C5B" d="M30.6,57.3h-0.7v-2.1h0.7V57.3z"/><path fill="#444C5B" d="M33.3,54.6h-0.7v-2.1h0.7V54.6z"/><path fill="#444C5B" d="M32,54.6h-0.7v-2.1H32V54.6z"/><path fill="#444C5B" d="M30.6,54.6h-0.7v-2.1h0.7V54.6z"/><path fill="#444C5B" d="M33.3,51.9h-0.7v-2.1h0.7V51.9z"/><path fill="#444C5B" d="M32,51.9h-0.7v-2.1H32V51.9z"/><path fill="#444C5B" d="M30.6,51.9h-0.7v-2.1h0.7V51.9z"/><path fill="#444C5B" d="M33.3,49.1h-0.7V47h0.7V49.1z"/><path fill="#444C5B" d="M32,49.1h-0.7V47H32V49.1z"/><path fill="#444C5B" d="M30.6,49.1h-0.7V47h0.7V49.1z"/><path fill="#444C5B" d="M33.3,46.5h-0.7v-2.1h0.7V46.5z"/><path fill="#444C5B" d="M32,46.5h-0.7v-2.1H32V46.5z"/><path fill="#444C5B" d="M30.6,46.5h-0.7v-2.1h0.7V46.5z"/><path fill="#444C5B" d="M33.3,43.7h-0.7v-2.1h0.7V43.7z"/><path fill="#444C5B" d="M32,43.7h-0.7v-2.1H32V43.7z"/><path fill="#444C5B" d="M30.6,43.7h-0.7v-2.1h0.7V43.7z"/><path fill="#444C5B" d="M33.3,41h-0.7v-2.1h0.7V41z"/><path fill="#444C5B" d="M32,41h-0.7v-2.1H32V41z"/><path fill="#444C5B" d="M30.6,41h-0.7v-2.1h0.7V41z"/><path fill="#444C5B" d="M33.3,38.3h-0.7v-2.1h0.7V38.3z"/><path fill="#444C5B" d="M32,38.3h-0.7v-2.1H32V38.3z"/><path fill="#444C5B" d="M30.6,38.3h-0.7v-2.1h0.7V38.3z"/><path fill="#444C5B" d="M33.3,35.6h-0.7v-2.1h0.7V35.6z"/><path fill="#444C5B" d="M32,35.6h-0.7v-2.1H32V35.6z"/><path fill="#444C5B" d="M30.6,35.6h-0.7v-2.1h0.7V35.6z"/><path fill="#444C5B" d="M33.3,32.9h-0.7v-2.1h0.7V32.9z"/><path fill="#444C5B" d="M32,32.9h-0.7v-2.1H32V32.9z"/><path fill="#444C5B" d="M30.6,32.9h-0.7v-2.1h0.7V32.9z"/><path fill="#444C5B" d="M33.3,30.1h-0.7v-2.1h0.7V30.1z"/><path fill="#444C5B" d="M32,30.1h-0.7v-2.1H32V30.1z"/><path fill="#444C5B" d="M30.6,30.1h-0.7v-2.1h0.7V30.1z"/><g><path fill="#39424F" d="M52.3,29.1v20h-7.8v-20H52.3 M52.6,28.8h-8.5v20.7h8.5V28.8L52.6,28.8z"/></g><path fill="#F2B85D" d="M42.3,33.7c0.3,0,0.5,0.3,0.5,0.6c0,0.3-0.3,0.6-0.5,0.6c-0.2,0-0.5-0.3-0.5-0.6C41.8,34,42,33.7,42.3,33.7z"/><path fill="#3FAC9A" d="M42.3,31.7c0.3,0,0.5,0.3,0.5,0.6c0,0.3-0.3,0.6-0.5,0.6c-0.2,0-0.5-0.3-0.5-0.6S42,31.7,42.3,31.7z"/><path fill="#3FAC9A" d="M42.3,29.8c0.3,0,0.5,0.3,0.5,0.6c0,0.3-0.3,0.6-0.5,0.6c-0.2,0-0.5-0.3-0.5-0.6 C41.8,30.1,42,29.8,42.3,29.8z"/><path fill="#39424F" d="M50.1,104.8h1.1v11.9h-1.1V104.8z"/><path fill="#39424F" d="M48.6,104.8h1.1v11.9h-1.1V104.8z"/><path fill="#39424F" d="M47,104.8h1.1v11.9H47V104.8L47,104.8z"/><path fill="#39424F" d="M45.5,104.8h1.1v11.9h-1.1V104.8z"/><path fill="#39424F" d="M43.8,104.8h1.1v11.9h-1.1V104.8z"/><path fill="#39424F" d="M42.4,104.8h1.1v11.9h-1.1V104.8z"/><path fill="#39424F" d="M40.8,104.8H42v11.9h-1.1V104.8z"/><path fill="#39424F" d="M39.2,104.8h1.1v11.9h-1.1V104.8z"/><path fill="#39424F" d="M37.6,104.8h1.1v11.9h-1.1V104.8z"/><path fill="#39424F" d="M36,104.8h1.1v11.9H36V104.8z"/><polygon fill="#39424F" points="50.1 77.9 48.9 77.9 48.9 77.5 49.7 77.5 49.7 74.1 48.9 74.1 48.9 73.7 50.1 73.7"/><path fill="#39424F" d="M50.8,78.6H48v-5.5h2.7V78.6z M48.4,78.2h2v-4.7h-2V78.2z"/><polygon fill="#39424F" points="46 77.9 44.8 77.9 44.8 77.5 45.7 77.5 45.7 74.1 44.8 74.1 44.8 73.7 46 73.7"/><path fill="#39424F" d="M46.7,78.6H44v-5.5h2.7V78.6z M44.3,78.2h2v-4.7h-2V78.2z"/><polygon fill="#39424F" points="42.3 77.9 41.1 77.9 41.1 77.5 41.9 77.5 41.9 74.1 41.1 74.1 41.1 73.7 42.3 73.7"/><path fill="#39424F" d="M42.9,78.6h-2.7v-5.5h2.7V78.6z M40.6,78.2h2v-4.7h-2V78.2z"/><polygon fill="#39424F" points="38.2 77.9 37 77.9 37 77.5 37.8 77.5 37.8 74.1 37 74.1 37 73.7 38.2 73.7"/><path fill="#39424F" d="M38.9,78.6h-2.7v-5.5h2.7V78.6z M36.5,78.2h2v-4.7h-2V78.2z"/><path fill="#3FAC9A" d="M49.4,79.3c0.3,0,0.5,0.3,0.5,0.6c0,0.3-0.3,0.6-0.5,0.6c-0.2,0-0.5-0.3-0.5-0.6S49.2,79.3,49.4,79.3z"/><path fill="#F2B85D" d="M45.4,79.3c0.3,0,0.5,0.3,0.5,0.6c0,0.3-0.3,0.6-0.5,0.6c-0.3,0-0.5-0.3-0.5-0.6S45.1,79.3,45.4,79.3z"/><path fill="#3FAC9A" d="M41.6,79.3c0.3,0,0.5,0.3,0.5,0.6c0,0.3-0.3,0.6-0.5,0.6c-0.3,0-0.5-0.3-0.5-0.6S41.3,79.3,41.6,79.3z"/><path fill="#3FAC9A" d="M37.5,79.3c0.3,0,0.5,0.3,0.5,0.6c0,0.3-0.3,0.6-0.5,0.6c-0.2,0-0.5-0.3-0.5-0.6S37.3,79.3,37.5,79.3z"/><path fill="#39424F" d="M36,83.1h15.3v19H36V83.1z"/><path fill="#A8B2C0" d="M47.5,83.1h3.4v19h-3.4V83.1z"/><path fill="#A8B2C0" d="M43.8,83.1h3.4v19h-3.4V83.1z"/><path fill="#A8B2C0" d="M40.1,83.1h3.4v19h-3.4V83.1z"/><path fill="#A8B2C0" d="M36.3,83.1h3.4v19h-3.4V83.1z"/><path fill="#39424F" d="M52.6,59.7v0.7h-8.1v-0.7H52.6z"/><path fill="#39424F" d="M52.6,58.3v0.7h-8.1v-0.7H52.6z"/><path fill="#39424F" d="M52.6,56.9v0.7h-8.1v-0.7H52.6z"/><path fill="#39424F" d="M52.6,55.6v0.7h-8.1v-0.7H52.6z"/><path fill="#39424F" d="M52.6,54.2v0.7h-8.1v-0.7H52.6z"/><path fill="#39424F" d="M52.6,52.9v0.7h-8.1v-0.7H52.6z"/><path fill="#39424F" d="M50.9,32.5v0.4h-5.5v-0.4H50.9z"/><path fill="#39424F" d="M50.9,31.8v0.4h-5.5v-0.4H50.9z"/><path fill="#39424F" d="M50.9,31.2v0.4h-5.5v-0.4H50.9z"/><path fill="#39424F" d="M50.9,30.5v0.4h-5.5v-0.4H50.9z"/><path fill="#929BAB" d="M48.6,86.1h1.3v16h-1.3V86.1z"/><path fill="#929BAB" d="M44.8,86.1h1.3v16h-1.3V86.1z"/><path fill="#929BAB" d="M41.1,86.1h1.3v16h-1.3V86.1z"/><path fill="#929BAB" d="M37.4,86.1h1.3v16h-1.3V86.1z"/><path fill="#7C869A" d="M48.6,88.2v-0.4h1.3v0.4H48.6z"/><path fill="#7C869A" d="M48.6,88.8v-0.4h1.3v0.4H48.6z"/><path fill="#7C869A" d="M48.6,89.5v-0.4h1.3v0.4H48.6z"/><path fill="#7C869A" d="M48.6,90.2v-0.3h1.3v0.4L48.6,90.2L48.6,90.2z"/><path fill="#7C869A" d="M48.6,90.8v-0.4h1.3v0.4H48.6z"/><path fill="#7C869A" d="M48.6,93.6v-0.4h1.3v0.4H48.6z"/><path fill="#7C869A" d="M48.6,94.2v-0.4h1.3v0.4H48.6z"/><path fill="#7C869A" d="M48.6,95v-0.4h1.3V95H48.6z"/><path fill="#7C869A" d="M48.6,97.3V97h1.3v0.4H48.6z"/><path fill="#7C869A" d="M48.6,98v-0.4h1.3V98H48.6z"/><path fill="#7C869A" d="M48.6,98.7v-0.3h1.3v0.4L48.6,98.7L48.6,98.7z"/><path fill="#7C869A" d="M48.6,99.3v-0.4h1.3v0.4H48.6z"/><path fill="#7C869A" d="M48.6,100.1v-0.4h1.3v0.4H48.6z"/><path fill="#7C869A" d="M48.6,100.7v-0.4h1.3v0.4H48.6z"/><path fill="#7C869A" d="M44.8,88.2v-0.4h1.3v0.4H44.8z"/><path fill="#7C869A" d="M44.8,88.8v-0.4h1.3v0.4H44.8z"/><path fill="#7C869A" d="M44.8,89.5v-0.4h1.3v0.4H44.8z"/><path fill="#7C869A" d="M44.8,90.2v-0.3h1.3v0.4L44.8,90.2L44.8,90.2z"/><path fill="#7C869A" d="M44.8,90.8v-0.4h1.3v0.4H44.8z"/><path fill="#7C869A" d="M44.8,93.6v-0.4h1.3v0.4H44.8z"/><path fill="#7C869A" d="M44.8,94.2v-0.4h1.3v0.4H44.8z"/><path fill="#7C869A" d="M44.8,95v-0.4h1.3V95H44.8z"/><path fill="#7C869A" d="M44.8,97.3V97h1.3v0.4H44.8z"/><path fill="#7C869A" d="M44.8,98v-0.4h1.3V98H44.8z"/><path fill="#7C869A" d="M44.8,98.7v-0.3h1.3v0.4L44.8,98.7L44.8,98.7z"/><path fill="#7C869A" d="M44.8,99.3v-0.4h1.3v0.4H44.8z"/><path fill="#7C869A" d="M44.8,100.1v-0.4h1.3v0.4H44.8z"/><path fill="#7C869A" d="M44.8,100.7v-0.4h1.3v0.4H44.8z"/><path fill="#7C869A" d="M41.1,88.2v-0.4h1.3v0.4H41.1z"/><path fill="#7C869A" d="M41.1,88.8v-0.4h1.3v0.4H41.1z"/><path fill="#7C869A" d="M41.1,89.5v-0.4h1.3v0.4H41.1z"/><path fill="#7C869A" d="M41.1,90.2v-0.3h1.3v0.4L41.1,90.2L41.1,90.2z"/><path fill="#7C869A" d="M41.1,90.8v-0.4h1.3v0.4H41.1z"/><path fill="#7C869A" d="M41.1,93.6v-0.4h1.3v0.4H41.1z"/><path fill="#7C869A" d="M41.1,94.2v-0.4h1.3v0.4H41.1z"/><path fill="#7C869A" d="M41.1,95v-0.4h1.3V95H41.1z"/><path fill="#7C869A" d="M41.1,97.3V97h1.3v0.4H41.1z"/><path fill="#7C869A" d="M41.1,98v-0.4h1.3V98H41.1z"/><path fill="#7C869A" d="M41.1,98.7v-0.3h1.3v0.4L41.1,98.7L41.1,98.7z"/><path fill="#7C869A" d="M41.1,99.3v-0.4h1.3v0.4H41.1z"/><path fill="#7C869A" d="M41.1,100.1v-0.4h1.3v0.4H41.1z"/><path fill="#7C869A" d="M41.1,100.7v-0.4h1.3v0.4H41.1z"/><path fill="#7C869A" d="M48.6,85.1v-0.4h1.3v0.4H48.6z"/><path fill="#7C869A" d="M44.8,85.1v-0.4h1.3v0.4H44.8z"/><path fill="#7C869A" d="M41.1,85.1v-0.4h1.3v0.4H41.1z"/><path fill="#7C869A" d="M37.4,88.2v-0.4h1.3v0.4H37.4z"/><path fill="#7C869A" d="M37.4,88.8v-0.4h1.3v0.4H37.4z"/><path fill="#7C869A" d="M37.4,89.5v-0.4h1.3v0.4H37.4z"/><path fill="#7C869A" d="M37.4,90.2v-0.3h1.3v0.4L37.4,90.2L37.4,90.2z"/><path fill="#7C869A" d="M37.4,90.8v-0.4h1.3v0.4H37.4z"/><path fill="#7C869A" d="M37.4,93.6v-0.4h1.3v0.4H37.4z"/><path fill="#7C869A" d="M37.4,94.2v-0.4h1.3v0.4H37.4z"/><path fill="#7C869A" d="M37.4,95v-0.4h1.3V95H37.4z"/><path fill="#7C869A" d="M37.4,97.3V97h1.3v0.4H37.4z"/><path fill="#7C869A" d="M37.4,98v-0.4h1.3V98H37.4z"/><path fill="#7C869A" d="M37.4,98.7v-0.3h1.3v0.4L37.4,98.7L37.4,98.7z"/><path fill="#7C869A" d="M37.4,99.3v-0.4h1.3v0.4H37.4z"/><path fill="#7C869A" d="M37.4,100.1v-0.4h1.3v0.4H37.4z"/><path fill="#7C869A" d="M37.4,100.7v-0.4h1.3v0.4H37.4z"/><path fill="#7C869A" d="M37.4,85.1v-0.4h1.3v0.4H37.4z"/></g><g id="database"><path fill="#CFD4D6" fill-rule="evenodd" d="M43.4,101.8c24,0,43.4,2.8,43.4,6.2c0,3.4-19.4,6.2-43.4,6.2 c-24,0-43.4-2.8-43.4-6.2C0,104.6,19.5,101.8,43.4,101.8z" clip-rule="evenodd"/><path fill="#C6D1D9" fill-rule="evenodd" d="M87,74.2c0,0-22.4,4.1-43.3,4.1c-21,0-43.7-4.1-43.7-4.1v25.6 c0,0,0.3,0.1,0.9,0.2c4,2.8,21.5,5,42.6,5c21,0,38.6-2.1,42.6-5c0.6-0.1,0.9-0.2,0.9-0.2V74.2z" clip-rule="evenodd"/><path fill="#D4DEE7" fill-rule="evenodd" d="M47.9,104.9c19-0.3,34.4-2.3,38.1-4.9c0.6-0.1,1-0.2,1-0.2V74.2 c0,0-17.9,3.3-36.7,4L47.9,104.9z" clip-rule="evenodd"/><path fill="#8C9BA6" fill-rule="evenodd" d="M43.4,67c24,0,43.4,2.8,43.4,6.2c0,3.4-19.4,6.2-43.4,6.2 c-24,0-43.4-2.8-43.4-6.2C0,69.8,19.5,67,43.4,67z" clip-rule="evenodd"/><path fill="#44AB9A" fill-rule="evenodd" d="M3.9,84.9c0.9,0,1.6,0.8,1.6,1.7c0,0.9-0.7,1.7-1.6,1.7 c-0.9,0-1.6-0.8-1.6-1.7C2.3,85.7,3,84.9,3.9,84.9z" clip-rule="evenodd"/><path fill="#44AB9A" fill-rule="evenodd" d="M3.9,89.4c0.9,0,1.6,0.8,1.6,1.7c0,0.9-0.7,1.7-1.6,1.7 c-0.9,0-1.6-0.8-1.6-1.7C2.3,90.2,3,89.4,3.9,89.4z" clip-rule="evenodd"/><path fill="#F0B763" fill-rule="evenodd" d="M3.9,93.8c0.9,0,1.6,0.8,1.6,1.7c0,0.9-0.7,1.7-1.6,1.7 c-0.9,0-1.6-0.8-1.6-1.7C2.3,94.6,3,93.8,3.9,93.8z" clip-rule="evenodd"/><path fill="#C6D1D9" fill-rule="evenodd" d="M87,41.2c0,0-22.4,4.1-43.3,4.1c-21,0-43.7-4.1-43.7-4.1v25.6 c0,0,0.3,0.1,0.9,0.2c4,2.8,21.5,5,42.6,5c21,0,38.6-2.1,42.6-5c0.6-0.1,0.9-0.2,0.9-0.2V41.2z" clip-rule="evenodd"/><path fill="#44AB9A" fill-rule="evenodd" d="M3.9,51.9c0.9,0,1.6,0.8,1.6,1.7c0,0.9-0.7,1.7-1.6,1.7 c-0.9,0-1.6-0.8-1.6-1.7C2.3,52.7,3,51.9,3.9,51.9z" clip-rule="evenodd"/><path fill="#44AB9A" fill-rule="evenodd" d="M3.9,56.4c0.9,0,1.6,0.8,1.6,1.7c0,0.9-0.7,1.7-1.6,1.7 c-0.9,0-1.6-0.8-1.6-1.7C2.3,57.2,3,56.4,3.9,56.4z" clip-rule="evenodd"/><path fill="#F0B763" fill-rule="evenodd" d="M3.9,60.8c0.9,0,1.6,0.8,1.6,1.7c0,0.9-0.7,1.7-1.6,1.7 c-0.9,0-1.6-0.8-1.6-1.7C2.3,61.6,3,60.8,3.9,60.8z" clip-rule="evenodd"/><path fill="#D4DEE7" fill-rule="evenodd" d="M50.8,71.8C68.5,71.4,82.5,69.5,86,67c0.6-0.1,1-0.2,1-0.2V41.2 c0,0-16.1,3-33.8,3.9L50.8,71.8z" clip-rule="evenodd"/><path fill="#8C9BA6" fill-rule="evenodd" d="M43.4,34c24,0,43.4,2.8,43.4,6.2c0,3.4-19.4,6.2-43.4,6.2 c-24,0-43.4-2.8-43.4-6.2C0,36.8,19.5,34,43.4,34z" clip-rule="evenodd"/><g><path fill="#C6D1D9" fill-rule="evenodd" d="M87,7.2c0,0-22.4,4.1-43.3,4.1C22.6,11.3,0,7.2,0,7.2v25.6 c0,0,0.3,0.1,0.9,0.2c4,2.8,21.5,5,42.6,5c21,0,38.6-2.1,42.6-5c0.6-0.1,0.9-0.2,0.9-0.2V7.2z" clip-rule="evenodd"/><path fill="#44AB9A" fill-rule="evenodd" d="M3.9,17.9c0.9,0,1.6,0.8,1.6,1.7c0,0.9-0.7,1.7-1.6,1.7 c-0.9,0-1.6-0.8-1.6-1.7C2.3,18.7,3,17.9,3.9,17.9z" clip-rule="evenodd"/><path fill="#44AB9A" fill-rule="evenodd" d="M3.9,22.4c0.9,0,1.6,0.8,1.6,1.7c0,0.9-0.7,1.7-1.6,1.7 c-0.9,0-1.6-0.8-1.6-1.7C2.3,23.2,3,22.4,3.9,22.4z" clip-rule="evenodd"/><path fill="#F0B763" fill-rule="evenodd" d="M3.9,26.8c0.9,0,1.6,0.8,1.6,1.7c0,0.9-0.7,1.7-1.6,1.7 c-0.9,0-1.6-0.8-1.6-1.7C2.3,27.6,3,26.8,3.9,26.8z" clip-rule="evenodd"/><path fill="#D4DEE7" fill-rule="evenodd" d="M56.2,10.9l-2.4,26.9C70,37.2,82.7,35.3,86,33 c0.6-0.1,1-0.2,1-0.2V7.2C87,7.2,72.6,9.8,56.2,10.9z" clip-rule="evenodd"/><path fill="#8C9BA6" fill-rule="evenodd" d="M43.4,0c24,0,43.4,2.8,43.4,6.2c0,3.4-19.4,6.2-43.4,6.2 C19.5,12.3,0,9.6,0,6.2C0,2.8,19.5,0,43.4,0z" clip-rule="evenodd"/></g></g><g id="page"><path fill="#CBD1D3" d="M206,37l128,75L131,238L3,150L206,37z" enable-background="new" opacity=".75"/><g><path fill="#CED4D6" d="M203,17l128,75L128,218L0,130L203,17z"/><path fill="#FFF" stroke="#EDEFF0" stroke-miterlimit="10" d="M203,16l128,75L128,217L0,129L203,16z"/></g><g><path fill="#CED4D6" d="M204,12.5l128,75l-203,126l-128-88L204,12.5z"/><path fill="#FFF" stroke="#EDEFF0" stroke-miterlimit="10" d="M204,11.5l128,75l-203,126l-128-88L204,11.5z"/></g><g><path fill="#CED4D6" d="M205,9l128,75L130,210L2,122L205,9z"/><path fill="#FFF" stroke="#EDEFF0" stroke-miterlimit="10" d="M205,8l128,75L130,209L2,121L205,8z"/></g><g><path fill="#CED4D6" d="M206,6l128,75L131,207L3,119L206,6z"/><path fill="#FFF" stroke="#EDEFF0" stroke-miterlimit="10" d="M206,5l128,75L131,206L3,118L206,5z"/></g><path fill="#CED4D6" d="M208,1l128,75L133,202L5,114L208,1z"/><path fill="#FFF" stroke="#EDEFF0" stroke-miterlimit="10" stroke-width="2" d="M208,0l128,75L133,201L5,113L208,0z"/><g><g><g><g><defs><polygon id="page_poly" points="47.7 100.7 197 10.5 307.6 84 158.3 174.1"/></defs><clipPath id="page_clip"><use overflow="visible" xlink:href="#page_poly"/></clipPath><g clip-path="url(#page_clip)"><path fill="#C9D2D6" d="M197.8,113.6l47.9-28.9l28.5,18.9l-47.9,28.9L197.8,113.6 M275,103.7l-29.2-19.4l-48.6,29.3l29.2,19.4 L275,103.7"/><path fill="#FFFADA" d="M257,79.4l0.2-0.1l25.9,17.2l-0.2,0.1L257,79.4 M258.3,78.6l0.9-0.5l5.4,3.6l-0.9,0.5L258.3,78.6 M288.1,95.5l-28.9-19.2l-11.7,7.1l28.9,19.2L288.1,95.5"/><polyline fill="#E1DDC8" points="264.7 81.6 259.2 78 258.3 78.6 263.8 82.2 264.7 81.6"/><polyline fill="#E1DDC8" points="283.2 96.5 257.2 79.2 257 79.4 282.9 96.6 283.2 96.5"/><polyline fill="#CCE0EC" points="226.6 120.1 210.3 109.3 209.2 110 225.5 120.7 226.6 120.1"/><polyline fill="#CCE0EC" points="219.4 118.1 208.1 110.6 207.6 110.9 218.9 118.4 219.4 118.1"/><polyline fill="#CCE0EC" points="210.8 114.7 206.3 111.7 204 113.1 208.5 116.1 210.8 114.7"/><polyline fill="#CCE0EC" points="217.3 119.1 211.2 115 209 116.4 215.1 120.4 217.3 119.1"/><polyline fill="#CCE0EC" points="222.5 122.5 217.8 119.4 215.5 120.7 220.3 123.9 222.5 122.5"/><polyline fill="#CCE0EC" points="226.1 124.9 223 122.8 220.7 124.2 223.9 126.3 226.1 124.9"/><polyline fill="#CCE0EC" points="229.1 124.6 223 120.5 222.5 120.8 228.6 124.8 229.1 124.6"/><path fill="#CCE0EC" d="M222.3,119.5c-0.4-0.2-1-0.3-1.4,0c-0.4,0.2-0.4,0.6,0,0.9s1,0.3,1.3,0 C222.7,120.1,222.7,119.7,222.3,119.5"/><polyline fill="#CCE0EC" points="236.7 113.9 220.5 103.2 219.4 103.8 235.6 114.6 236.7 113.9"/><polyline fill="#CCE0EC" points="229.5 112 218.2 104.5 217.8 104.8 229.1 112.3 229.5 112"/><polyline fill="#CCE0EC" points="220.9 108.6 216.4 105.6 214.2 107 218.7 110 220.9 108.6"/><polyline fill="#CCE0EC" points="227.5 112.9 221.4 108.9 219.1 110.3 225.2 114.3 227.5 112.9"/><polyline fill="#CCE0EC" points="232.7 116.4 227.9 113.2 225.7 114.6 230.4 117.7 232.7 116.4"/><polyline fill="#CCE0EC" points="236.3 118.8 233.1 116.7 230.9 118 234 120.1 236.3 118.8"/><polyline fill="#CCE0EC" points="239.2 118.4 233.1 114.4 232.7 114.7 238.8 118.7 239.2 118.4"/><path fill="#CCE0EC" d="M232.4,113.4c-0.4-0.2-1-0.3-1.4,0c-0.4,0.2-0.4,0.6,0,0.9c0.4,0.2,1,0.3,1.3,0 C232.8,114,232.8,113.6,232.4,113.4"/><polyline fill="#CCE0EC" points="248.7 111.3 232.4 100.5 230.6 101.6 246.9 112.4 248.7 111.3"/><polyline fill="#CCE0EC" points="243.5 111.3 232.2 103.8 231.3 104.3 242.6 111.8 243.5 111.3"/><polyline fill="#CCE0EC" points="246.4 117.2 223 101.7 222.7 101.8 246.2 117.4 246.4 117.2"/><polyline fill="#E4E8EA" points="273.2 103.6 245.7 85.3 230.8 94.3 241.2 101.2 245.1 98.9 251.8 103.4 248 105.7 258.4 112.6 273.2 103.6"/><polyline fill="#E4E8EA" points="186.2 50.4 174.7 42.7 174 43.1 185.5 50.8 186.2 50.4"/><polyline fill="#E4E8EA" points="182.6 52.5 171.1 44.9 170.4 45.3 181.9 52.9 182.6 52.5"/><polyline fill="#E4E8EA" points="169.7 58 160 51.6 159.3 52 169 58.4 169.7 58"/><polyline fill="#E4E8EA" points="168.8 62 156.4 53.7 155.7 54.1 168.1 62.4 168.8 62"/><polyline fill="#E4E8EA" points="161.6 61.5 156.4 58 155.7 58.4 160.9 61.9 161.6 61.5"/><polyline fill="#E4E8EA" points="157.1 61.6 155.7 60.7 155.1 61.1 156.4 62 157.1 61.6"/><polyline fill="#E4E8EA" points="148.1 63.6 144.2 61.1 143.6 61.5 147.4 64 148.1 63.6"/><polyline fill="#E4E8EA" points="166.1 75.6 158.7 70.7 158 71.1 165.4 76 166.1 75.6"/><polyline fill="#E4E8EA" points="180.1 40.9 176 38.2 175.3 38.6 179.4 41.3 180.1 40.9"/><polyline fill="#E4E8EA" points="177.4 46.2 173.3 43.5 172.6 43.9 176.7 46.6 177.4 46.2"/><polyline fill="#E4E8EA" points="167 54.8 161.1 50.9 160.5 51.3 166.3 55.2 167 54.8"/><polyline fill="#E4E8EA" points="207.6 50.9 194.7 42.3 194.1 42.7 206.9 51.3 207.6 50.9"/><polyline fill="#E4E8EA" points="202 48.8 193.4 43.1 192.7 43.6 201.3 49.2 202 48.8"/><polyline fill="#E4E8EA" points="202.9 51.2 192 44 191.4 44.4 202.2 51.6 202.9 51.2"/><polyline fill="#E4E8EA" points="204.5 62.5 198.6 58.6 197.9 59 203.8 62.9 204.5 62.5"/><polyline fill="#E4E8EA" points="189.1 56.9 187.5 55.8 186.8 56.2 188.4 57.3 189.1 56.9"/><polyline fill="#E4E8EA" points="200.2 65.7 196.1 63 195.4 63.4 199.5 66.1 200.2 65.7"/><polyline fill="#E4E8EA" points="177.6 63.3 176 62.2 175.4 62.6 176.9 63.7 177.6 63.3"/><polyline fill="#E4E8EA" points="173.6 65.1 172 64.1 171.3 64.5 172.9 65.5 173.6 65.1"/><polyline fill="#E4E8EA" points="183.9 72 178.5 68.4 177.8 68.8 183.3 72.4 183.9 72"/><polyline fill="#E4E8EA" points="167 65.1 165.4 64 164.8 64.4 166.3 65.5 167 65.1"/><polyline fill="#E4E8EA" points="168.4 69.1 166.1 67.6 165.4 68 167.7 69.5 168.4 69.1"/><polyline fill="#E4E8EA" points="170 78.2 166.6 75.9 165.9 76.3 169.3 78.6 170 78.2"/><polyline fill="#E4E8EA" points="153.5 71.8 149 68.8 148.3 69.2 152.8 72.2 153.5 71.8"/><path fill="#E4E8EA" d="M130.3,65.2c-0.1-0.1-0.3-0.1-0.5,0c-0.1,0.1-0.1,0.2,0,0.3c0.1,0.1,0.3,0.1,0.4,0 C130.4,65.5,130.4,65.3,130.3,65.2"/><path fill="#E4E8EA" d="M128.5,66.3c-0.1-0.1-0.3-0.1-0.5,0c-0.1,0.1-0.1,0.2,0,0.3c0.1,0.1,0.3,0.1,0.5,0 C128.6,66.5,128.6,66.4,128.5,66.3"/><polyline fill="#E4E8EA" points="290.6 94 181 21.2 180.7 21.3 290.4 94.1 290.6 94"/><polyline fill="#E4E8EA" points="245.7 68.5 186.4 29.1 185.5 29.6 244.8 69 245.7 68.5"/><polyline fill="#E4E8EA" points="224.7 56.8 184.6 30.2 183.7 30.7 223.8 57.4 224.7 56.8"/><polyline fill="#E4E8EA" points="193.2 41.3 182.6 34.2 181.9 34.6 192.5 41.7 193.2 41.3"/><polyline fill="#E4E8EA" points="191.8 42.1 181.2 35.1 180.5 35.5 191.1 42.5 191.8 42.1"/><polyline fill="#E4E8EA" points="190.5 42.9 179.9 35.9 179.2 36.3 189.8 43.3 190.5 42.9"/><polyline fill="#E4E8EA" points="189.3 51 175.8 42 175.1 42.4 188.7 51.4 189.3 51"/><polyline fill="#E4E8EA" points="207.6 74 167.2 47.2 166.6 47.6 206.9 74.4 207.6 74"/><polyline fill="#E4E8EA" points="171.5 56.3 162.3 50.2 161.6 50.6 170.8 56.8 171.5 56.3"/><polyline fill="#E4E8EA" points="168.1 64.4 157.5 57.3 156.9 57.8 167.5 64.8 168.1 64.4"/><polyline fill="#E4E8EA" points="191.6 105.7 132.1 66.2 131.2 66.7 190.7 106.2 191.6 105.7"/><polyline fill="#E4E8EA" points="189.8 106.8 130.3 67.2 129.4 67.8 188.9 107.3 189.8 106.8"/><polyline fill="#E4E8EA" points="187.7 46 180.8 41.3 180.1 41.7 187.1 46.4 187.7 46"/><polyline fill="#E4E8EA" points="176 39.6 174.9 38.9 174.2 39.3 175.3 40 176 39.6"/><polyline fill="#E4E8EA" points="197.7 58 187.1 51 186.4 51.4 197 58.4 197.7 58"/><polyline fill="#E4E8EA" points="190.9 55.2 178.3 46.8 177.6 47.2 190.2 55.6 190.9 55.2"/><polyline fill="#E4E8EA" points="186.6 55.2 183.5 53.1 182.8 53.5 185.9 55.6 186.6 55.2"/><polyline fill="#E4E8EA" points="206.5 68.4 190 57.5 189.3 57.9 205.8 68.8 206.5 68.4"/><polyline fill="#E4E8EA" points="195.2 62.4 174.9 48.9 174.2 49.3 194.5 62.8 195.2 62.4"/><polyline fill="#E4E8EA" points="198.6 69.5 166.1 47.9 165.4 48.3 197.9 69.9 198.6 69.5"/><polyline fill="#E4E8EA" points="180.5 63.8 167.9 55.4 167.2 55.8 179.9 64.2 180.5 63.8"/><polyline fill="#E4E8EA" points="175.1 61.6 170.6 58.6 170 59 174.5 62 175.1 61.6"/><polyline fill="#E4E8EA" points="171.3 63.6 169.7 62.6 169.1 63 170.6 64 171.3 63.6"/><polyline fill="#E4E8EA" points="177.8 68 175.1 66.2 174.5 66.6 177.2 68.4 177.8 68"/><polyline fill="#E4E8EA" points="188.2 74.9 184.4 72.3 183.7 72.7 187.5 75.3 188.2 74.9"/><polyline fill="#E4E8EA" points="156.4 55.2 155.3 54.4 154.6 54.8 155.7 55.6 156.4 55.2"/><polyline fill="#E4E8EA" points="164.8 63.6 162.5 62.1 161.8 62.5 164.1 64 164.8 63.6"/><polyline fill="#E4E8EA" points="188.2 79.2 168.1 65.8 167.5 66.2 187.5 79.6 188.2 79.2"/><polyline fill="#E4E8EA" points="156.4 59.5 155.3 58.7 154.6 59.1 155.7 59.9 156.4 59.5"/><polyline fill="#E4E8EA" points="165.4 67.2 157.8 62.1 157.1 62.5 164.8 67.6 165.4 67.2"/><polyline fill="#E4E8EA" points="168.1 70.4 157.5 63.4 156.9 63.8 167.5 70.8 168.1 70.4"/><polyline fill="#E4E8EA" points="152.4 61.9 151.2 61.2 150.6 61.6 151.7 62.3 152.4 61.9"/><polyline fill="#E4E8EA" points="147.6 60.5 146.5 59.7 145.8 60.1 146.9 60.9 147.6 60.5"/><polyline fill="#E4E8EA" points="158 70.2 148.8 64.1 148.1 64.5 157.3 70.6 158 70.2"/><polyline fill="#E4E8EA" points="200.9 98.7 170.4 78.5 169.7 78.9 200.2 99.1 200.9 98.7"/><polyline fill="#E4E8EA" points="165.9 78.3 142 62.5 141.3 62.9 165.2 78.7 165.9 78.3"/><polyline fill="#E4E8EA" points="148.3 68.4 140.6 63.3 140 63.7 147.6 68.8 148.3 68.4"/><polyline fill="#E4E8EA" points="169.1 82.1 154.2 72.3 153.5 72.7 168.4 82.6 169.1 82.1"/><polyline fill="#E4E8EA" points="137 63.2 135.9 62.4 135.2 62.8 136.3 63.6 137 63.2"/><polyline fill="#E4E8EA" points="188.7 112 122.2 67.9 103.7 79 170.2 123.2 188.7 112"/><polyline fill="#E4E8EA" points="223 134.8 194.1 115.6 169.5 130.5 198.4 149.6 223 134.8"/><polyline fill="#E4E8EA" points="173.1 29.7 171.7 30.1 170.7 29.4 170.9 30.3 169.5 30.7 171 30.9 171.2 31.9 171.9 31 173.4 31.2 172.4 30.5 173.1 29.7"/><polyline fill="#DEDCDB" points="243.9 47.3 237.1 42.8 234.4 44.4 241.2 48.9 243.9 47.3"/><polyline fill="#DEDCDB" points="252 52.6 244.6 47.7 241.9 49.3 249.3 54.3 252 52.6"/><polyline fill="#DEDCDB" points="261.3 58.8 252.7 53.1 250 54.7 258.6 60.4 261.3 58.8"/><polyline fill="#DEDCDB" points="275.3 68.1 261.9 59.2 259.2 60.9 272.5 69.7 275.3 68.1"/><polyline fill="#DEDCDB" points="303 86.5 291.9 79.2 289.2 80.8 300.3 88.1 303 86.5"/><polyline fill="#E4E8EA" points="180.5 25.2 177.8 25.1 180.5 26.9 180.5 25.2"/><polyline fill="#E4E8EA" points="177.1 28.9 174.4 27.1 174.4 28.8 177.1 28.9"/><polyline fill="#F3E3D9" points="236.5 42.3 225.2 34.8 222.5 36.5 233.7 43.9 236.5 42.3"/><path fill="#E4E8EA" d="M159.6,137.9c-0.8-0.5-2-0.5-2.7-0.1c-0.8,0.5-0.7,1.2,0,1.7s2,0.5,2.7,0.1 C160.4,139.2,160.4,138.4,159.6,137.9"/><polyline fill="#E4E8EA" points="186 156.6 162.1 140.7 161 141.4 184.9 157.2 186 156.6"/><path fill="#E4E8EA" d="M164.1,135.2c-0.8-0.5-2-0.5-2.7-0.1c-0.8,0.5-0.7,1.2,0,1.7s2,0.5,2.7,0.1 C164.9,136.4,164.9,135.7,164.1,135.2"/><polyline fill="#E4E8EA" points="190.5 153.8 166.6 138 165.5 138.6 189.4 154.5 190.5 153.8"/><path fill="#E4E8EA" d="M168.6,132.4c-0.8-0.5-2-0.5-2.7-0.1c-0.8,0.5-0.7,1.2,0,1.7s2,0.5,2.7,0.1 C169.4,133.7,169.4,132.9,168.6,132.4"/><polyline fill="#E4E8EA" points="195 151.1 171.1 135.2 170 135.9 193.9 151.8 195 151.1"/><polyline fill="#E4E8EA" points="148.6 136.3 104.8 107.2 103.7 107.9 147.4 136.9 148.6 136.3"/><polyline fill="#E4E8EA" points="104.1 106.8 82.9 92.7 81.8 93.4 103 107.4 104.1 106.8"/><polyline fill="#E4E8EA" points="151.5 134.5 85.9 90.9 84.7 91.6 150.4 135.2 151.5 134.5"/><polyline fill="#E4E8EA" points="154.4 132.7 127.8 115.1 126.7 115.7 153.3 133.4 154.4 132.7"/><polyline fill="#E4E8EA" points="127.1 114.6 88.8 89.1 87.7 89.8 126 115.3 127.1 114.6"/><polyline fill="#E4E8EA" points="159.8 129.5 116.1 100.4 115 101.1 158.7 130.1 159.8 129.5"/><polyline fill="#E4E8EA" points="115.4 100 94.2 85.9 93.1 86.6 114.3 100.6 115.4 100"/><polyline fill="#E4E8EA" points="162.8 127.7 97.1 84.1 96 84.8 161.6 128.4 162.8 127.7"/><polyline fill="#E4E8EA" points="165.7 125.9 139.1 108.2 138 108.9 164.6 126.6 165.7 125.9"/><polyline fill="#E4E8EA" points="138.4 107.8 100.1 82.3 98.9 83 137.3 108.5 138.4 107.8"/><polyline fill="#E4E8EA" points="124.9 150.5 81.2 121.5 80.1 122.2 123.8 151.2 124.9 150.5"/><polyline fill="#E4E8EA" points="80.5 121 59.3 106.9 58.2 107.6 79.4 121.7 80.5 121"/><polyline fill="#E4E8EA" points="127.9 148.8 62.2 105.2 61.1 105.9 126.7 149.4 127.9 148.8"/><polyline fill="#E4E8EA" points="130.8 147 104.2 129.3 103.1 130 129.7 147.7 130.8 147"/><polyline fill="#E4E8EA" points="103.5 128.9 65.2 103.4 64 104.1 102.4 129.6 103.5 128.9"/><polyline fill="#E4E8EA" points="136.2 143.7 92.5 114.7 91.3 115.4 135.1 144.4 136.2 143.7"/><polyline fill="#E4E8EA" points="91.8 114.2 70.6 100.1 69.4 100.8 90.6 114.9 91.8 114.2"/><polyline fill="#E4E8EA" points="139.1 142 73.5 98.4 72.4 99.1 138 142.6 139.1 142"/><polyline fill="#E4E8EA" points="142.1 140.2 115.5 122.5 114.3 123.2 140.9 140.9 142.1 140.2"/><polyline fill="#E4E8EA" points="114.8 122.1 76.4 96.6 75.3 97.3 113.7 122.8 114.8 122.1"/><polyline fill="#D9D8D8" points="260 67.9 185.8 18.6 182.2 20.8 256.4 70 260 67.9"/><polyline fill="#7F919C" points="251.8 103.4 245.1 98.9 241.2 101.2 238.3 103 245.1 107.5 248 105.7 251.8 103.4"/><path fill="#12100B" d="M197.9,17.1c-0.4-0.2-0.8-0.3-1.2-0.1c-0.3,0.2-0.3,0.4,0.1,0.6l0.3,0.2c0.2,0.1,0.2,0.3,0,0.4 s-0.5,0.1-0.8-0.1c-0.2-0.1-0.4-0.3-0.4-0.5h-0.3c0,0.2,0.2,0.4,0.5,0.6c0.4,0.3,0.9,0.4,1.3,0.2c0.3-0.2,0.2-0.4,0-0.6 l-0.3-0.2c-0.2-0.2-0.2-0.3-0.1-0.4c0.2-0.1,0.4-0.1,0.7,0.1c0.2,0.1,0.3,0.3,0.3,0.4h0.3C198.3,17.5,198.2,17.3,197.9,17.1"/><path fill="#12100B" d="M199.7,17.7l-0.3-0.2l-0.6,0.3l-0.2-0.1l-0.2,0.1l0.2,0.1l-1.1,0.7c-0.3,0.2-0.3,0.4,0,0.6l0.2,0.1 l0.2-0.1l-0.1-0.1c-0.2-0.1-0.1-0.2,0-0.3l1.1-0.7l0.4,0.3l0.2-0.1l-0.4-0.3L199.7,17.7"/><path fill="#12100B" d="M198.8,19.8c-0.3-0.2-0.3-0.3-0.1-0.5c0.2-0.1,0.5-0.1,0.7,0.1l0.5,0.3l-0.2,0.1 c-0.2,0.1-0.3,0.1-0.4,0.1C199.1,19.9,199,19.9,198.8,19.8 M200.5,18.8c-0.3-0.2-0.5-0.3-0.9-0.3v0.2c0.3,0,0.4,0,0.7,0.2 s0.3,0.4,0.1,0.5l-0.2,0.1l-0.5-0.4c-0.4-0.3-0.8-0.3-1.1-0.1c-0.1,0.1-0.2,0.2-0.2,0.3c0,0.1,0.1,0.3,0.3,0.4 c0.2,0.2,0.4,0.2,0.7,0.2l-0.2,0.1l0.3,0.2l1.2-0.7C201,19.4,200.9,19.1,200.5,18.8"/><path fill="#12100B" d="M202.3,20.1c-0.5-0.3-1.1-0.3-1.7,0c-0.6,0.4-0.6,0.8-0.1,1.1c0.2,0.2,0.5,0.2,0.8,0.2v-0.2 c-0.3,0-0.4,0-0.6-0.1c-0.2-0.1-0.2-0.3-0.2-0.4s0.1-0.2,0.4-0.4c0.2-0.1,0.4-0.2,0.6-0.2c0.2,0,0.4,0,0.6,0.2 c0.2,0.1,0.2,0.2,0.2,0.4h0.3C202.7,20.4,202.6,20.2,202.3,20.1"/><polyline fill="#12100B" points="204.3 20.4 204 20.2 201.4 21.7 201.7 21.9 202.2 21.6 202.9 21.6 202.6 22.5 202.9 22.7 203.3 21.6 204.6 21.6 204.3 21.4 202.5 21.4 204.3 20.4"/><path fill="#12100B" d="M204.2,23.1c-0.1-0.1-0.1-0.1-0.1-0.2s0.2-0.2,0.3-0.3c0.2-0.1,0.4-0.2,0.6-0.2c0.1,0,0.2,0,0.3,0.1 s0.1,0.1,0.1,0.2s-0.1,0.2-0.3,0.3c-0.2,0.1-0.4,0.2-0.6,0.2C204.4,23.2,204.3,23.1,204.2,23.1 M205.7,22.2 c-0.3-0.2-0.6-0.2-0.8-0.2c-0.3,0-0.6,0.1-0.9,0.3c-0.3,0.2-0.5,0.4-0.5,0.6s0.1,0.3,0.4,0.5c0.3,0.2,0.6,0.2,0.8,0.2 c0.3,0,0.6-0.1,0.9-0.3c0.3-0.2,0.5-0.4,0.5-0.6C206.1,22.6,206,22.4,205.7,22.2"/><polyline fill="#12100B" points="208.3 23.9 207.8 23.6 206.3 24 207 23.1 206.5 22.8 205.4 24.4 205.7 24.6 208.3 23.9"/><path fill="#12100B" d="M208,24.7c0.1,0,0.1-0.1,0.2-0.1c0.2,0,0.3,0,0.5,0.1s0.2,0.2,0.1,0.3c0,0.1-0.1,0.1-0.2,0.2L208,24.7 M209.2,24.5c-0.5-0.3-1.2-0.3-1.8,0c-0.8,0.5-0.5,0.9-0.1,1.2c0.3,0.2,0.6,0.3,1,0.3v-0.4c-0.2,0-0.4,0-0.6-0.2 c-0.3-0.2-0.2-0.4,0-0.5l1.2,0.8l0.2-0.1C209.6,25.3,209.7,24.8,209.2,24.5"/><path fill="#12100B" d="M211.3,25.9c-0.2-0.1-0.5-0.2-0.7-0.2l0.2-0.1l-0.5-0.3l-1.9,1.1l0.5,0.3L210,26 c0.2-0.1,0.5-0.1,0.6,0s0.1,0.1,0.1,0.2h0.7C211.5,26.1,211.4,26,211.3,25.9"/><path fill="#12100B" d="M214.2,26.9l-0.5-0.3l-2,1.2c-0.3,0.2-0.4,0.4,0,0.7l0.3,0.2l0.4-0.2l-0.2-0.1c-0.1-0.1-0.1-0.1,0-0.2 L214.2,26.9 M213.4,26.4l-0.3-0.2c-0.4-0.3-0.8-0.2-1.1,0l-0.2,0.1l-0.2-0.1l-0.4,0.2l0.2,0.1l-1.5,0.9l0.5,0.3l1.5-0.9 l0.3,0.2l0.4-0.2l-0.3-0.2l0.2-0.1c0.1-0.1,0.2-0.1,0.3,0l0.2,0.1L213.4,26.4"/><path fill="#12100B" d="M213.3,29.1c-0.1-0.1-0.1-0.1-0.1-0.2s0.2-0.2,0.3-0.3c0.2-0.1,0.4-0.2,0.6-0.2c0.1,0,0.2,0,0.3,0.1 s0.1,0.1,0.1,0.2s-0.1,0.2-0.3,0.3c-0.2,0.1-0.4,0.2-0.6,0.2C213.5,29.2,213.4,29.2,213.3,29.1 M214.8,28.2 c-0.3-0.2-0.6-0.2-0.8-0.2c-0.3,0-0.6,0.1-0.9,0.3c-0.3,0.2-0.5,0.4-0.5,0.6c0,0.1,0.1,0.3,0.4,0.5c0.3,0.2,0.6,0.2,0.8,0.2 c0.3,0,0.6-0.1,0.9-0.3c0.3-0.2,0.5-0.4,0.5-0.6C215.2,28.6,215.1,28.4,214.8,28.2"/><polyline fill="#12100B" points="218.3 30.6 217.8 30.3 216.4 30.8 217.2 29.8 216.8 29.6 215.3 30 216.1 29.1 215.6 28.8 214.3 30.3 214.7 30.6 216.3 30.1 215.5 31.1 215.9 31.3 218.3 30.6"/><polyline fill="#888487" points="195.3 15.9 192.7 14.1 192.1 14.5 194.7 16.2 195.3 15.9"/><polyline fill="#ED7302" points="201.7 13.6 201 13.3 198.9 15.2 199.6 15.5 201.7 13.6"/><polyline fill="#AF8F6E" points="193.7 13.6 193.1 13.9 195.4 15.8 196 15.5 193.7 13.6"/><polyline fill="#C79849" points="195.1 13.1 194.4 13.3 196.2 15.4 196.9 15.1 195.1 13.1"/><polyline fill="#D68B0C" points="197 12.7 196.2 12.8 197.1 15.1 197.9 15 197 12.7"/><polyline fill="#F08500" points="199.5 12.9 198.7 12.7 198 15 198.8 15.1 199.5 12.9"/><polyline fill="#888487" points="197.4 15.7 196.9 15.4 194.7 16.7 191.3 14.5 193.6 13.1 193.1 12.8 190.4 14.5 190.5 14.5 190.6 14.6 194.7 17.3 194.8 17.2 197.4 15.7"/></g></g></g></g></g></g><g id="icon-search"><path fill="#CCD7DC" d="M61.2,1.3c1.1,0,2.2,0.2,3.2,0.6s1.9,1,2.6,1.7s1.3,1.6,1.7,2.6s0.7,2.1,0.6,3.2s-0.2,2.2-0.6,3.2 s-1,1.9-1.7,2.6s-1.6,1.3-2.6,1.7c-1,0.4-2.1,0.6-3.2,0.6c-1,0-1.9-0.2-2.7-0.5s-1.7-0.8-2.4-1.3l-5.2,5.2 c-0.2,0.2-0.4,0.3-0.6,0.3c-0.3,0-0.5-0.1-0.6-0.3c-0.2-0.2-0.3-0.4-0.3-0.6c0-0.3,0.1-0.5,0.3-0.6l5.2-5.2 c-0.6-0.7-1-1.5-1.3-2.4c-0.3-0.9-0.5-1.8-0.5-2.7c0-1.1,0.2-2.2,0.6-3.2s1-1.9,1.7-2.6C56.1,3,57,2.4,58,2S60,1.3,61.2,1.3 L61.2,1.3z M58.7,3.7c-0.8,0.3-1.5,0.8-2,1.4c-0.5,0.6-1,1.2-1.4,2c-0.3,0.8-0.5,1.6-0.5,2.5s0.2,1.7,0.5,2.5s0.8,1.5,1.4,2 c0.6,0.6,1.2,1,2,1.4c0.8,0.3,1.6,0.5,2.5,0.5s1.7-0.2,2.5-0.5s1.5-0.8,2-1.4c0.6-0.6,1-1.2,1.4-2c0.3-0.8,0.5-1.6,0.5-2.5 S67.3,7.8,67,7s-0.8-1.5-1.4-2s-1.2-1-2-1.4c-0.8-0.3-1.6-0.5-2.5-0.5C60.3,3.2,59.5,3.3,58.7,3.7z"/></g><symbol id="icon-tags" fill="#5E6973" viewBox="0 0 1280 1024"><path d="M1232 0h-384c-26.4 0-63.274 15.274-81.942 33.942l-476.116 476.116c-18.668 18.668-18.668 49.214 0 67.882l412.118 412.118c18.668 18.668 49.214 18.668 67.882 0l476.118-476.118c18.666-18.666 33.94-55.54 33.94-81.94v-384c0-26.4-21.6-48-48-48zM992 384c-53.020 0-96-42.98-96-96s42.98-96 96-96 96 42.98 96 96-42.98 96-96 96z"/><path d="M128 544l544-544h-80c-26.4 0-63.274 15.274-81.942 33.942l-476.116 476.116c-18.668 18.668-18.668 49.214 0 67.882l412.118 412.118c18.668 18.668 49.214 18.668 67.882 0l30.058-30.058-416-416z"/></symbol><symbol id="icon-meter" class="icon" viewBox="0 0 1024 1024"><path d="M512 0c-282.77 0-512 229.23-512 512s229.23 512 512 512 512-229.23 512-512-229.23-512-512-512zM302.836 834.152c11.106-30.632 17.164-63.688 17.164-98.152 0-124.35-78.81-230.292-189.208-270.606 10.21-84.924 48.254-163.498 109.678-224.924 72.53-72.526 168.96-112.47 271.53-112.47s199 39.944 271.53 112.47c61.428 61.426 99.468 140 109.682 224.924-110.402 40.314-189.212 146.256-189.212 270.606 0 34.468 6.060 67.52 17.166 98.15-61.706 40.242-133.77 61.85-209.166 61.85-75.394 0-147.458-21.608-209.164-61.848zM551.754 640.996c13.878 3.494 24.246 16.080 24.246 31.004v64c0 17.6-14.4 32-32 32h-64c-17.6 0-32-14.4-32-32v-64c0-14.924 10.368-27.51 24.246-31.004l23.754-448.996h32l23.754 448.996z"/></symbol><symbol id="icon-meter2" class="icon" viewBox="0 0 1024 1024"><path d="M512 64c282.77 0 512 229.23 512 512 0 192.792-106.576 360.666-264.008 448h-495.984c-157.432-87.334-264.008-255.208-264.008-448 0-282.77 229.23-512 512-512zM801.914 865.914c77.438-77.44 120.086-180.398 120.086-289.914h-90v-64h85.038c-7.014-44.998-21.39-88.146-42.564-128h-106.474v-64h64.284c-9.438-11.762-19.552-23.096-30.37-33.914-46.222-46.22-101.54-80.038-161.914-99.798v69.712h-64v-85.040c-20.982-3.268-42.36-4.96-64-4.96s-43.018 1.69-64 4.96v85.040h-64v-69.712c-60.372 19.76-115.692 53.576-161.914 99.798-10.818 10.818-20.932 22.152-30.37 33.914h64.284v64h-106.476c-21.174 39.854-35.552 83.002-42.564 128h85.040v64h-90c0 109.516 42.648 212.474 120.086 289.914 10.71 10.71 21.924 20.728 33.56 30.086h192.354l36.572-512h54.856l36.572 512h192.354c11.636-9.358 22.852-19.378 33.56-30.086z"/></symbol><symbol id="icon-drive" class="icon" viewBox="0 0 1024 1024"><path d="M192 896h640c106.038 0 192-85.96 192-192h-1024c0 106.040 85.962 192 192 192zM832 768h64v64h-64v-64zM960 128h-896l-64 512h1024z"/></symbol><symbol id="icon-stats" class="icon" viewBox="0 0 1024 1024"><path d="M288 384h-192c-17.6 0-32 14.4-32 32v576c0 17.6 14.4 32 32 32h192c17.6 0 32-14.4 32-32v-576c0-17.6-14.4-32-32-32zM288 960h-192v-256h192v256zM608 256h-192c-17.6 0-32 14.4-32 32v704c0 17.6 14.4 32 32 32h192c17.6 0 32-14.4 32-32v-704c0-17.6-14.4-32-32-32zM608 960h-192v-320h192v320zM928 128h-192c-17.6 0-32 14.4-32 32v832c0 17.6 14.4 32 32 32h192c17.6 0 32-14.4 32-32v-832c0-17.6-14.4-32-32-32zM928 960h-192v-384h192v384z"/></symbol><symbol id="icon-cogs" class="icon" viewBox="0 0 1024 1024"><path d="M363.722 722.052l41.298-57.816-45.254-45.256-57.818 41.296c-10.722-5.994-22.204-10.774-34.266-14.192l-11.682-70.084h-64l-11.68 70.086c-12.062 3.418-23.544 8.198-34.266 14.192l-57.818-41.298-45.256 45.256 41.298 57.816c-5.994 10.72-10.774 22.206-14.192 34.266l-70.086 11.682v64l70.086 11.682c3.418 12.060 8.198 23.544 14.192 34.266l-41.298 57.816 45.254 45.256 57.818-41.296c10.722 5.994 22.204 10.774 34.266 14.192l11.682 70.084h64l11.68-70.086c12.062-3.418 23.544-8.198 34.266-14.192l57.818 41.296 45.254-45.256-41.298-57.816c5.994-10.72 10.774-22.206 14.192-34.266l70.088-11.68v-64l-70.086-11.682c-3.418-12.060-8.198-23.544-14.192-34.266zM224 864c-35.348 0-64-28.654-64-64s28.652-64 64-64 64 28.654 64 64-28.652 64-64 64zM1024 384v-64l-67.382-12.25c-1.242-8.046-2.832-15.978-4.724-23.79l57.558-37.1-24.492-59.128-66.944 14.468c-4.214-6.91-8.726-13.62-13.492-20.13l39.006-56.342-45.256-45.254-56.342 39.006c-6.512-4.766-13.22-9.276-20.13-13.494l14.468-66.944-59.128-24.494-37.1 57.558c-7.812-1.892-15.744-3.482-23.79-4.724l-12.252-67.382h-64l-12.252 67.382c-8.046 1.242-15.976 2.832-23.79 4.724l-37.098-57.558-59.128 24.492 14.468 66.944c-6.91 4.216-13.62 8.728-20.13 13.494l-56.342-39.006-45.254 45.254 39.006 56.342c-4.766 6.51-9.278 13.22-13.494 20.13l-66.944-14.468-24.492 59.128 57.558 37.1c-1.892 7.812-3.482 15.742-4.724 23.79l-67.384 12.252v64l67.382 12.25c1.242 8.046 2.832 15.978 4.724 23.79l-57.558 37.1 24.492 59.128 66.944-14.468c4.216 6.91 8.728 13.618 13.494 20.13l-39.006 56.342 45.254 45.256 56.342-39.006c6.51 4.766 13.22 9.276 20.13 13.492l-14.468 66.944 59.128 24.492 37.102-57.558c7.81 1.892 15.742 3.482 23.788 4.724l12.252 67.384h64l12.252-67.382c8.044-1.242 15.976-2.832 23.79-4.724l37.1 57.558 59.128-24.492-14.468-66.944c6.91-4.216 13.62-8.726 20.13-13.492l56.342 39.006 45.256-45.256-39.006-56.342c4.766-6.512 9.276-13.22 13.492-20.13l66.944 14.468 24.492-59.13-57.558-37.1c1.892-7.812 3.482-15.742 4.724-23.79l67.382-12.25zM672 491.2c-76.878 0-139.2-62.322-139.2-139.2s62.32-139.2 139.2-139.2 139.2 62.322 139.2 139.2c0 76.878-62.32 139.2-139.2 139.2z"/></symbol><symbol id="icon-bug" class="icon" viewBox="0 0 1024 1024"><path d="M1024 576v-64h-193.29c-5.862-72.686-31.786-139.026-71.67-192.25h161.944l70.060-280.24-62.090-15.522-57.94 231.76h-174.68c-0.892-0.694-1.796-1.374-2.698-2.056 6.71-19.502 10.362-40.422 10.362-62.194 0.002-105.76-85.958-191.498-191.998-191.498s-192 85.738-192 191.5c0 21.772 3.65 42.692 10.362 62.194-0.9 0.684-1.804 1.362-2.698 2.056h-174.68l-57.94-231.76-62.090 15.522 70.060 280.24h161.944c-39.884 53.222-65.806 119.562-71.668 192.248h-193.29v64h193.37c3.802 45.664 15.508 88.812 33.638 127.75h-123.992l-70.060 280.238 62.090 15.524 57.94-231.762h112.354c58.692 78.032 147.396 127.75 246.66 127.75s187.966-49.718 246.662-127.75h112.354l57.94 231.762 62.090-15.524-70.060-280.238h-123.992c18.13-38.938 29.836-82.086 33.636-127.75h193.37z"/></symbol><symbol id="icon-tree" class="icon" viewBox="0 0 1024 1024"><path d="M976 768h-16v-208c0-61.756-50.242-112-112-112h-272v-128h16c26.4 0 48-21.6 48-48v-160c0-26.4-21.6-48-48-48h-160c-26.4 0-48 21.6-48 48v160c0 26.4 21.6 48 48 48h16v128h-272c-61.756 0-112 50.244-112 112v208h-16c-26.4 0-48 21.6-48 48v160c0 26.4 21.6 48 48 48h160c26.4 0 48-21.6 48-48v-160c0-26.4-21.6-48-48-48h-16v-192h256v192h-16c-26.4 0-48 21.6-48 48v160c0 26.4 21.6 48 48 48h160c26.4 0 48-21.6 48-48v-160c0-26.4-21.6-48-48-48h-16v-192h256v192h-16c-26.4 0-48 21.6-48 48v160c0 26.4 21.6 48 48 48h160c26.4 0 48-21.6 48-48v-160c0-26.4-21.6-48-48-48zM192 960h-128v-128h128v128zM576 960h-128v-128h128v128zM448 256v-128h128v128h-128zM960 960h-128v-128h128v128z"/></symbol><symbol id="icon-sort" class="icon" viewBox="0 0 1024 1024"><path d="M320 768v-768h-128v768h-160l224 224 224-224h-160z"/><path d="M448 0h576v128h-576v-128z"/><path d="M448 192h448v128h-448v-128z"/><path d="M448 384h320v128h-320v-128z"/><path d="M448 576h192v128h-192v-128z"/></symbol><symbol id="icon-group" class="icon" viewBox="0 0 1024 1024"><path d="M320 128h-128c-35.2 0-64 28.8-64 64v128c0 35.2 28.8 64 64 64h128c35.2 0 64-28.8 64-64v-128c0-35.2-28.8-64-64-64z"/><path d="M704 384h128c35.2 0 64-28.8 64-64v-128c0-35.2-28.8-64-64-64h-128c-35.2 0-64 28.8-64 64v128c0 35.2 28.8 64 64 64zM704 192h128v128h-128v-128z"/><path d="M320 640h-128c-35.2 0-64 28.8-64 64v128c0 35.2 28.8 64 64 64h128c35.2 0 64-28.8 64-64v-128c0-35.2-28.8-64-64-64zM320 832h-128v-128h128v128z"/><path d="M832 640h-128c-35.2 0-64 28.8-64 64v128c0 35.2 28.8 64 64 64h128c35.2 0 64-28.8 64-64v-128c0-35.2-28.8-64-64-64z"/><path d="M896 512h-64c-85.476 0-165.834-33.286-226.274-93.724-60.44-60.442-93.726-140.802-93.726-226.276v-64c0-70.4-57.6-128-128-128h-256c-70.4 0-128 57.6-128 128v256c0 70.4 57.6 128 128 128h64c85.476 0 165.834 33.286 226.274 93.724 60.44 60.442 93.726 140.802 93.726 226.276v64c0 70.4 57.6 128 128 128h256c70.4 0 128-57.6 128-128v-256c0-70.4-57.6-128-128-128zM960 896c0 16.954-6.696 32.986-18.856 45.144-12.158 12.16-28.19 18.856-45.144 18.856h-256c-16.954 0-32.986-6.696-45.144-18.856-12.16-12.158-18.856-28.19-18.856-45.144v-64c0-212.078-171.922-384-384-384h-64c-16.954 0-32.986-6.696-45.146-18.854-12.158-12.16-18.854-28.192-18.854-45.146v-256c0-16.954 6.696-32.986 18.854-45.146 12.16-12.158 28.192-18.854 45.146-18.854h256c16.954 0 32.986 6.696 45.146 18.854 12.158 12.16 18.854 28.192 18.854 45.146v64c0 212.078 171.922 384 384 384h64c16.954 0 32.986 6.696 45.144 18.856 12.16 12.158 18.856 28.19 18.856 45.144v256z"/></symbol><symbol id="icon-table" class="icon" viewBox="0 0 1024 1024"><path d="M0 192v704h1024v-704h-1024zM384 640v-128h256v128h-256zM640 704v128h-256v-128h256zM640 320v128h-256v-128h256zM320 320v128h-256v-128h256zM64 512h256v128h-256v-128zM704 512h256v128h-256v-128zM704 448v-128h256v128h-256zM64 704h256v128h-256v-128zM704 832v-128h256v128h-256z" class="path1"/></symbol><symbol id="icon-code" class="icon" viewBox="0 0 1280 1024"><path d="M832 736l96 96 320-320-320-320-96 96 224 224z"/><path d="M448 288l-96-96-320 320 320 320 96-96-224-224z"/><path d="M701.298 150.519l69.468 18.944-191.987 704.026-69.468-18.944 191.987-704.026z"/></symbol><symbol id="icon-html5" class="icon" viewBox="0 0 1024 1024"><path d="M60.538 0l82.144 921.63 368.756 102.37 369.724-102.524 82.3-921.476h-902.924zM810.762 862.824l-297.226 82.376v0.466l-0.776-0.234-0.782 0.234v-0.466l-297.222-82.376-70.242-787.486h736.496l-70.248 787.486zM650.754 530.204l-13.070 146.552-126.21 34.070-125.862-33.916-8.050-90.234h-113.49l15.83 177.512 232.076 64.176 231.342-64.176 31.040-347.012h-411.966l-10.302-115.748h432.534l10.112-113.026h-566.218l30.498 341.802z"/></symbol><symbol id="icon-t-shirt" class="icon" viewBox="0 0 1024 1024"><path d="M1000 206.016l-160-128c-11.36-9.088-25.504-14.016-40-14.016h-576c-14.528 0-28.64 4.928-40 14.016l-160 128c-20.928 16.768-29.184 44.8-20.704 70.24l64 192c6.304 18.912 21.088 33.824 39.968 40.288 6.72 2.304 13.76 3.456 20.736 3.456 11.136 0 22.176-2.912 32-8.576v392.576c0 35.328 28.672 64 64 64h576c35.328 0 64-28.672 64-64v-392.576c9.824 5.664 20.864 8.576 32 8.576 7.008 0 14.016-1.152 20.736-3.456 18.88-6.464 33.632-21.376 39.936-40.288l64-192c8.512-25.44 0.256-53.472-20.672-70.24zM632.128 128c-17.696 37.152-64.576 64-120.128 64s-102.464-26.848-120.128-64h240.256zM896 448l-96-64v512h-576v-512l-96 64-64-192 160-128h133.664c17.824 55.104 79.872 96 154.336 96 74.432 0 136.512-40.896 154.304-96h133.696l160 128-64 192z"/></symbol><symbol id="icon-tree2" class="icon" viewBox="0 0 1024 1024"><path d="M726 682h170v214h-214v-130l-170-180-170 180v130h-214v-214h170l172-170v-136q-38-14-62-46t-24-74q0-52 38-90t90-38 90 38 38 90q0 42-24 74t-62 46v136z" class="path1"/></symbol><symbol id="icon-blur" class="icon" viewBox="0 0 1024 1024"><path d="M554 726q-18 0-30-13t-12-31 12-30 30-12 31 12 13 30-13 31-31 13zM554 554q-18 0-30-12t-12-30 12-30 30-12 31 12 13 30-13 30-31 12zM554 384q-18 0-30-12t-12-30 12-31 30-13 31 13 13 31-13 30-31 12zM726 534q-22 0-22-22t22-22q20 0 20 22t-20 22zM726 362q-22 0-22-20 0-22 22-22 20 0 20 22 0 20-20 20zM128 128h768v86h-768v-86zM726 704q-22 0-22-22 0-20 22-20 20 0 20 20 0 22-20 22zM384 726q-18 0-30-13t-12-31 12-30 30-12 30 12 12 30-12 31-30 13zM214 576q-26 0-45-18t-19-46 19-46 45-18 45 18 19 46-19 46-45 18zM214 406q-26 0-45-19t-19-45 19-45 45-19 45 19 19 45-19 45-45 19zM128 896v-86h768v86h-768zM384 384q-18 0-30-12t-12-30 12-31 30-13 30 13 12 31-12 30-30 12zM384 554q-18 0-30-12t-12-30 12-30 30-12 30 12 12 30-12 30-30 12zM214 746q-26 0-45-19t-19-45 19-45 45-19 45 19 19 45-19 45-45 19z" class="path1"/></symbol><symbol id="icon-flip" class="icon" viewBox="0 0 1024 1024"><path d="M810 896v-86h86q0 34-26 60t-60 26zM810 554v-84h86v84h-86zM640 214v-86h86v86h-86zM810 726v-86h86v86h-86zM470 982v-940h84v940h-84zM810 128q34 0 60 26t26 60h-86v-86zM128 214q0-34 26-60t60-26h170v86h-170v596h170v86h-170q-34 0-60-26t-26-60v-596zM810 384v-86h86v86h-86zM640 896v-86h86v86h-86z" class="path1"/></symbol><symbol id="icon-layers" class="icon" viewBox="0 0 1024 1024"><path d="M512 682q-18-14-163-127t-221-171l384-298 384 298q-76 58-220 170t-164 128zM512 792l314-246 70 54-384 298-384-298 70-54z" class="path1"/></symbol><symbol id="icon-settings" class="icon" viewBox="0 0 1024 1024"><path d="M726 682v-84h256v84q0 42-24 74t-62 46v180h-86v-180q-84-30-84-120zM554 86v170h86v256h-256v-256h86v-170q0-18 12-31t30-13 30 13 12 31zM896 256h86v256h-256v-256h84v-170q0-18 13-31t31-13 30 13 12 31v170zM42 682v-84h256v84q0 90-84 120v180h-86v-180q-38-14-62-46t-24-74zM384 682v-84h256v84q0 42-24 74t-62 46v180h-84v-180q-38-14-62-46t-24-74zM214 86v170h84v256h-256v-256h86v-170q0-18 12-31t30-13 31 13 13 31z" class="path1"/></symbol></defs><g transform="translate(120,120)"><use xlink:href="#page"/></g><g><g class="developer"><g><text x="260" y="32" text-anchor="middle" transform="translate(550, 0)">Web Servers</text><g transform="translate(550, 0) translate(0, 20)"><use xlink:href="#server"/><use x="35" xlink:href="#server"/><use x="70" xlink:href="#server"/><use x="105" xlink:href="#server"/><use x="140" xlink:href="#server"/><use x="175" xlink:href="#server"/><use x="210" xlink:href="#server"/><use x="245" xlink:href="#server"/><use x="280" xlink:href="#server"/><use x="391" xlink:href="#server"/><use x="426" xlink:href="#server"/></g><g class="icon-tray" transform="translate(550, 0) translate(91, 150)"><use width="24" height="24" x="0" xlink:href="#icon-code"/><use width="24" height="24" x="60" xlink:href="#icon-t-shirt"/><use width="24" height="24" x="120" xlink:href="#icon-cogs"/><use width="24" height="24" x="180" xlink:href="#icon-meter"/><use width="24" height="24" x="240" xlink:href="#icon-html5"/><use width="24" height="24" x="300" xlink:href="#icon-bug"/></g></g><g><g transform="translate(550, 0) translate(0,180)"><text x="30" y="35" text-anchor="middle" transform="translate(50, 0)">Elastic</text><g><g transform="translate(40, 10) translate(114, 0) rotate(90)"><use xlink:href="#server"/><use x="35" xlink:href="#server"/><use x="70" xlink:href="#server"/></g></g><use transform="translate(-45, 76)" xlink:href="#icon-search"/></g><g transform="translate(550, 0) translate(0,180) translate(175,0)"><text x="30" y="35" text-anchor="middle" transform="translate(50, 0)">Redis</text><g><g transform="translate(40, 10) translate(114, 0) rotate(90)"><use xlink:href="#server"/><use x="35" xlink:href="#server"/></g></g><use width="20" height="20" transform="translate(-18, 78) scale(0.45, 0.45)" xlink:href="#icon-redis"/></g><g transform="translate(550, 0) translate(0,180) translate(350,0)"><text x="30" y="35" text-anchor="middle" transform="translate(50, 0)">Stack Server</text><g><g transform="translate(40, 10) translate(114, 0) rotate(90)"><use xlink:href="#server"/><use x="35" xlink:href="#server"/><use x="70" xlink:href="#server"/></g></g><use width="28" height="28" transform="translate(-5, 76)" xlink:href="#icon-tags"/></g></g></g><g><text x="250" y="10" text-anchor="middle" transform="translate(550, 0) translate(0,340)">Databases</text><g transform="translate(550, 0) translate(0,340) translate(30, 20)"><use xlink:href="#database"/><use x="105" xlink:href="#database"/><use x="245" xlink:href="#database"/><use x="350" xlink:href="#database"/></g><g class="icon-tray developer-ish" transform="translate(550, 0) translate(0,340) translate(91, 140)"><use width="24" height="24" x="0" xlink:href="#icon-table"/><use width="24" height="24" x="60" xlink:href="#icon-tree"/><use width="24" height="24" x="120" xlink:href="#icon-drive"/><use width="24" height="24" x="180" xlink:href="#icon-meter2"/><use width="24" height="24" x="240" xlink:href="#icon-stats"/><use width="24" height="24" x="300" xlink:href="#icon-sort"/></g><g class="icon-tray dba" transform="translate(550, 0) translate(0,340) translate(121, 170)"><use width="24" height="24" x="0" xlink:href="#icon-tree2"/><use width="24" height="24" x="60" xlink:href="#icon-blur"/><use width="24" height="24" x="120" xlink:href="#icon-flip"/><use width="24" height="24" x="180" xlink:href="#icon-layers"/><use width="24" height="24" x="240" xlink:href="#icon-settings"/></g></g></g><style>text{font:700 12px Verdana,Helvetica,Arial,sans-serif;fill:#eee}.icon-tray{fill:#4c8dbd}.icon-tray.dba{fill:#e1ecf4}.developer{filter:url(#blur);opacity:.2}</style></svg>