<?xml version="1.0" encoding="utf-8"?>
<!DOCTYPE svg PUBLIC "-//W3C//DTD SVG 1.1//EN" "http://www.w3.org/Graphics/SVG/1.1/DTD/svg11.dtd">
<svg version="1.1" xmlns="http://www.w3.org/2000/svg" xmlns:xlink="http://www.w3.org/1999/xlink" x="0px" y="0px"
	 width="200px" height="200px" viewBox="0 0 200 200" enable-background="new 0 0 200 200" xml:space="preserve">
  <g>
	<path fill="#2B2B2B" d="M109.7,15.4c43.6,0,71.4,29.6,71.4,71.8c0,36.9-24.8,55.5-46,55.5c-11.5,0-21-5.6-23.2-15.3h-0.4
		c-5.6,7.9-15.9,13.3-24.2,13.3c-15.9,0-26.6-11.7-26.6-30.2c0-24.6,17.5-49.4,40.7-49.4c6.7,0,11.9,2.8,15.3,10.1h0.4l2.8-8.5h18.3
		l-9.3,44.4c-2.8,11.7,0.2,17.3,9.3,17.3c12.1,0,24-14.1,24-36.3c0-28.8-15.5-54.6-55-54.6c-34.5,0-68.6,29.4-68.6,74.8
		c0,39.7,27.4,58.9,58.9,58.9c10.5,0,22.2-3.4,30.7-7.9l6.5,16.1c-12.3,6.7-25.2,9.7-39.5,9.7c-40.3,0-76.4-24.6-76.4-76
		C18.7,52.5,60.1,15.4,109.7,15.4z M93.6,122.1c4.2,0,8.3-2.4,13.3-9.1l4.8-27.2c-2-3.8-5.2-5.8-9.3-5.8
		c-12.1,0-19.4,16.5-19.4,28.6C83.1,117.6,86.9,122.1,93.6,122.1z"/>
</g>
</svg>
